G04 #@! TF.GenerationSoftware,KiCad,Pcbnew,6.0.0-rc1-unknown-e7fa02a~66~ubuntu18.04.1*
G04 #@! TF.CreationDate,2021-12-29T11:19:39-08:00
G04 #@! TF.ProjectId,rp_adapter,72705f61-6461-4707-9465-722e6b696361,rev?*
G04 #@! TF.SameCoordinates,Original*
G04 #@! TF.FileFunction,Copper,L4,Bot*
G04 #@! TF.FilePolarity,Positive*
%FSLAX46Y46*%
G04 Gerber Fmt 4.6, Leading zero omitted, Abs format (unit mm)*
G04 Created by KiCad (PCBNEW 6.0.0-rc1-unknown-e7fa02a~66~ubuntu18.04.1) date Wed 29 Dec 2021 11:19:39 AM PST*
%MOMM*%
%LPD*%
G04 APERTURE LIST*
%ADD10R,1.524000X1.524000*%
%ADD11C,1.524000*%
%ADD12C,3.600000*%
%ADD13R,1.727200X1.727200*%
%ADD14O,1.727200X1.727200*%
%ADD15C,3.540760*%
%ADD16R,3.540760X3.540760*%
%ADD17R,1.700000X1.700000*%
%ADD18O,1.700000X1.700000*%
%ADD19C,41.000000*%
%ADD20R,3.500000X3.500000*%
%ADD21C,0.100000*%
%ADD22C,3.000000*%
%ADD23C,3.500000*%
%ADD24C,1.540000*%
%ADD25C,4.000000*%
%ADD26C,2.050000*%
%ADD27C,2.250000*%
%ADD28R,2.000000X1.905000*%
%ADD29O,2.000000X1.905000*%
%ADD30C,2.500000*%
%ADD31C,0.600000*%
%ADD32C,1.000000*%
%ADD33C,2.000000*%
%ADD34C,0.250000*%
G04 APERTURE END LIST*
D10*
X134965000Y-84928000D03*
D11*
X137505000Y-84928000D03*
X140045000Y-84928000D03*
X142585000Y-84928000D03*
X145125000Y-84928000D03*
X147665000Y-84928000D03*
X150205000Y-84928000D03*
X152745000Y-84928000D03*
X155285000Y-84928000D03*
X157825000Y-84928000D03*
X160365000Y-84928000D03*
D12*
X163365000Y-83428000D03*
X120965000Y-83428000D03*
X163365000Y-47738000D03*
X120885000Y-47698000D03*
D13*
X131612000Y-118838000D03*
D14*
X129072000Y-118838000D03*
X131612000Y-116298000D03*
X129072000Y-116298000D03*
X131612000Y-113758000D03*
X129072000Y-113758000D03*
X131612000Y-111218000D03*
X129072000Y-111218000D03*
X131612000Y-108678000D03*
X129072000Y-108678000D03*
X131612000Y-106138000D03*
X129072000Y-106138000D03*
X131612000Y-103598000D03*
X129072000Y-103598000D03*
X131612000Y-101058000D03*
X129072000Y-101058000D03*
X131612000Y-98518000D03*
X129072000Y-98518000D03*
X131612000Y-95978000D03*
X129072000Y-95978000D03*
X131612000Y-93438000D03*
X129072000Y-93438000D03*
X131612000Y-90898000D03*
X129072000Y-90898000D03*
X131612000Y-88358000D03*
X129072000Y-88358000D03*
D13*
X81017900Y-118460000D03*
D14*
X78477900Y-118460000D03*
X81017900Y-115920000D03*
X78477900Y-115920000D03*
X81017900Y-113380000D03*
X78477900Y-113380000D03*
X81017900Y-110840000D03*
X78477900Y-110840000D03*
X81017900Y-108300000D03*
X78477900Y-108300000D03*
X81017900Y-105760000D03*
X78477900Y-105760000D03*
X81017900Y-103220000D03*
X78477900Y-103220000D03*
X81017900Y-100680000D03*
X78477900Y-100680000D03*
X81017900Y-98140000D03*
X78477900Y-98140000D03*
X81017900Y-95600000D03*
X78477900Y-95600000D03*
X81017900Y-93060000D03*
X78477900Y-93060000D03*
X81017900Y-90520000D03*
X78477900Y-90520000D03*
X81017900Y-87980000D03*
X78477900Y-87980000D03*
D15*
X119990000Y-147967000D03*
D16*
X119990000Y-140347000D03*
D15*
X119860000Y-165037000D03*
D16*
X119860000Y-157417000D03*
D17*
X129569000Y-129238000D03*
D18*
X132109000Y-129238000D03*
X129569000Y-131778000D03*
X132109000Y-131778000D03*
X129569000Y-134318000D03*
X132109000Y-134318000D03*
X129569000Y-136858000D03*
X132109000Y-136858000D03*
X129569000Y-139398000D03*
X132109000Y-139398000D03*
D19*
X105560000Y-112605000D03*
D17*
X148311000Y-41701000D03*
D18*
X150851000Y-41701000D03*
X160250000Y-41752000D03*
D17*
X157710000Y-41752000D03*
D10*
X142032000Y-95733000D03*
D11*
X142032000Y-98273000D03*
X142032000Y-100813000D03*
X142032000Y-103353000D03*
X142032000Y-105893000D03*
X142032000Y-108433000D03*
X142032000Y-110973000D03*
X142032000Y-113513000D03*
X142032000Y-116053000D03*
X142032000Y-118593000D03*
X142032000Y-121133000D03*
X142032000Y-123673000D03*
X142032000Y-126213000D03*
X142032000Y-128753000D03*
X142032000Y-131293000D03*
X142032000Y-133833000D03*
X142032000Y-136373000D03*
X142032000Y-138913000D03*
X142032000Y-141453000D03*
X142032000Y-143993000D03*
X142032000Y-146533000D03*
X142032000Y-149073000D03*
X142032000Y-151613000D03*
X142032000Y-154153000D03*
X142032000Y-156693000D03*
X142032000Y-159233000D03*
X142032000Y-161773000D03*
X142032000Y-164313000D03*
X142032000Y-166853000D03*
X162352000Y-166853000D03*
X162352000Y-164313000D03*
X162352000Y-161773000D03*
X162352000Y-159233000D03*
X162352000Y-156693000D03*
X162352000Y-154153000D03*
X162352000Y-151613000D03*
X162352000Y-149073000D03*
X162352000Y-146533000D03*
X162352000Y-143993000D03*
X162352000Y-141453000D03*
X162352000Y-138913000D03*
X162352000Y-136373000D03*
X162352000Y-133833000D03*
X162352000Y-131293000D03*
X162352000Y-128753000D03*
X162352000Y-126213000D03*
X162352000Y-123673000D03*
X162352000Y-121133000D03*
X162352000Y-118593000D03*
X162352000Y-116053000D03*
X162352000Y-113513000D03*
X162352000Y-110973000D03*
X162352000Y-108433000D03*
X162352000Y-105893000D03*
X162352000Y-103353000D03*
X162352000Y-100813000D03*
X162352000Y-98273000D03*
X162352000Y-95733000D03*
D17*
X155109000Y-112173000D03*
D18*
X152569000Y-112173000D03*
X150029000Y-112173000D03*
D17*
X146321000Y-154610000D03*
D18*
X148861000Y-154610000D03*
X151401000Y-154610000D03*
X153941000Y-154610000D03*
X156481000Y-154610000D03*
D17*
X154534000Y-107428000D03*
D18*
X151994000Y-107428000D03*
D20*
X61489000Y-149770000D03*
D21*
G36*
X68312513Y-148023611D02*
G01*
X68385318Y-148034411D01*
X68456714Y-148052295D01*
X68526013Y-148077090D01*
X68592548Y-148108559D01*
X68655678Y-148146398D01*
X68714795Y-148190242D01*
X68769330Y-148239670D01*
X68818758Y-148294205D01*
X68862602Y-148353322D01*
X68900441Y-148416452D01*
X68931910Y-148482987D01*
X68956705Y-148552286D01*
X68974589Y-148623682D01*
X68985389Y-148696487D01*
X68989000Y-148770000D01*
X68989000Y-150770000D01*
X68985389Y-150843513D01*
X68974589Y-150916318D01*
X68956705Y-150987714D01*
X68931910Y-151057013D01*
X68900441Y-151123548D01*
X68862602Y-151186678D01*
X68818758Y-151245795D01*
X68769330Y-151300330D01*
X68714795Y-151349758D01*
X68655678Y-151393602D01*
X68592548Y-151431441D01*
X68526013Y-151462910D01*
X68456714Y-151487705D01*
X68385318Y-151505589D01*
X68312513Y-151516389D01*
X68239000Y-151520000D01*
X66739000Y-151520000D01*
X66665487Y-151516389D01*
X66592682Y-151505589D01*
X66521286Y-151487705D01*
X66451987Y-151462910D01*
X66385452Y-151431441D01*
X66322322Y-151393602D01*
X66263205Y-151349758D01*
X66208670Y-151300330D01*
X66159242Y-151245795D01*
X66115398Y-151186678D01*
X66077559Y-151123548D01*
X66046090Y-151057013D01*
X66021295Y-150987714D01*
X66003411Y-150916318D01*
X65992611Y-150843513D01*
X65989000Y-150770000D01*
X65989000Y-148770000D01*
X65992611Y-148696487D01*
X66003411Y-148623682D01*
X66021295Y-148552286D01*
X66046090Y-148482987D01*
X66077559Y-148416452D01*
X66115398Y-148353322D01*
X66159242Y-148294205D01*
X66208670Y-148239670D01*
X66263205Y-148190242D01*
X66322322Y-148146398D01*
X66385452Y-148108559D01*
X66451987Y-148077090D01*
X66521286Y-148052295D01*
X66592682Y-148034411D01*
X66665487Y-148023611D01*
X66739000Y-148020000D01*
X68239000Y-148020000D01*
X68312513Y-148023611D01*
X68312513Y-148023611D01*
G37*
D22*
X67489000Y-149770000D03*
D21*
G36*
X65449765Y-143324213D02*
G01*
X65534704Y-143336813D01*
X65617999Y-143357677D01*
X65698848Y-143386605D01*
X65776472Y-143423319D01*
X65850124Y-143467464D01*
X65919094Y-143518616D01*
X65982718Y-143576282D01*
X66040384Y-143639906D01*
X66091536Y-143708876D01*
X66135681Y-143782528D01*
X66172395Y-143860152D01*
X66201323Y-143941001D01*
X66222187Y-144024296D01*
X66234787Y-144109235D01*
X66239000Y-144195000D01*
X66239000Y-145945000D01*
X66234787Y-146030765D01*
X66222187Y-146115704D01*
X66201323Y-146198999D01*
X66172395Y-146279848D01*
X66135681Y-146357472D01*
X66091536Y-146431124D01*
X66040384Y-146500094D01*
X65982718Y-146563718D01*
X65919094Y-146621384D01*
X65850124Y-146672536D01*
X65776472Y-146716681D01*
X65698848Y-146753395D01*
X65617999Y-146782323D01*
X65534704Y-146803187D01*
X65449765Y-146815787D01*
X65364000Y-146820000D01*
X63614000Y-146820000D01*
X63528235Y-146815787D01*
X63443296Y-146803187D01*
X63360001Y-146782323D01*
X63279152Y-146753395D01*
X63201528Y-146716681D01*
X63127876Y-146672536D01*
X63058906Y-146621384D01*
X62995282Y-146563718D01*
X62937616Y-146500094D01*
X62886464Y-146431124D01*
X62842319Y-146357472D01*
X62805605Y-146279848D01*
X62776677Y-146198999D01*
X62755813Y-146115704D01*
X62743213Y-146030765D01*
X62739000Y-145945000D01*
X62739000Y-144195000D01*
X62743213Y-144109235D01*
X62755813Y-144024296D01*
X62776677Y-143941001D01*
X62805605Y-143860152D01*
X62842319Y-143782528D01*
X62886464Y-143708876D01*
X62937616Y-143639906D01*
X62995282Y-143576282D01*
X63058906Y-143518616D01*
X63127876Y-143467464D01*
X63201528Y-143423319D01*
X63279152Y-143386605D01*
X63360001Y-143357677D01*
X63443296Y-143336813D01*
X63528235Y-143324213D01*
X63614000Y-143320000D01*
X65364000Y-143320000D01*
X65449765Y-143324213D01*
X65449765Y-143324213D01*
G37*
D23*
X64489000Y-145070000D03*
D17*
X78832000Y-77974000D03*
D18*
X78832000Y-75434000D03*
X78832000Y-72894000D03*
X78832000Y-70354000D03*
X78832000Y-67814000D03*
X78832000Y-65274000D03*
D22*
X136776000Y-33054000D03*
X147076000Y-33054000D03*
X141926000Y-31454000D03*
X158744000Y-31693000D03*
X163894000Y-33293000D03*
X153594000Y-33293000D03*
D17*
X84845000Y-74892000D03*
D18*
X84845000Y-72352000D03*
X84845000Y-69812000D03*
X84845000Y-67272000D03*
X84845000Y-64732000D03*
D24*
X88648000Y-47246000D03*
X88648000Y-50446000D03*
X88648000Y-52646000D03*
X88648000Y-54906000D03*
X85448000Y-54846000D03*
X85448000Y-52646000D03*
X85448000Y-50446000D03*
X85448000Y-47246000D03*
X94020000Y-47627000D03*
X94020000Y-50827000D03*
X94020000Y-53027000D03*
X94020000Y-55227000D03*
X97220000Y-55287000D03*
X97220000Y-53027000D03*
X97220000Y-50827000D03*
X97220000Y-47627000D03*
X101556000Y-47442000D03*
X101556000Y-50642000D03*
X101556000Y-52842000D03*
X101556000Y-55042000D03*
X104756000Y-55102000D03*
X104756000Y-52842000D03*
X104756000Y-50642000D03*
X104756000Y-47442000D03*
D25*
X63275000Y-104666000D03*
X63275000Y-130066000D03*
D26*
X110993000Y-31452000D03*
D27*
X113533000Y-28912000D03*
X108453000Y-28912000D03*
X108453000Y-33992000D03*
X113533000Y-33992000D03*
X69918000Y-34195000D03*
X64838000Y-34195000D03*
X64838000Y-29115000D03*
X69918000Y-29115000D03*
D26*
X67378000Y-31655000D03*
X95041000Y-31567000D03*
D27*
X97581000Y-29027000D03*
X92501000Y-29027000D03*
X92501000Y-34107000D03*
X97581000Y-34107000D03*
X82920000Y-34282000D03*
X77840000Y-34282000D03*
X77840000Y-29202000D03*
X82920000Y-29202000D03*
D26*
X80380000Y-31742000D03*
D28*
X70652000Y-119796000D03*
D29*
X70652000Y-117256000D03*
X70652000Y-114716000D03*
X66638000Y-114770000D03*
X66638000Y-117310000D03*
D28*
X66638000Y-119850000D03*
D30*
X131198000Y-40112000D03*
X127088000Y-29062000D03*
X120148000Y-36002000D03*
D31*
X159207000Y-116798500D03*
X143033000Y-47563800D03*
X62664000Y-60951800D03*
X118735000Y-154189600D03*
X60511000Y-57059000D03*
X147902000Y-119515700D03*
X160078000Y-131645700D03*
X155413000Y-138504700D03*
X98359900Y-58006200D03*
X83189000Y-58786100D03*
X146203000Y-125864300D03*
X154303000Y-123671100D03*
X65609400Y-63726100D03*
X92471000Y-41491300D03*
X65297400Y-54810600D03*
X109986000Y-57843200D03*
X109811000Y-50778300D03*
X139051000Y-47619700D03*
X126261000Y-146828600D03*
X150717200Y-101670100D03*
X159144000Y-123253200D03*
X152908000Y-122866300D03*
X91157000Y-58279500D03*
X103781000Y-57427900D03*
X89714000Y-61346200D03*
X94349000Y-64185300D03*
X97442000Y-64249000D03*
X109990000Y-40445600D03*
X107790000Y-44418900D03*
X60707500Y-140199900D03*
X74317000Y-121187000D03*
X113330000Y-84874500D03*
X98095000Y-87147400D03*
X58016000Y-31269000D03*
X58098000Y-34970000D03*
X58098000Y-39083000D03*
X60073000Y-39248000D03*
X60242000Y-35118000D03*
X60155000Y-31269000D03*
X62376000Y-31269000D03*
X62323000Y-34945000D03*
X62554000Y-39336000D03*
X64104000Y-39659000D03*
X70355000Y-39495000D03*
X70438000Y-37027000D03*
X73070000Y-37027000D03*
X73070000Y-34395000D03*
X73317000Y-31186000D03*
X73152000Y-39330000D03*
X75373000Y-31186000D03*
X75456000Y-34312000D03*
X75498000Y-36967000D03*
X75703000Y-39248000D03*
X85656000Y-31186000D03*
X85574000Y-34477000D03*
X85574000Y-37274000D03*
X85574000Y-40482000D03*
X85492000Y-44102000D03*
X88441000Y-42804000D03*
X88371000Y-40317000D03*
X88289000Y-37191000D03*
X88289000Y-34312000D03*
X88371000Y-30775000D03*
X101204000Y-31022000D03*
X103754000Y-31022000D03*
X101196000Y-34309000D03*
X103854000Y-34194000D03*
X101204000Y-36862000D03*
X103854000Y-36910000D03*
X101196000Y-42572000D03*
X104001000Y-42539000D03*
X106801000Y-37083000D03*
X109343000Y-37083000D03*
X116162000Y-37141000D03*
X116162000Y-34194000D03*
X116104000Y-30900000D03*
X118300000Y-30842000D03*
X118242000Y-37141000D03*
X115929000Y-40400000D03*
X116104000Y-43208000D03*
X118397000Y-40400000D03*
X118315000Y-43197000D03*
X120700000Y-30857000D03*
X120785000Y-40319000D03*
X120785000Y-43208000D03*
X123333000Y-30857000D03*
X125718000Y-30775000D03*
X128515000Y-30693000D03*
X123497000Y-33243000D03*
X125800000Y-33325000D03*
X128470000Y-33327000D03*
X123497000Y-37603000D03*
X125883000Y-37685000D03*
X128470000Y-37603000D03*
X125927000Y-40434000D03*
X128412000Y-40377000D03*
X60731000Y-47063000D03*
X59168000Y-47063000D03*
X59085000Y-44924000D03*
X63281000Y-43855000D03*
X65584000Y-43855000D03*
X67888000Y-43937000D03*
X63281000Y-45994000D03*
X65584000Y-45418000D03*
X63363000Y-48626000D03*
X64926000Y-48544000D03*
X67394000Y-54467000D03*
X67394000Y-51587000D03*
X68792000Y-51505000D03*
X67888000Y-57593000D03*
X67888000Y-59485000D03*
X70109000Y-57593000D03*
X70273000Y-59320000D03*
X71918000Y-47310000D03*
X74880000Y-46487000D03*
X77183000Y-46323000D03*
X77183000Y-48955000D03*
X76278000Y-54302000D03*
X118397000Y-51505000D03*
X121194000Y-51670000D03*
X121358000Y-54796000D03*
X121523000Y-62117000D03*
X121523000Y-65161000D03*
X121441000Y-68945000D03*
X121605000Y-72482000D03*
X118973000Y-72647000D03*
X116176000Y-72893000D03*
X116340000Y-69027000D03*
X116176000Y-61623000D03*
X116423000Y-58415000D03*
X116423000Y-54302000D03*
X113461000Y-69192000D03*
X110417000Y-66066000D03*
X94294000Y-66230000D03*
X97420000Y-66312000D03*
X130901000Y-50929000D03*
X133533000Y-51258000D03*
X136675000Y-51505000D03*
X139801000Y-51094000D03*
X143256000Y-51258000D03*
X145642000Y-51176000D03*
X145724000Y-54796000D03*
X139719000Y-55536000D03*
X136675000Y-55454000D03*
X133385000Y-55536000D03*
X130753000Y-55618000D03*
X127956000Y-55701000D03*
X127873000Y-59978000D03*
X130835000Y-59731000D03*
X133714000Y-59978000D03*
X136922000Y-60060000D03*
X139637000Y-59978000D03*
X143256000Y-59896000D03*
X145807000Y-60143000D03*
X145699000Y-65753000D03*
X143361000Y-65801000D03*
X139805000Y-65850000D03*
X136882000Y-65801000D03*
X133796000Y-65901000D03*
X130753000Y-66066000D03*
X127873000Y-66312000D03*
X151293000Y-51204000D03*
X153958000Y-51106000D03*
X157216000Y-51204000D03*
X160178000Y-51402000D03*
X163040000Y-51204000D03*
X163238000Y-55449000D03*
X160375000Y-55647000D03*
X157315000Y-55745000D03*
X154057000Y-55745000D03*
X151194000Y-56239000D03*
X148233000Y-55943000D03*
X148233000Y-60286000D03*
X151589000Y-60187000D03*
X154255000Y-59990000D03*
X157413000Y-60385000D03*
X160671000Y-60582000D03*
X163731000Y-60582000D03*
X127951000Y-72986000D03*
X130840000Y-72906000D03*
X133840000Y-73227000D03*
X137130000Y-73146000D03*
X139658000Y-73347000D03*
X143190000Y-73548000D03*
X145758000Y-73548000D03*
X148326000Y-73708000D03*
X151536000Y-73788000D03*
X154345000Y-73508000D03*
X157395000Y-73588000D03*
X157714000Y-68913000D03*
X157556000Y-64599000D03*
X127734000Y-78941000D03*
X130794000Y-78842000D03*
X133854000Y-78941000D03*
X136915000Y-78744000D03*
X139481000Y-78744000D03*
X143232000Y-78744000D03*
X145996000Y-78546000D03*
X148366000Y-78448000D03*
X127635000Y-86444000D03*
X131584000Y-86147000D03*
X137408000Y-87529000D03*
X140074000Y-87727000D03*
X143331000Y-87727000D03*
X137211000Y-90392000D03*
X140271000Y-90688000D03*
X137112000Y-94538000D03*
X135138000Y-92761000D03*
X150241000Y-88220000D03*
X154190000Y-88319000D03*
X157349000Y-88220000D03*
X161692000Y-88418000D03*
X161126000Y-73240000D03*
X161043000Y-68997000D03*
X160876000Y-64503000D03*
X163706000Y-64670000D03*
X163872000Y-68997000D03*
X163568000Y-73808000D03*
X145898000Y-92465000D03*
X150241000Y-92564000D03*
X154387000Y-92465000D03*
X157546000Y-92366000D03*
X161988000Y-92465000D03*
X154585000Y-96512000D03*
X157447000Y-96315000D03*
X154387000Y-99968000D03*
X157645000Y-100066000D03*
X157645000Y-103028000D03*
X62491000Y-75782000D03*
X62294000Y-79040000D03*
X66045000Y-78842000D03*
X62294000Y-82989000D03*
X66242000Y-83087000D03*
X62294000Y-86937000D03*
X66539000Y-86937000D03*
X61998000Y-90886000D03*
X66341000Y-90886000D03*
X62392000Y-94341000D03*
X66637000Y-94242000D03*
X62689000Y-98388000D03*
X66637000Y-97796000D03*
X66637000Y-101744000D03*
X86561000Y-85210000D03*
X81741000Y-85160000D03*
X78088000Y-85160000D03*
X86578000Y-89602000D03*
X86578000Y-92860000D03*
X83814000Y-92959000D03*
X84110000Y-89504000D03*
X83975000Y-85169000D03*
X77200000Y-121331000D03*
X80161000Y-121035000D03*
X83912000Y-121035000D03*
X77002000Y-123996000D03*
X80062000Y-124095000D03*
X84209000Y-123700000D03*
X80359000Y-126859000D03*
X84209000Y-126958000D03*
X151074000Y-77779700D03*
X154403000Y-103067000D03*
X145855000Y-99984000D03*
X145650000Y-102940000D03*
X145609000Y-105814000D03*
X137151000Y-105855000D03*
X135180000Y-105937000D03*
X137110000Y-102940000D03*
X135016000Y-102981000D03*
X135098000Y-99861000D03*
X135139000Y-97356000D03*
X135386000Y-108401000D03*
X135427000Y-112630000D03*
X137274000Y-112794000D03*
X135345000Y-115257000D03*
X137397000Y-115298000D03*
X135262000Y-117556000D03*
X137397000Y-117556000D03*
X135460000Y-120906000D03*
X137480000Y-120857000D03*
X135361000Y-123616000D03*
X137628000Y-124010000D03*
X135312000Y-126129000D03*
X128759000Y-124256000D03*
X131371000Y-124355000D03*
X148516000Y-128145000D03*
X151768000Y-128243000D03*
X148516000Y-132283000D03*
X151817000Y-132332000D03*
X148516000Y-134451000D03*
X151965000Y-134500000D03*
X144476000Y-141102000D03*
X135361000Y-140412000D03*
X137726000Y-141595000D03*
X140042000Y-141546000D03*
X128700000Y-143762000D03*
X131479000Y-143762000D03*
X135085000Y-143821000D03*
X138041000Y-143881000D03*
X140170000Y-144117000D03*
X128641000Y-147014000D03*
X131360000Y-146955000D03*
X134908000Y-147014000D03*
X137746000Y-147132000D03*
X139992000Y-147132000D03*
X144663000Y-144294000D03*
X144367000Y-147014000D03*
X144426000Y-149970000D03*
X139992000Y-150266000D03*
X137686000Y-150266000D03*
X134908000Y-150443000D03*
X131419000Y-150384000D03*
X129232000Y-150325000D03*
X128877000Y-153695000D03*
X131360000Y-153695000D03*
X134849000Y-153577000D03*
X137805000Y-153577000D03*
X140111000Y-153518000D03*
X144308000Y-153399000D03*
X128700000Y-156178000D03*
X131656000Y-155823000D03*
X134908000Y-155942000D03*
X137568000Y-155942000D03*
X140347000Y-155882000D03*
X128759000Y-158661000D03*
X131774000Y-158366000D03*
X134849000Y-158366000D03*
X137627000Y-158247000D03*
X140406000Y-158188000D03*
X128783000Y-161121000D03*
X131975000Y-161334000D03*
X134671000Y-161405000D03*
X137651000Y-161830000D03*
X140276000Y-161830000D03*
X140347000Y-164526000D03*
X137509000Y-164668000D03*
X134671000Y-164739000D03*
X131975000Y-164739000D03*
X128783000Y-165165000D03*
X125377000Y-165449000D03*
X125590000Y-161405000D03*
X116296000Y-165520000D03*
X112607000Y-165732000D03*
X116509000Y-162398000D03*
X112252000Y-161405000D03*
X112536000Y-158638000D03*
X112536000Y-155800000D03*
X112465000Y-153742000D03*
X112465000Y-150692000D03*
X116225000Y-150763000D03*
X116438000Y-147428000D03*
X112749000Y-147712000D03*
X112749000Y-144661000D03*
X116509000Y-144732000D03*
X112820000Y-142178000D03*
X112678000Y-139045000D03*
X126442000Y-132447000D03*
X126583000Y-135498000D03*
X124242000Y-135427000D03*
X124242000Y-132944000D03*
D32*
X105127300Y-65077900D03*
D31*
X73522000Y-81246000D03*
X57410000Y-42110800D03*
X70995200Y-43193700D03*
X118041200Y-131511000D03*
D32*
X69138400Y-106916100D03*
D31*
X108018100Y-72637500D03*
X125644500Y-91524200D03*
X74856400Y-61063300D03*
X112685400Y-90622900D03*
X134582000Y-87628000D03*
X153503000Y-126202500D03*
X105710000Y-73241800D03*
X156318000Y-130751700D03*
X144556900Y-137643000D03*
X73178000Y-58593200D03*
X63078800Y-51061600D03*
X147270400Y-108335800D03*
X156297200Y-77434200D03*
X144993100Y-81706200D03*
X150079400Y-97491800D03*
X112465000Y-73549400D03*
X91443407Y-73788407D03*
X146884000Y-114119000D03*
X148160400Y-51710600D03*
X137268000Y-108585000D03*
X156327300Y-129883800D03*
X155218700Y-135086700D03*
X146920800Y-98825500D03*
X158865000Y-130027700D03*
X91745000Y-79048500D03*
X73351500Y-123898000D03*
X75917500Y-126464000D03*
X103522000Y-80864500D03*
X98223900Y-46755500D03*
X110790000Y-88165000D03*
X89618300Y-91676500D03*
X128332000Y-89709000D03*
X119936000Y-87531700D03*
X117759700Y-81773600D03*
X93640400Y-81773600D03*
D33*
X105127300Y-65077900D02*
X102699500Y-65077900D01*
X84527000Y-80333000D02*
X83696000Y-80333000D01*
X83696000Y-80333000D02*
X82783000Y-81246000D01*
X87444400Y-80333000D02*
X84527000Y-80333000D01*
X102699500Y-65077900D02*
X87444400Y-80333000D01*
X82783000Y-81246000D02*
X73522000Y-81246000D01*
X70995200Y-43193700D02*
X69912300Y-42110800D01*
X69912300Y-42110800D02*
X57410000Y-42110800D01*
X131612000Y-118838000D02*
X131612000Y-121201900D01*
X131612000Y-121201900D02*
X128350300Y-121201900D01*
X128350300Y-121201900D02*
X118041200Y-131511000D01*
X66638000Y-117310000D02*
X64137700Y-117310000D01*
X64137700Y-117310000D02*
X64137700Y-111280900D01*
X64137700Y-111280900D02*
X68502500Y-106916100D01*
X68502500Y-106916100D02*
X69138400Y-106916100D01*
D34*
X108018100Y-72637500D02*
X115741600Y-64914000D01*
X136005300Y-44650300D02*
X147597200Y-44650300D01*
X147597200Y-44650300D02*
X149486400Y-42761100D01*
X149486400Y-42761100D02*
X149486400Y-40950600D01*
X149486400Y-40950600D02*
X158744000Y-31693000D01*
X115741600Y-64914000D02*
X136005300Y-44650300D01*
X78477900Y-113380000D02*
X79666800Y-113380000D01*
X79666800Y-113380000D02*
X79666800Y-113008400D01*
X79666800Y-113008400D02*
X80484100Y-112191100D01*
X80484100Y-112191100D02*
X81368000Y-112191100D01*
X81368000Y-112191100D02*
X84520100Y-109039000D01*
X84520100Y-109039000D02*
X84520100Y-104192500D01*
X84520100Y-104192500D02*
X97188400Y-91524200D01*
X97188400Y-91524200D02*
X123819099Y-91247901D01*
X123819099Y-91247901D02*
X125644500Y-91524200D01*
X141926000Y-31454000D02*
X138458900Y-34921100D01*
X138458900Y-34921100D02*
X122049700Y-34921100D01*
X122049700Y-34921100D02*
X119670200Y-32541600D01*
X119670200Y-32541600D02*
X113992400Y-32541600D01*
X113992400Y-32541600D02*
X111541800Y-30091000D01*
X111541800Y-30091000D02*
X109458200Y-30091000D01*
X109458200Y-30091000D02*
X96985300Y-42563900D01*
X96985300Y-42563900D02*
X96386000Y-42563900D01*
X96386000Y-42563900D02*
X89891800Y-49058100D01*
X89891800Y-49058100D02*
X85270200Y-49058100D01*
X85270200Y-49058100D02*
X74856400Y-59471900D01*
X74856400Y-59471900D02*
X74856400Y-61063300D01*
X79666800Y-110840000D02*
X79666800Y-110468400D01*
X79666800Y-110468400D02*
X80484100Y-109651100D01*
X80484100Y-109651100D02*
X81368000Y-109651100D01*
X81368000Y-109651100D02*
X83844700Y-107174400D01*
X83844700Y-107174400D02*
X83844700Y-104159400D01*
X83844700Y-104159400D02*
X97381200Y-90622900D01*
X97381200Y-90622900D02*
X112685400Y-90622900D01*
X78477900Y-110840000D02*
X79666800Y-110840000D01*
D33*
X69918000Y-34195000D02*
X69918000Y-29115000D01*
X69918000Y-29115000D02*
X64838000Y-29115000D01*
X92501000Y-29027000D02*
X97581000Y-29027000D01*
X97581000Y-34107000D02*
X92501000Y-34107000D01*
X82920000Y-29202000D02*
X77840000Y-29202000D01*
D34*
X129072000Y-107489100D02*
X129443600Y-107489100D01*
X129443600Y-107489100D02*
X130260900Y-106671800D01*
X130260900Y-106671800D02*
X130260900Y-105785800D01*
X130260900Y-105785800D02*
X131097700Y-104949000D01*
X131097700Y-104949000D02*
X131942500Y-104949000D01*
X131942500Y-104949000D02*
X140606800Y-96284700D01*
X140606800Y-96284700D02*
X140606800Y-91986200D01*
X140606800Y-91986200D02*
X147665000Y-84928000D01*
X129072000Y-108678000D02*
X129072000Y-107489100D01*
X142032000Y-110973000D02*
X150588800Y-119529800D01*
X150588800Y-119529800D02*
X150588800Y-123288300D01*
X150588800Y-123288300D02*
X153503000Y-126202500D01*
X132800900Y-108678000D02*
X135095900Y-110973000D01*
X135095900Y-110973000D02*
X142032000Y-110973000D01*
X131612000Y-108678000D02*
X132800900Y-108678000D01*
X119990000Y-140347000D02*
X122085700Y-140347000D01*
X129569000Y-136858000D02*
X125574700Y-136858000D01*
X125574700Y-136858000D02*
X122085700Y-140347000D01*
X147135700Y-41701000D02*
X137250800Y-41701000D01*
X137250800Y-41701000D02*
X128104800Y-50847000D01*
X148311000Y-41701000D02*
X147135700Y-41701000D01*
X128104800Y-50847000D02*
X105710000Y-73241800D01*
X142032000Y-123673000D02*
X149110700Y-130751700D01*
X149110700Y-130751700D02*
X156318000Y-130751700D01*
X142032000Y-123673000D02*
X132751700Y-132953300D01*
X132751700Y-132953300D02*
X131552200Y-132953300D01*
X131552200Y-132953300D02*
X130744300Y-132145400D01*
X130744300Y-132145400D02*
X130744300Y-131778000D01*
X129569000Y-131778000D02*
X130744300Y-131778000D01*
X129569000Y-134318000D02*
X130744300Y-134318000D01*
X130744300Y-134318000D02*
X130744300Y-134685400D01*
X130744300Y-134685400D02*
X131552200Y-135493300D01*
X131552200Y-135493300D02*
X133189800Y-135493300D01*
X133189800Y-135493300D02*
X137879500Y-140183000D01*
X137879500Y-140183000D02*
X150922000Y-140183000D01*
X150922000Y-140183000D02*
X162352000Y-151613000D01*
X144556900Y-137643000D02*
X136609300Y-137643000D01*
X136609300Y-137643000D02*
X133284300Y-134318000D01*
X162352000Y-143993000D02*
X156002000Y-137643000D01*
X156002000Y-137643000D02*
X144556900Y-137643000D01*
X132109000Y-134318000D02*
X133284300Y-134318000D01*
X104756000Y-50642000D02*
X103660600Y-51737400D01*
X103660600Y-51737400D02*
X99710500Y-51737400D01*
X99710500Y-51737400D02*
X99520900Y-51927000D01*
X99520900Y-51927000D02*
X95120000Y-51927000D01*
X95120000Y-51927000D02*
X94020000Y-53027000D01*
X73178000Y-58593200D02*
X65646400Y-51061600D01*
X65646400Y-51061600D02*
X63078800Y-51061600D01*
X132109000Y-131778000D02*
X133284300Y-131778000D01*
X156327300Y-129883800D02*
X151793700Y-129883800D01*
X151793700Y-129883800D02*
X144490700Y-122580800D01*
X144490700Y-122580800D02*
X141526600Y-122580800D01*
X141526600Y-122580800D02*
X133284300Y-130823100D01*
X133284300Y-130823100D02*
X133284300Y-131778000D01*
X151401000Y-154610000D02*
X152576300Y-154610000D01*
X152576300Y-154610000D02*
X152576300Y-154242700D01*
X152576300Y-154242700D02*
X153936000Y-152883000D01*
X153936000Y-152883000D02*
X162696000Y-152883000D01*
X162696000Y-152883000D02*
X163471600Y-152107400D01*
X163471600Y-152107400D02*
X163471600Y-143574800D01*
X163471600Y-143574800D02*
X162779100Y-142882300D01*
X162779100Y-142882300D02*
X162243100Y-142882300D01*
X162243100Y-142882300D02*
X155218700Y-135857900D01*
X155218700Y-135857900D02*
X155218700Y-135086700D01*
X142032000Y-95733000D02*
X143119300Y-95733000D01*
X143119300Y-95733000D02*
X146211800Y-98825500D01*
X146211800Y-98825500D02*
X146920800Y-98825500D01*
X153941000Y-154610000D02*
X155116300Y-154610000D01*
X155116300Y-154610000D02*
X155116300Y-154242700D01*
X155116300Y-154242700D02*
X155932300Y-153426700D01*
X155932300Y-153426700D02*
X161625700Y-153426700D01*
X161625700Y-153426700D02*
X162352000Y-154153000D01*
X156481000Y-154610000D02*
X157656300Y-154610000D01*
X157656300Y-154610000D02*
X159739300Y-156693000D01*
X159739300Y-156693000D02*
X162352000Y-156693000D01*
X154534000Y-107428000D02*
X154534000Y-108603300D01*
X154534000Y-108603300D02*
X159883900Y-113953200D01*
X159883900Y-113953200D02*
X159883900Y-129008800D01*
X159883900Y-129008800D02*
X158865000Y-130027700D01*
X91745000Y-79048500D02*
X93455300Y-79048500D01*
X93455300Y-79048500D02*
X106752600Y-65751200D01*
X106752600Y-65751200D02*
X106752600Y-49438600D01*
X106752600Y-49438600D02*
X104756000Y-47442000D01*
D33*
X71902200Y-119796000D02*
X71902200Y-122448700D01*
X71902200Y-122448700D02*
X73351500Y-123898000D01*
X84086200Y-134632700D02*
X119949100Y-134632700D01*
X119949100Y-134632700D02*
X127694100Y-126887700D01*
X127694100Y-126887700D02*
X132109000Y-126887700D01*
X132109000Y-129238000D02*
X132109000Y-126887700D01*
X71902200Y-119796000D02*
X73152300Y-119796000D01*
X70652000Y-119796000D02*
X71902200Y-119796000D01*
X66638000Y-112317200D02*
X66734100Y-112221100D01*
X66734100Y-112221100D02*
X71674300Y-112221100D01*
X71674300Y-112221100D02*
X73152300Y-113699100D01*
X73152300Y-113699100D02*
X73152300Y-119796000D01*
X66638000Y-114770000D02*
X66638000Y-112317200D01*
X73351500Y-123898000D02*
X75917500Y-126464000D01*
X75917500Y-126464000D02*
X84086200Y-134632700D01*
X101556000Y-47442000D02*
X99069200Y-44955200D01*
X99069200Y-44955200D02*
X96574000Y-44955200D01*
X96574000Y-44955200D02*
X94020000Y-47509200D01*
X94020000Y-47509200D02*
X94020000Y-47627000D01*
D34*
X156534700Y-41752000D02*
X143161700Y-55125000D01*
X117422200Y-80864500D02*
X103522000Y-80864500D01*
X157710000Y-41752000D02*
X156534700Y-41752000D01*
X143161700Y-55125000D02*
X117422200Y-80864500D01*
X91245500Y-80864500D02*
X88512000Y-83598000D01*
X103522000Y-80864500D02*
X91245500Y-80864500D01*
X88512000Y-83598000D02*
X72593000Y-83598000D01*
X72593000Y-83598000D02*
X71507100Y-82512100D01*
X75729500Y-75434000D02*
X78832000Y-75434000D01*
X71507100Y-82512100D02*
X71507100Y-79656400D01*
X71507100Y-79656400D02*
X75729500Y-75434000D01*
X110993000Y-31452000D02*
X110993000Y-37354900D01*
X110993000Y-37354900D02*
X103656900Y-44691000D01*
X103656900Y-44691000D02*
X103656900Y-47993600D01*
X103656900Y-47993600D02*
X105860600Y-50197300D01*
X105860600Y-50197300D02*
X105860600Y-51737400D01*
X105860600Y-51737400D02*
X104756000Y-52842000D01*
X85448000Y-50446000D02*
X88648000Y-50446000D01*
X88648000Y-52646000D02*
X91562400Y-49731600D01*
X91562400Y-49731600D02*
X96692900Y-49731600D01*
X96692900Y-49731600D02*
X98315400Y-48109100D01*
X98315400Y-48109100D02*
X98315400Y-46847000D01*
X98315400Y-46847000D02*
X98223900Y-46755500D01*
X97220000Y-53027000D02*
X97220000Y-53591500D01*
X97220000Y-53591500D02*
X94462300Y-56349200D01*
X94462300Y-56349200D02*
X88500400Y-56349200D01*
X88500400Y-56349200D02*
X85448000Y-53296800D01*
X85448000Y-53296800D02*
X85448000Y-52646000D01*
X97220000Y-50827000D02*
X94020000Y-50827000D01*
X110790000Y-88165000D02*
X99202200Y-88165000D01*
X99202200Y-88165000D02*
X83394400Y-103972800D01*
X83394400Y-103972800D02*
X83394400Y-105118600D01*
X83394400Y-105118600D02*
X81401900Y-107111100D01*
X81401900Y-107111100D02*
X81017900Y-107111100D01*
X81017900Y-108300000D02*
X81017900Y-107111100D01*
X128332000Y-89709000D02*
X126154700Y-87531700D01*
X126154700Y-87531700D02*
X119936000Y-87531700D01*
X98796600Y-87531700D02*
X94651800Y-91676500D01*
X94651800Y-91676500D02*
X89618300Y-91676500D01*
X119936000Y-87531700D02*
X98796600Y-87531700D01*
X93640400Y-81773600D02*
X117759700Y-81773600D01*
M02*
