M48
; DRILL file {KiCad 6.0.0-rc1-unknown-e7fa02a~66~ubuntu18.04.1} date Wed 29 Dec 2021 11:19:42 AM PST
; FORMAT={-:-/ absolute / inch / decimal}
; #@! TF.CreationDate,2021-12-29T11:19:42-08:00
; #@! TF.GenerationSoftware,Kicad,Pcbnew,6.0.0-rc1-unknown-e7fa02a~66~ubuntu18.04.1
; #@! TF.FileFunction,Plated,1,4,PTH
FMAT,2
INCH
T1C0.0157
T2C0.0276
T3C0.0300
T4C0.0315
T5C0.0323
T6C0.0394
T7C0.0400
T8C0.0433
T9C0.0591
T10C0.0630
T11C0.0669
T12C0.0748
T13C0.0787
T14C0.0984
T15C0.1260
T16C1.5748
%
G90
G05
T1
X2.2602Y-1.6579
X2.2841Y-1.2311
X2.2873Y-1.3768
X2.2873Y-1.5387
X2.3262Y-1.7687
X2.3294Y-1.8529
X2.3651Y-1.5452
X2.3683Y-1.2311
X2.3717Y-1.3826
X2.3823Y-2.2464
X2.3901Y-5.5197
X2.391Y-1.8529
X2.4409Y-3.5782
X2.4525Y-3.1118
X2.4525Y-3.2673
X2.4525Y-3.4227
X2.4537Y-1.3758
X2.4557Y-1.2311
X2.4564Y-3.7142
X2.4603Y-2.9835
X2.4628Y-1.5487
X2.4671Y-2.3997
X2.4681Y-3.8735
X2.4834Y-2.0103
X2.4914Y-1.7266
X2.4914Y-1.8108
X2.4946Y-1.9144
X2.5238Y-1.5614
X2.5561Y-1.9112
X2.5708Y-2.1579
X2.582Y-1.7266
X2.582Y-1.7881
X2.583Y-2.5089
X2.6002Y-3.104
X2.608Y-3.2711
X2.6119Y-3.5782
X2.6196Y-3.4227
X2.6235Y-3.7103
X2.6235Y-3.8502
X2.6235Y-4.0057
X2.6533Y-2.031
X2.6533Y-2.1444
X2.6728Y-1.7298
X2.6728Y-2.2674
X2.6728Y-2.3419
X2.7083Y-2.0278
X2.7602Y-2.2674
X2.7667Y-2.3354
X2.7699Y-1.5549
X2.7731Y-1.4578
X2.7951Y-1.7005
X2.8314Y-1.8626
X2.8768Y-1.3541
X2.8768Y-1.4578
X2.88Y-1.5484
X2.881Y-2.3068
X2.8865Y-1.2278
X2.8879Y-4.8779
X2.8946Y-3.1987
X2.9259Y-4.7711
X2.9471Y-2.4041
X2.948Y-1.8302
X2.9674Y-1.2278
X2.9707Y-1.3509
X2.9724Y-1.4554
X2.9804Y-1.5452
X2.9889Y-4.9789
X3.0031Y-2.1379
X3.0316Y-4.8817
X3.0387Y-1.8237
X3.0387Y-1.9274
X3.0394Y-4.7768
X3.0743Y-3.3528
X3.152Y-4.8856
X3.1559Y-4.7652
X3.1637Y-4.9944
X3.2181Y-3.3528
X3.2752Y-2.3144
X3.2998Y-3.6598
X3.3036Y-4.7652
X3.3061Y-3.3531
X3.3114Y-3.5238
X3.3153Y-4.8701
X3.3153Y-4.9983
X3.3658Y-1.7363
X3.3691Y-1.3574
X3.3691Y-1.4675
X3.3691Y-1.5938
X3.3723Y-1.2278
X3.4079Y-3.3547
X3.4086Y-3.5276
X3.4086Y-3.6559
X3.4759Y-1.3509
X3.4759Y-1.4642
X3.4792Y-1.2116
X3.4792Y-1.5873
X3.4819Y-1.6852
X3.5283Y-3.6093
X3.532Y-2.4152
X3.5889Y-2.2945
X3.6001Y-2.9051
X3.612Y-3.1121
X3.6406Y-1.6335
X3.6866Y-3.2194
X3.7124Y-2.6075
X3.7145Y-2.527
X3.8354Y-2.6107
X3.8363Y-2.5295
X3.862Y-3.431
X3.8671Y-1.8408
X3.8724Y-2.2837
X3.9841Y-1.3507
X3.9841Y-1.6761
X3.9844Y-1.2213
X3.9844Y-1.4513
X4.0757Y-3.1836
X4.0848Y-1.2213
X4.0859Y-2.2609
X4.0887Y-1.3462
X4.0887Y-1.4531
X4.0945Y-1.6748
X4.1618Y-2.8835
X4.2048Y-1.46
X4.2437Y-1.7488
X4.2527Y-2.8597
X4.3048Y-1.46
X4.3233Y-1.9991
X4.3302Y-2.2773
X4.3303Y-1.5923
X4.3471Y-2.601
X4.3618Y-3.4711
X4.4194Y-6.3545
X4.4278Y-2.8956
X4.4278Y-5.9328
X4.4278Y-6.0528
X4.4306Y-6.1339
X4.4306Y-6.2456
X4.4333Y-6.5249
X4.4361Y-5.4742
X4.4364Y-3.5678
X4.4389Y-5.6953
X4.4389Y-5.8154
X4.4417Y-5.5976
X4.4618Y-3.3415
X4.467Y-2.7241
X4.5641Y-1.5906
X4.571Y-1.2165
X4.571Y-1.7011
X4.5733Y-1.3462
X4.5733Y-1.4622
X4.5739Y-2.4261
X4.5739Y-2.8698
X4.5758Y-5.9356
X4.5786Y-6.5165
X4.5803Y-2.7176
X4.5836Y-2.1379
X4.5836Y-2.2998
X4.5842Y-5.8043
X4.587Y-5.6981
X4.587Y-6.3936
X4.6362Y-3.2194
X4.6473Y-5.1776
X4.6552Y-1.4622
X4.6575Y-1.2143
X4.6581Y-1.7007
X4.6613Y-1.5906
X4.6613Y-2.0278
X4.6746Y-6.0705
X4.684Y-2.8601
X4.7219Y-3.4461
X4.752Y-1.2148
X4.7553Y-1.5874
X4.7553Y-1.7011
X4.7714Y-2.0343
X4.7779Y-2.1573
X4.7811Y-2.7144
X4.7844Y-2.4456
X4.7844Y-2.5654
X4.7876Y-2.8536
X4.8556Y-1.2148
X4.8621Y-1.3088
X4.8621Y-1.4804
X4.8914Y-5.234
X4.8914Y-5.3318
X4.9361Y-6.5137
X4.9445Y-6.3545
X4.9466Y-3.6033
X4.9495Y-1.2116
X4.9528Y-1.312
X4.956Y-1.4837
X4.9578Y-1.5919
X4.9709Y-5.7807
X4.978Y-5.2144
X4.9836Y-5.3346
X5.025Y-3.4033
X5.0289Y-3.1079
X5.0344Y-2.3613
X5.0344Y-2.6107
X5.0374Y-2.8735
X5.0376Y-2.193
X5.0524Y-3.5319
X5.0556Y-1.5896
X5.0579Y-1.3121
X5.0579Y-1.4804
X5.0596Y-1.2084
X5.0646Y-5.788
X5.0669Y-5.6599
X5.0669Y-6.1487
X5.0693Y-4.892
X5.0693Y-6.2465
X5.0702Y-6.3433
X5.0702Y-6.5026
X5.0739Y-6.051
X5.0879Y-5.9183
X5.1478Y-2.1897
X5.1478Y-2.601
X5.1494Y-3.104
X5.151Y-2.3516
X5.1512Y-2.8703
X5.1536Y-2.0051
X5.1717Y-5.7856
X5.1717Y-6.051
X5.1721Y-4.8959
X5.174Y-5.9206
X5.1763Y-5.6599
X5.1805Y-3.3916
X5.1833Y-6.1348
X5.188Y-6.2349
X5.1959Y-6.3517
X5.1959Y-6.4858
X5.2514Y-2.1865
X5.2572Y-2.018
X5.2643Y-2.3613
X5.2676Y-2.5945
X5.2693Y-2.883
X5.2698Y-3.1079
X5.2985Y-3.4499
X5.302Y-6.3545
X5.302Y-6.4858
X5.309Y-6.0463
X5.309Y-6.2349
X5.3113Y-5.788
X5.3113Y-5.923
X5.3113Y-6.1394
X5.3156Y-4.0544
X5.3183Y-5.6622
X5.3188Y-3.9315
X5.3204Y-3.652
X5.3204Y-3.8329
X5.322Y-4.1707
X5.3253Y-4.6282
X5.3272Y-4.9657
X5.3285Y-4.5377
X5.3292Y-4.8668
X5.3292Y-5.528
X5.3302Y-4.2678
X5.3318Y-4.4343
X5.3331Y-4.7601
X5.3809Y-2.0278
X5.3809Y-2.1832
X5.3891Y-2.5906
X5.3904Y-3.1002
X5.3906Y-2.3646
X5.398Y-4.0528
X5.3981Y-3.722
X5.3988Y-2.8798
X5.3996Y-4.1675
X5.402Y-3.5587
X5.4043Y-4.275
X5.4045Y-4.4407
X5.4093Y-4.5393
X5.4093Y-4.6282
X5.4098Y-3.446
X5.4126Y-4.7581
X5.4137Y-6.483
X5.4161Y-6.1394
X5.4184Y-6.2302
X5.4184Y-4.8823
X5.4193Y-6.3713
X5.4207Y-5.916
X5.4223Y-5.5746
X5.4231Y-5.7926
X5.4254Y-6.0463
X5.4347Y-5.6646
X5.4744Y-1.8748
X5.4914Y-3.1002
X5.4975Y-2.3613
X5.4983Y-2.8877
X5.5007Y-2.1865
X5.504Y-2.0116
X5.5041Y-2.5925
X5.5115Y-5.7926
X5.5115Y-5.916
X5.5135Y-5.5727
X5.5147Y-3.4538
X5.5162Y-6.044
X5.5185Y-5.6739
X5.5225Y-3.5704
X5.5227Y-6.3713
X5.5255Y-6.1371
X5.5255Y-6.4774
X5.5278Y-6.2279
X5.6312Y-1.8726
X5.6374Y-2.8956
X5.6391Y-3.1002
X5.64Y-2.018
X5.64Y-2.3581
X5.643Y-3.4538
X5.6441Y-2.5906
X5.6814Y-6.0393
X5.6837Y-5.788
X5.6861Y-5.9043
X5.688Y-5.5552
X5.6912Y-5.419
X5.6954Y-5.6809
X5.7084Y-3.2168
X5.7326Y-4.1659
X5.7339Y-2.0148
X5.7343Y-4.0528
X5.7362Y-2.5887
X5.7372Y-2.1573
X5.7385Y-2.8956
X5.7404Y-2.3678
X5.7423Y-3.9364
X5.744Y-3.6404
X5.7479Y-3.0924
X5.756Y-4.9553
X5.7828Y-4.4929
X5.7843Y-3.8908
X5.798Y-4.2652
X5.8229Y-4.7053
X5.8331Y-2.0359
X5.8359Y-2.2025
X5.8359Y-2.3735
X5.8396Y-2.9019
X5.8412Y-3.0885
X5.8471Y-5.0451
X5.8471Y-5.208
X5.8471Y-5.2933
X5.9086Y-3.8383
X5.915Y-3.4732
X5.915Y-3.6443
X5.9337Y-4.0028
X5.9478Y-3.0622
X5.9525Y-2.2141
X5.9564Y-2.0159
X5.966Y-2.905
X5.9681Y-2.3696
X5.9751Y-5.0489
X5.977Y-5.2099
X5.9829Y-5.2953
X6.02Y-4.8373
X6.0434Y-4.9686
X6.0613Y-2.012
X6.0652Y-2.1947
X6.0705Y-3.4771
X6.073Y-2.3618
X6.0749Y-4.8689
X6.0766Y-2.894
X6.0782Y-3.6404
X6.0782Y-3.9357
X6.0789Y-4.0578
X6.086Y-3.7997
X6.111Y-5.3184
X6.1186Y-5.4529
X6.1534Y-3.0486
X6.1543Y-5.1477
X6.1546Y-5.1135
X6.1896Y-2.0159
X6.1935Y-2.1947
X6.1948Y-3.4732
X6.1967Y-2.8972
X6.1974Y-2.3774
X6.1987Y-3.7919
X6.2026Y-3.6365
X6.203Y-2.5433
X6.2065Y-3.9396
X6.2065Y-4.0562
X6.2092Y-2.7131
X6.2545Y-5.1192
X6.2655Y-4.8525
X6.268Y-4.5984
X6.3023Y-5.1829
X6.3062Y-2.0237
X6.314Y-2.1908
X6.3256Y-2.3851
X6.3337Y-2.5395
X6.3403Y-2.7164
X6.3435Y-2.8835
X6.3658Y-3.481
X6.3775Y-3.6404
X6.4189Y-2.0159
X6.4267Y-2.183
X6.4397Y-2.9058
X6.4451Y-2.5461
X6.4461Y-2.3851
X6.4517Y-2.7164
T2
X3.9983Y-1.8678
X3.9983Y-1.9938
X3.9983Y-2.0804
X3.9983Y-2.167
X4.1243Y-1.8678
X4.1243Y-1.9938
X4.1243Y-2.0804
X4.1243Y-2.1694
X3.7016Y-1.8751
X3.7016Y-2.0011
X3.7016Y-2.0877
X3.7016Y-2.1743
X3.8276Y-1.8751
X3.8276Y-2.0011
X3.8276Y-2.0877
X3.8276Y-2.1767
X3.3641Y-1.8601
X3.3641Y-1.9861
X3.3641Y-2.0727
X3.3641Y-2.1593
X3.4901Y-1.8601
X3.4901Y-1.9861
X3.4901Y-2.0727
X3.4901Y-2.1617
T3
X5.3136Y-3.3436
X5.4136Y-3.3436
X5.5136Y-3.3436
X5.6136Y-3.3436
X5.7136Y-3.3436
X5.8136Y-3.3436
X5.9136Y-3.3436
X6.0136Y-3.3436
X6.1136Y-3.3436
X6.2136Y-3.3436
X6.3136Y-3.3436
T4
X2.722Y-4.2093
X4.1389Y-2.5621
T5
X5.5918Y-3.769
X5.5918Y-3.869
X5.5918Y-3.969
X5.5918Y-4.069
X5.5918Y-4.169
X5.5918Y-4.269
X5.5918Y-4.369
X5.5918Y-4.469
X5.5918Y-4.569
X5.5918Y-4.669
X5.5918Y-4.769
X5.5918Y-4.869
X5.5918Y-4.969
X5.5918Y-5.069
X5.5918Y-5.169
X5.5918Y-5.269
X5.5918Y-5.369
X5.5918Y-5.469
X5.5918Y-5.569
X5.5918Y-5.669
X5.5918Y-5.769
X5.5918Y-5.869
X5.5918Y-5.969
X5.5918Y-6.069
X5.5918Y-6.169
X5.5918Y-6.269
X5.5918Y-6.369
X5.5918Y-6.469
X5.5918Y-6.569
X6.3918Y-3.769
X6.3918Y-3.869
X6.3918Y-3.969
X6.3918Y-4.069
X6.3918Y-4.169
X6.3918Y-4.269
X6.3918Y-4.369
X6.3918Y-4.469
X6.3918Y-4.569
X6.3918Y-4.669
X6.3918Y-4.769
X6.3918Y-4.869
X6.3918Y-4.969
X6.3918Y-5.069
X6.3918Y-5.169
X6.3918Y-5.269
X6.3918Y-5.369
X6.3918Y-5.469
X6.3918Y-5.569
X6.3918Y-5.669
X6.3918Y-5.769
X6.3918Y-5.869
X6.3918Y-5.969
X6.3918Y-6.069
X6.3918Y-6.169
X6.3918Y-6.269
X6.3918Y-6.369
X6.3918Y-6.469
X6.3918Y-6.569
T6
X5.7607Y-6.087
X5.8607Y-6.087
X5.9607Y-6.087
X6.0607Y-6.087
X6.1607Y-6.087
X5.984Y-4.2294
X6.084Y-4.2294
X5.839Y-1.6418
X5.939Y-1.6418
X5.1011Y-5.0881
X5.1011Y-5.1881
X5.1011Y-5.2881
X5.1011Y-5.3881
X5.1011Y-5.4881
X5.2011Y-5.0881
X5.2011Y-5.1881
X5.2011Y-5.2881
X5.2011Y-5.3881
X5.2011Y-5.4881
X5.9067Y-4.4163
X6.0067Y-4.4163
X6.1067Y-4.4163
X6.2091Y-1.6438
X6.3091Y-1.6438
X3.1036Y-2.5698
X3.1036Y-2.6698
X3.1036Y-2.7698
X3.1036Y-2.8698
X3.1036Y-2.9698
X3.1036Y-3.0698
X3.3404Y-2.5485
X3.3404Y-2.6485
X3.3404Y-2.7485
X3.3404Y-2.8485
X3.3404Y-2.9485
T7
X3.0897Y-3.4638
X3.0897Y-3.5638
X3.0897Y-3.6638
X3.0897Y-3.7638
X3.0897Y-3.8638
X3.0897Y-3.9638
X3.0897Y-4.0638
X3.0897Y-4.1638
X3.0897Y-4.2638
X3.0897Y-4.3638
X3.0897Y-4.4638
X3.0897Y-4.5638
X3.0897Y-4.6638
X3.1897Y-3.4638
X3.1897Y-3.5638
X3.1897Y-3.6638
X3.1897Y-3.7638
X3.1897Y-3.8638
X3.1897Y-3.9638
X3.1897Y-4.0638
X3.1897Y-4.1638
X3.1897Y-4.2638
X3.1897Y-4.3638
X3.1897Y-4.4638
X3.1897Y-4.5638
X3.1897Y-4.6638
X5.0816Y-3.4787
X5.0816Y-3.5787
X5.0816Y-3.6787
X5.0816Y-3.7787
X5.0816Y-3.8787
X5.0816Y-3.9787
X5.0816Y-4.0787
X5.0816Y-4.1787
X5.0816Y-4.2787
X5.0816Y-4.3787
X5.0816Y-4.4787
X5.0816Y-4.5787
X5.0816Y-4.6787
X5.1816Y-3.4787
X5.1816Y-3.5787
X5.1816Y-3.6787
X5.1816Y-3.7787
X5.1816Y-3.8787
X5.1816Y-3.9787
X5.1816Y-4.0787
X5.1816Y-4.1787
X5.1816Y-4.2787
X5.1816Y-4.3787
X5.1816Y-4.4787
X5.1816Y-4.5787
X5.1816Y-4.6787
T8
X2.7816Y-4.5164
X2.7816Y-4.6164
X2.7816Y-4.7164
X2.6235Y-4.5185
X2.6235Y-4.6185
X2.6235Y-4.7185
T9
X4.3698Y-1.2383
X2.6527Y-1.2463
X3.1646Y-1.2497
X3.7418Y-1.2428
T10
X4.724Y-5.5255
X4.724Y-5.8255
X4.7189Y-6.1975
X4.7189Y-6.4975
T11
X4.2698Y-1.1383
X4.2698Y-1.3383
X4.4698Y-1.1383
X4.4698Y-1.3383
X2.5527Y-1.1463
X2.5527Y-1.3463
X2.7527Y-1.1463
X2.7527Y-1.3463
X3.0646Y-1.1497
X3.0646Y-1.3497
X3.2646Y-1.1497
X3.2646Y-1.3497
X3.6418Y-1.1428
X3.6418Y-1.3428
X3.8418Y-1.1428
X3.8418Y-1.3428
T12
X6.047Y-1.3107
X6.2498Y-1.2478
X6.4525Y-1.3107
X5.3849Y-1.3013
X5.5876Y-1.2383
X5.7904Y-1.3013
T13
X4.7302Y-1.4174
X5.0035Y-1.1442
X5.1653Y-1.5792
T14
X2.4911Y-4.1207
X2.4911Y-5.1207
T15
X4.7593Y-1.8779
X4.7624Y-3.2846
X6.4317Y-1.8794
X6.4317Y-3.2846
T16
X4.1559Y-4.4333
T6
G00X2.4208Y-5.9358
M15
G01X2.4208Y-5.8571
M16
G05
G00X2.5783Y-5.7114
M15
G01X2.4996Y-5.7114
M16
G05
G00X2.657Y-5.9358
M15
G01X2.657Y-5.8571
M16
G05
T0
M30
