M48
; DRILL file {KiCad 6.0.0-rc1-unknown-e7fa02a~66~ubuntu18.04.1} date Sat 26 Jun 2021 12:49:08 PM PDT
; FORMAT={-:-/ absolute / inch / decimal}
; #@! TF.CreationDate,2021-06-26T12:49:08-07:00
; #@! TF.GenerationSoftware,Kicad,Pcbnew,6.0.0-rc1-unknown-e7fa02a~66~ubuntu18.04.1
; #@! TF.FileFunction,Plated,1,2,PTH
FMAT,2
INCH
T1C0.0157
T2C0.0300
T3C0.0315
T4C0.0323
T5C0.0394
T6C0.0400
T7C0.0433
T8C0.0630
T9C0.0669
T10C0.1102
T11C0.1142
T12C0.1260
T13C1.5748
%
G90
G05
T1
X2.3342Y-2.2747
X2.4205Y-1.5951
X2.4572Y-2.4186
X2.4656Y-1.3244
X2.518Y-3.4533
X2.5494Y-4.6206
X2.5863Y-2.1695
X2.5922Y-2.517
X2.599Y-2.1018
X2.602Y-1.9733
X2.6348Y-2.006
X2.6694Y-2.2198
X2.6826Y-1.9797
X2.7215Y-1.3395
X2.7305Y-2.1511
X2.7538Y-1.5896
X3.0398Y-3.1628
X3.0422Y-3.3832
X3.2927Y-4.4608
X3.298Y-3.3772
X3.3487Y-3.1664
X3.3711Y-1.344
X3.3981Y-2.6924
X3.3985Y-3.6517
X3.5896Y-3.4581
X3.6325Y-3.1765
X3.6483Y-1.716
X3.8552Y-1.9517
X3.8565Y-2.0937
X3.8604Y-2.2469
X3.9472Y-1.3404
X4.1891Y-1.7046
X4.1924Y-1.734
X4.2168Y-1.747
X4.2445Y-1.7503
X4.2475Y-1.3485
X4.2481Y-1.0835
X4.276Y-1.7495
X4.3081Y-1.5921
X4.3424Y-1.5897
X4.3758Y-1.6011
X4.3782Y-1.6582
X4.5192Y-3.3122
X4.5448Y-2.3132
X4.5559Y-3.348
X4.5669Y-2.3524
X4.5828Y-1.3716
X4.6049Y-6.0095
X4.7612Y-2.2081
X4.7612Y-2.2665
X4.7715Y-3.3122
X4.8581Y-3.1446
X4.9403Y-2.2063
X4.9646Y-3.1485
X4.9945Y-3.0276
X5.0424Y-5.8054
X5.0865Y-3.1367
X5.0948Y-2.9628
X5.1307Y-3.0162
X5.1307Y-3.3835
X5.1311Y-2.4956
X5.1717Y-2.1495
X5.2239Y-2.9628
X5.2253Y-3.3044
X5.2598Y-2.1046
X5.2622Y-1.535
X5.2659Y-2.9689
X5.2676Y-3.5424
X5.2678Y-3.1428
X5.2831Y-4.0628
X5.2896Y-3.6797
X5.296Y-5.1117
X5.3222Y-4.0597
X5.3256Y-3.6789
X5.3359Y-5.2269
X5.3573Y-3.5443
X5.3939Y-3.6383
X5.4394Y-4.2345
X5.4515Y-2.0961
X5.4681Y-4.315
X5.4777Y-2.9063
X5.5365Y-1.8185
X5.5429Y-2.1977
X5.6423Y-5.2391
X5.6463Y-5.1081
X5.6564Y-1.8117
X5.6649Y-5.1696
X5.6757Y-5.2885
X5.7092Y-2.2216
X5.7281Y-5.3564
X5.7594Y-2.2167
X5.7607Y-1.7899
X5.8075Y-4.9904
X5.82Y-4.6925
X5.8404Y-5.2998
X5.8431Y-5.1102
X5.8461Y-5.0718
X5.8554Y-4.6309
X5.8605Y-5.0226
X5.8653Y-5.7072
X5.882Y-5.3042
X5.8824Y-4.6046
X5.927Y-4.6053
X5.933Y-5.1111
X5.9353Y-5.2583
X5.9363Y-5.6752
X5.9426Y-4.7541
X5.9637Y-4.703
X5.968Y-4.7805
X6.0067Y-5.2354
X6.0079Y-5.202
X6.0358Y-5.0778
X6.0728Y-4.9696
X6.0821Y-5.2294
X6.1135Y-5.1506
X6.1252Y-5.0464
X6.1399Y-5.006
X6.1405Y-5.1163
X6.1557Y-5.4271
X6.1735Y-4.4541
X6.1741Y-5.5035
X6.1811Y-5.598
X6.1961Y-1.8322
X6.205Y-4.9486
X6.2066Y-4.8559
X6.2137Y-5.6624
X6.2522Y-5.5209
X6.2551Y-5.019
X6.2589Y-4.4606
X6.3029Y-4.9973
X6.3122Y-5.1964
X6.3125Y-4.5194
X6.3159Y-4.6466
X6.3188Y-4.8072
X6.3378Y-4.6914
T2
X4.7664Y-2.0012
X4.8664Y-2.0012
X4.9664Y-2.0012
X5.0664Y-2.0012
X5.1664Y-2.0012
X5.2664Y-2.0012
X5.3664Y-2.0012
X5.4664Y-2.0012
X5.5664Y-2.0012
X5.6664Y-2.0012
X5.7664Y-2.0012
T3
X4.1081Y-2.1986
X4.1081Y-2.2986
X4.1081Y-2.3986
X4.1081Y-2.4986
X4.1081Y-2.5986
X4.1081Y-2.6986
X4.1081Y-2.7986
X4.1081Y-2.8986
X4.4081Y-2.1986
X4.4081Y-2.2986
X4.4081Y-2.3986
X4.4081Y-2.4986
X4.4081Y-2.5986
X4.4081Y-2.6986
X4.4081Y-2.7986
X4.4081Y-2.8986
T4
X5.5918Y-3.769
X5.5918Y-3.869
X5.5918Y-3.969
X5.5918Y-4.069
X5.5918Y-4.169
X5.5918Y-4.269
X5.5918Y-4.369
X5.5918Y-4.469
X5.5918Y-4.569
X5.5918Y-4.669
X5.5918Y-4.769
X5.5918Y-4.869
X5.5918Y-4.969
X5.5918Y-5.069
X5.5918Y-5.169
X5.5918Y-5.269
X5.5918Y-5.369
X5.5918Y-5.469
X5.5918Y-5.569
X5.5918Y-5.669
X5.5918Y-5.769
X5.5918Y-5.869
X5.5918Y-5.969
X5.5918Y-6.069
X5.5918Y-6.169
X5.5918Y-6.269
X5.5918Y-6.369
X5.5918Y-6.469
X5.5918Y-6.569
X6.3918Y-3.769
X6.3918Y-3.869
X6.3918Y-3.969
X6.3918Y-4.069
X6.3918Y-4.169
X6.3918Y-4.269
X6.3918Y-4.369
X6.3918Y-4.469
X6.3918Y-4.569
X6.3918Y-4.669
X6.3918Y-4.769
X6.3918Y-4.869
X6.3918Y-4.969
X6.3918Y-5.069
X6.3918Y-5.169
X6.3918Y-5.269
X6.3918Y-5.369
X6.3918Y-5.469
X6.3918Y-5.569
X6.3918Y-5.669
X6.3918Y-5.769
X6.3918Y-5.869
X6.3918Y-5.969
X6.3918Y-6.069
X6.3918Y-6.169
X6.3918Y-6.269
X6.3918Y-6.369
X6.3918Y-6.469
X6.3918Y-6.569
T5
X5.8598Y-1.6701
X5.9598Y-1.6701
X5.9067Y-4.4163
X6.0067Y-4.4163
X6.1067Y-4.4163
X5.984Y-4.2294
X6.084Y-4.2294
X5.1011Y-5.0881
X5.1011Y-5.1881
X5.1011Y-5.2881
X5.1011Y-5.3881
X5.1011Y-5.4881
X5.2011Y-5.0881
X5.2011Y-5.1881
X5.2011Y-5.2881
X5.2011Y-5.3881
X5.2011Y-5.4881
X6.2195Y-1.6779
X6.3195Y-1.6779
X5.7607Y-6.087
X5.8607Y-6.087
X5.9607Y-6.087
X6.0607Y-6.087
X6.1607Y-6.087
T6
X5.0816Y-3.4787
X5.0816Y-3.5787
X5.0816Y-3.6787
X5.0816Y-3.7787
X5.0816Y-3.8787
X5.0816Y-3.9787
X5.0816Y-4.0787
X5.0816Y-4.1787
X5.0816Y-4.2787
X5.0816Y-4.3787
X5.0816Y-4.4787
X5.0816Y-4.5787
X5.0816Y-4.6787
X5.1816Y-3.4787
X5.1816Y-3.5787
X5.1816Y-3.6787
X5.1816Y-3.7787
X5.1816Y-3.8787
X5.1816Y-3.9787
X5.1816Y-4.0787
X5.1816Y-4.1787
X5.1816Y-4.2787
X5.1816Y-4.3787
X5.1816Y-4.4787
X5.1816Y-4.5787
X5.1816Y-4.6787
X3.0897Y-3.4638
X3.0897Y-3.5638
X3.0897Y-3.6638
X3.0897Y-3.7638
X3.0897Y-3.8638
X3.0897Y-3.9638
X3.0897Y-4.0638
X3.0897Y-4.1638
X3.0897Y-4.2638
X3.0897Y-4.3638
X3.0897Y-4.4638
X3.0897Y-4.5638
X3.0897Y-4.6638
X3.1897Y-3.4638
X3.1897Y-3.5638
X3.1897Y-3.6638
X3.1897Y-3.7638
X3.1897Y-3.8638
X3.1897Y-3.9638
X3.1897Y-4.0638
X3.1897Y-4.1638
X3.1897Y-4.2638
X3.1897Y-4.3638
X3.1897Y-4.4638
X3.1897Y-4.5638
X3.1897Y-4.6638
T7
X2.4983Y-4.367
X2.5983Y-4.367
X2.6983Y-4.367
T8
X4.724Y-5.5255
X4.724Y-5.8255
X4.7189Y-6.1975
X4.7189Y-6.4975
T9
X5.4231Y-1.4817
X6.1619Y-1.4763
T10
X5.1476Y-1.1954
X5.8863Y-1.1901
T11
X5.6987Y-1.1954
X6.4375Y-1.1901
T12
X4.6483Y-2.0603
X4.6483Y-3.4654
X6.3176Y-2.0603
X6.3207Y-3.467
T13
X4.1559Y-4.4333
T5
G00X2.4485Y-4.9167
M15
G01X2.5272Y-4.9167
M16
G05
G00X2.4485Y-5.153
M15
G01X2.5272Y-5.153
M16
G05
G00X2.6729Y-5.0742
M15
G01X2.6729Y-4.9955
M16
G05
G00X4.8509Y-1.1217
M15
G01X4.8903Y-1.1217
M16
G05
G00X4.9296Y-1.2162
M15
G01X4.969Y-1.2162
M16
G05
G00X4.9296Y-1.4328
M15
G01X4.969Y-1.4328
M16
G05
T0
M30
