G04 #@! TF.GenerationSoftware,KiCad,Pcbnew,6.0.0-rc1-unknown-e7fa02a~66~ubuntu18.04.1*
G04 #@! TF.CreationDate,2021-06-26T12:49:04-07:00
G04 #@! TF.ProjectId,rp_adapter,72705f61-6461-4707-9465-722e6b696361,rev?*
G04 #@! TF.SameCoordinates,Original*
G04 #@! TF.FileFunction,Paste,Top*
G04 #@! TF.FilePolarity,Positive*
%FSLAX46Y46*%
G04 Gerber Fmt 4.6, Leading zero omitted, Abs format (unit mm)*
G04 Created by KiCad (PCBNEW 6.0.0-rc1-unknown-e7fa02a~66~ubuntu18.04.1) date Sat 26 Jun 2021 12:49:04 PM PDT*
%MOMM*%
%LPD*%
G04 APERTURE LIST*
%ADD10C,0.100000*%
%ADD11C,1.150000*%
%ADD12R,1.500000X0.550000*%
%ADD13R,0.550000X1.500000*%
%ADD14R,1.778000X2.794000*%
%ADD15R,1.650000X2.540000*%
%ADD16R,0.760000X1.650000*%
%ADD17R,1.143000X0.508000*%
%ADD18R,1.500000X5.080000*%
%ADD19R,1.400000X1.200000*%
%ADD20R,1.400000X1.000000*%
%ADD21C,1.425000*%
G04 APERTURE END LIST*
D10*
G36*
X159556505Y-117315204D02*
G01*
X159580773Y-117318804D01*
X159604572Y-117324765D01*
X159627671Y-117333030D01*
X159649850Y-117343520D01*
X159670893Y-117356132D01*
X159690599Y-117370747D01*
X159708777Y-117387223D01*
X159725253Y-117405401D01*
X159739868Y-117425107D01*
X159752480Y-117446150D01*
X159762970Y-117468329D01*
X159771235Y-117491428D01*
X159777196Y-117515227D01*
X159780796Y-117539495D01*
X159782000Y-117563999D01*
X159782000Y-118464001D01*
X159780796Y-118488505D01*
X159777196Y-118512773D01*
X159771235Y-118536572D01*
X159762970Y-118559671D01*
X159752480Y-118581850D01*
X159739868Y-118602893D01*
X159725253Y-118622599D01*
X159708777Y-118640777D01*
X159690599Y-118657253D01*
X159670893Y-118671868D01*
X159649850Y-118684480D01*
X159627671Y-118694970D01*
X159604572Y-118703235D01*
X159580773Y-118709196D01*
X159556505Y-118712796D01*
X159532001Y-118714000D01*
X158881999Y-118714000D01*
X158857495Y-118712796D01*
X158833227Y-118709196D01*
X158809428Y-118703235D01*
X158786329Y-118694970D01*
X158764150Y-118684480D01*
X158743107Y-118671868D01*
X158723401Y-118657253D01*
X158705223Y-118640777D01*
X158688747Y-118622599D01*
X158674132Y-118602893D01*
X158661520Y-118581850D01*
X158651030Y-118559671D01*
X158642765Y-118536572D01*
X158636804Y-118512773D01*
X158633204Y-118488505D01*
X158632000Y-118464001D01*
X158632000Y-117563999D01*
X158633204Y-117539495D01*
X158636804Y-117515227D01*
X158642765Y-117491428D01*
X158651030Y-117468329D01*
X158661520Y-117446150D01*
X158674132Y-117425107D01*
X158688747Y-117405401D01*
X158705223Y-117387223D01*
X158723401Y-117370747D01*
X158743107Y-117356132D01*
X158764150Y-117343520D01*
X158786329Y-117333030D01*
X158809428Y-117324765D01*
X158833227Y-117318804D01*
X158857495Y-117315204D01*
X158881999Y-117314000D01*
X159532001Y-117314000D01*
X159556505Y-117315204D01*
X159556505Y-117315204D01*
G37*
D11*
X159207000Y-118014000D03*
D10*
G36*
X157506505Y-117315204D02*
G01*
X157530773Y-117318804D01*
X157554572Y-117324765D01*
X157577671Y-117333030D01*
X157599850Y-117343520D01*
X157620893Y-117356132D01*
X157640599Y-117370747D01*
X157658777Y-117387223D01*
X157675253Y-117405401D01*
X157689868Y-117425107D01*
X157702480Y-117446150D01*
X157712970Y-117468329D01*
X157721235Y-117491428D01*
X157727196Y-117515227D01*
X157730796Y-117539495D01*
X157732000Y-117563999D01*
X157732000Y-118464001D01*
X157730796Y-118488505D01*
X157727196Y-118512773D01*
X157721235Y-118536572D01*
X157712970Y-118559671D01*
X157702480Y-118581850D01*
X157689868Y-118602893D01*
X157675253Y-118622599D01*
X157658777Y-118640777D01*
X157640599Y-118657253D01*
X157620893Y-118671868D01*
X157599850Y-118684480D01*
X157577671Y-118694970D01*
X157554572Y-118703235D01*
X157530773Y-118709196D01*
X157506505Y-118712796D01*
X157482001Y-118714000D01*
X156831999Y-118714000D01*
X156807495Y-118712796D01*
X156783227Y-118709196D01*
X156759428Y-118703235D01*
X156736329Y-118694970D01*
X156714150Y-118684480D01*
X156693107Y-118671868D01*
X156673401Y-118657253D01*
X156655223Y-118640777D01*
X156638747Y-118622599D01*
X156624132Y-118602893D01*
X156611520Y-118581850D01*
X156601030Y-118559671D01*
X156592765Y-118536572D01*
X156586804Y-118512773D01*
X156583204Y-118488505D01*
X156582000Y-118464001D01*
X156582000Y-117563999D01*
X156583204Y-117539495D01*
X156586804Y-117515227D01*
X156592765Y-117491428D01*
X156601030Y-117468329D01*
X156611520Y-117446150D01*
X156624132Y-117425107D01*
X156638747Y-117405401D01*
X156655223Y-117387223D01*
X156673401Y-117370747D01*
X156693107Y-117356132D01*
X156714150Y-117343520D01*
X156736329Y-117333030D01*
X156759428Y-117324765D01*
X156783227Y-117318804D01*
X156807495Y-117315204D01*
X156831999Y-117314000D01*
X157482001Y-117314000D01*
X157506505Y-117315204D01*
X157506505Y-117315204D01*
G37*
D11*
X157157000Y-118014000D03*
D12*
X146203000Y-126641000D03*
X146203000Y-127441000D03*
X146203000Y-128241000D03*
X146203000Y-129041000D03*
X146203000Y-129841000D03*
X146203000Y-130641000D03*
X146203000Y-131441000D03*
X146203000Y-132241000D03*
X146203000Y-133041000D03*
X146203000Y-133841000D03*
X146203000Y-134641000D03*
D13*
X147903000Y-136341000D03*
X148703000Y-136341000D03*
X149503000Y-136341000D03*
X150303000Y-136341000D03*
X151103000Y-136341000D03*
X151903000Y-136341000D03*
X152703000Y-136341000D03*
X153503000Y-136341000D03*
X154303000Y-136341000D03*
X155103000Y-136341000D03*
X155903000Y-136341000D03*
D12*
X157603000Y-134641000D03*
X157603000Y-133841000D03*
X157603000Y-133041000D03*
X157603000Y-132241000D03*
X157603000Y-131441000D03*
X157603000Y-130641000D03*
X157603000Y-129841000D03*
X157603000Y-129041000D03*
X157603000Y-128241000D03*
X157603000Y-127441000D03*
X157603000Y-126641000D03*
D13*
X155903000Y-124941000D03*
X155103000Y-124941000D03*
X154303000Y-124941000D03*
X153503000Y-124941000D03*
X152703000Y-124941000D03*
X151903000Y-124941000D03*
X151103000Y-124941000D03*
X150303000Y-124941000D03*
X149503000Y-124941000D03*
X148703000Y-124941000D03*
X147903000Y-124941000D03*
D14*
X60634000Y-63521000D03*
X64190000Y-63521000D03*
D15*
X79829000Y-42621000D03*
X79829000Y-37541000D03*
X82369000Y-42621000D03*
X84909000Y-42621000D03*
X84909000Y-37541000D03*
X82369000Y-37541000D03*
D16*
X67905000Y-35793000D03*
X65365000Y-35793000D03*
X67905000Y-38968000D03*
X66635000Y-38968000D03*
X65365000Y-38968000D03*
D17*
X70555000Y-50805000D03*
X70555000Y-52075000D03*
X70555000Y-53345000D03*
X70555000Y-54615000D03*
X64205000Y-54615000D03*
X64205000Y-53345000D03*
X64205000Y-52075000D03*
X64205000Y-50805000D03*
D15*
X97747000Y-36699000D03*
X97747000Y-41779000D03*
X95207000Y-36699000D03*
X92667000Y-36699000D03*
X92667000Y-41779000D03*
X95207000Y-41779000D03*
D10*
G36*
X96894505Y-52481204D02*
G01*
X96918773Y-52484804D01*
X96942572Y-52490765D01*
X96965671Y-52499030D01*
X96987850Y-52509520D01*
X97008893Y-52522132D01*
X97028599Y-52536747D01*
X97046777Y-52553223D01*
X97063253Y-52571401D01*
X97077868Y-52591107D01*
X97090480Y-52612150D01*
X97100970Y-52634329D01*
X97109235Y-52657428D01*
X97115196Y-52681227D01*
X97118796Y-52705495D01*
X97120000Y-52729999D01*
X97120000Y-53630001D01*
X97118796Y-53654505D01*
X97115196Y-53678773D01*
X97109235Y-53702572D01*
X97100970Y-53725671D01*
X97090480Y-53747850D01*
X97077868Y-53768893D01*
X97063253Y-53788599D01*
X97046777Y-53806777D01*
X97028599Y-53823253D01*
X97008893Y-53837868D01*
X96987850Y-53850480D01*
X96965671Y-53860970D01*
X96942572Y-53869235D01*
X96918773Y-53875196D01*
X96894505Y-53878796D01*
X96870001Y-53880000D01*
X96219999Y-53880000D01*
X96195495Y-53878796D01*
X96171227Y-53875196D01*
X96147428Y-53869235D01*
X96124329Y-53860970D01*
X96102150Y-53850480D01*
X96081107Y-53837868D01*
X96061401Y-53823253D01*
X96043223Y-53806777D01*
X96026747Y-53788599D01*
X96012132Y-53768893D01*
X95999520Y-53747850D01*
X95989030Y-53725671D01*
X95980765Y-53702572D01*
X95974804Y-53678773D01*
X95971204Y-53654505D01*
X95970000Y-53630001D01*
X95970000Y-52729999D01*
X95971204Y-52705495D01*
X95974804Y-52681227D01*
X95980765Y-52657428D01*
X95989030Y-52634329D01*
X95999520Y-52612150D01*
X96012132Y-52591107D01*
X96026747Y-52571401D01*
X96043223Y-52553223D01*
X96061401Y-52536747D01*
X96081107Y-52522132D01*
X96102150Y-52509520D01*
X96124329Y-52499030D01*
X96147428Y-52490765D01*
X96171227Y-52484804D01*
X96195495Y-52481204D01*
X96219999Y-52480000D01*
X96870001Y-52480000D01*
X96894505Y-52481204D01*
X96894505Y-52481204D01*
G37*
D11*
X96545000Y-53180000D03*
D10*
G36*
X94844505Y-52481204D02*
G01*
X94868773Y-52484804D01*
X94892572Y-52490765D01*
X94915671Y-52499030D01*
X94937850Y-52509520D01*
X94958893Y-52522132D01*
X94978599Y-52536747D01*
X94996777Y-52553223D01*
X95013253Y-52571401D01*
X95027868Y-52591107D01*
X95040480Y-52612150D01*
X95050970Y-52634329D01*
X95059235Y-52657428D01*
X95065196Y-52681227D01*
X95068796Y-52705495D01*
X95070000Y-52729999D01*
X95070000Y-53630001D01*
X95068796Y-53654505D01*
X95065196Y-53678773D01*
X95059235Y-53702572D01*
X95050970Y-53725671D01*
X95040480Y-53747850D01*
X95027868Y-53768893D01*
X95013253Y-53788599D01*
X94996777Y-53806777D01*
X94978599Y-53823253D01*
X94958893Y-53837868D01*
X94937850Y-53850480D01*
X94915671Y-53860970D01*
X94892572Y-53869235D01*
X94868773Y-53875196D01*
X94844505Y-53878796D01*
X94820001Y-53880000D01*
X94169999Y-53880000D01*
X94145495Y-53878796D01*
X94121227Y-53875196D01*
X94097428Y-53869235D01*
X94074329Y-53860970D01*
X94052150Y-53850480D01*
X94031107Y-53837868D01*
X94011401Y-53823253D01*
X93993223Y-53806777D01*
X93976747Y-53788599D01*
X93962132Y-53768893D01*
X93949520Y-53747850D01*
X93939030Y-53725671D01*
X93930765Y-53702572D01*
X93924804Y-53678773D01*
X93921204Y-53654505D01*
X93920000Y-53630001D01*
X93920000Y-52729999D01*
X93921204Y-52705495D01*
X93924804Y-52681227D01*
X93930765Y-52657428D01*
X93939030Y-52634329D01*
X93949520Y-52612150D01*
X93962132Y-52591107D01*
X93976747Y-52571401D01*
X93993223Y-52553223D01*
X94011401Y-52536747D01*
X94031107Y-52522132D01*
X94052150Y-52509520D01*
X94074329Y-52499030D01*
X94097428Y-52490765D01*
X94121227Y-52484804D01*
X94145495Y-52481204D01*
X94169999Y-52480000D01*
X94820001Y-52480000D01*
X94844505Y-52481204D01*
X94844505Y-52481204D01*
G37*
D11*
X94495000Y-53180000D03*
D10*
G36*
X94987505Y-56473204D02*
G01*
X95011773Y-56476804D01*
X95035572Y-56482765D01*
X95058671Y-56491030D01*
X95080850Y-56501520D01*
X95101893Y-56514132D01*
X95121599Y-56528747D01*
X95139777Y-56545223D01*
X95156253Y-56563401D01*
X95170868Y-56583107D01*
X95183480Y-56604150D01*
X95193970Y-56626329D01*
X95202235Y-56649428D01*
X95208196Y-56673227D01*
X95211796Y-56697495D01*
X95213000Y-56721999D01*
X95213000Y-57622001D01*
X95211796Y-57646505D01*
X95208196Y-57670773D01*
X95202235Y-57694572D01*
X95193970Y-57717671D01*
X95183480Y-57739850D01*
X95170868Y-57760893D01*
X95156253Y-57780599D01*
X95139777Y-57798777D01*
X95121599Y-57815253D01*
X95101893Y-57829868D01*
X95080850Y-57842480D01*
X95058671Y-57852970D01*
X95035572Y-57861235D01*
X95011773Y-57867196D01*
X94987505Y-57870796D01*
X94963001Y-57872000D01*
X94312999Y-57872000D01*
X94288495Y-57870796D01*
X94264227Y-57867196D01*
X94240428Y-57861235D01*
X94217329Y-57852970D01*
X94195150Y-57842480D01*
X94174107Y-57829868D01*
X94154401Y-57815253D01*
X94136223Y-57798777D01*
X94119747Y-57780599D01*
X94105132Y-57760893D01*
X94092520Y-57739850D01*
X94082030Y-57717671D01*
X94073765Y-57694572D01*
X94067804Y-57670773D01*
X94064204Y-57646505D01*
X94063000Y-57622001D01*
X94063000Y-56721999D01*
X94064204Y-56697495D01*
X94067804Y-56673227D01*
X94073765Y-56649428D01*
X94082030Y-56626329D01*
X94092520Y-56604150D01*
X94105132Y-56583107D01*
X94119747Y-56563401D01*
X94136223Y-56545223D01*
X94154401Y-56528747D01*
X94174107Y-56514132D01*
X94195150Y-56501520D01*
X94217329Y-56491030D01*
X94240428Y-56482765D01*
X94264227Y-56476804D01*
X94288495Y-56473204D01*
X94312999Y-56472000D01*
X94963001Y-56472000D01*
X94987505Y-56473204D01*
X94987505Y-56473204D01*
G37*
D11*
X94638000Y-57172000D03*
D10*
G36*
X97037505Y-56473204D02*
G01*
X97061773Y-56476804D01*
X97085572Y-56482765D01*
X97108671Y-56491030D01*
X97130850Y-56501520D01*
X97151893Y-56514132D01*
X97171599Y-56528747D01*
X97189777Y-56545223D01*
X97206253Y-56563401D01*
X97220868Y-56583107D01*
X97233480Y-56604150D01*
X97243970Y-56626329D01*
X97252235Y-56649428D01*
X97258196Y-56673227D01*
X97261796Y-56697495D01*
X97263000Y-56721999D01*
X97263000Y-57622001D01*
X97261796Y-57646505D01*
X97258196Y-57670773D01*
X97252235Y-57694572D01*
X97243970Y-57717671D01*
X97233480Y-57739850D01*
X97220868Y-57760893D01*
X97206253Y-57780599D01*
X97189777Y-57798777D01*
X97171599Y-57815253D01*
X97151893Y-57829868D01*
X97130850Y-57842480D01*
X97108671Y-57852970D01*
X97085572Y-57861235D01*
X97061773Y-57867196D01*
X97037505Y-57870796D01*
X97013001Y-57872000D01*
X96362999Y-57872000D01*
X96338495Y-57870796D01*
X96314227Y-57867196D01*
X96290428Y-57861235D01*
X96267329Y-57852970D01*
X96245150Y-57842480D01*
X96224107Y-57829868D01*
X96204401Y-57815253D01*
X96186223Y-57798777D01*
X96169747Y-57780599D01*
X96155132Y-57760893D01*
X96142520Y-57739850D01*
X96132030Y-57717671D01*
X96123765Y-57694572D01*
X96117804Y-57670773D01*
X96114204Y-57646505D01*
X96113000Y-57622001D01*
X96113000Y-56721999D01*
X96114204Y-56697495D01*
X96117804Y-56673227D01*
X96123765Y-56649428D01*
X96132030Y-56626329D01*
X96142520Y-56604150D01*
X96155132Y-56583107D01*
X96169747Y-56563401D01*
X96186223Y-56545223D01*
X96204401Y-56528747D01*
X96224107Y-56514132D01*
X96245150Y-56501520D01*
X96267329Y-56491030D01*
X96290428Y-56482765D01*
X96314227Y-56476804D01*
X96338495Y-56473204D01*
X96362999Y-56472000D01*
X97013001Y-56472000D01*
X97037505Y-56473204D01*
X97037505Y-56473204D01*
G37*
D11*
X96688000Y-57172000D03*
D10*
G36*
X137667505Y-55162204D02*
G01*
X137691773Y-55165804D01*
X137715572Y-55171765D01*
X137738671Y-55180030D01*
X137760850Y-55190520D01*
X137781893Y-55203132D01*
X137801599Y-55217747D01*
X137819777Y-55234223D01*
X137836253Y-55252401D01*
X137850868Y-55272107D01*
X137863480Y-55293150D01*
X137873970Y-55315329D01*
X137882235Y-55338428D01*
X137888196Y-55362227D01*
X137891796Y-55386495D01*
X137893000Y-55410999D01*
X137893000Y-56311001D01*
X137891796Y-56335505D01*
X137888196Y-56359773D01*
X137882235Y-56383572D01*
X137873970Y-56406671D01*
X137863480Y-56428850D01*
X137850868Y-56449893D01*
X137836253Y-56469599D01*
X137819777Y-56487777D01*
X137801599Y-56504253D01*
X137781893Y-56518868D01*
X137760850Y-56531480D01*
X137738671Y-56541970D01*
X137715572Y-56550235D01*
X137691773Y-56556196D01*
X137667505Y-56559796D01*
X137643001Y-56561000D01*
X136992999Y-56561000D01*
X136968495Y-56559796D01*
X136944227Y-56556196D01*
X136920428Y-56550235D01*
X136897329Y-56541970D01*
X136875150Y-56531480D01*
X136854107Y-56518868D01*
X136834401Y-56504253D01*
X136816223Y-56487777D01*
X136799747Y-56469599D01*
X136785132Y-56449893D01*
X136772520Y-56428850D01*
X136762030Y-56406671D01*
X136753765Y-56383572D01*
X136747804Y-56359773D01*
X136744204Y-56335505D01*
X136743000Y-56311001D01*
X136743000Y-55410999D01*
X136744204Y-55386495D01*
X136747804Y-55362227D01*
X136753765Y-55338428D01*
X136762030Y-55315329D01*
X136772520Y-55293150D01*
X136785132Y-55272107D01*
X136799747Y-55252401D01*
X136816223Y-55234223D01*
X136834401Y-55217747D01*
X136854107Y-55203132D01*
X136875150Y-55190520D01*
X136897329Y-55180030D01*
X136920428Y-55171765D01*
X136944227Y-55165804D01*
X136968495Y-55162204D01*
X136992999Y-55161000D01*
X137643001Y-55161000D01*
X137667505Y-55162204D01*
X137667505Y-55162204D01*
G37*
D11*
X137318000Y-55861000D03*
D10*
G36*
X139717505Y-55162204D02*
G01*
X139741773Y-55165804D01*
X139765572Y-55171765D01*
X139788671Y-55180030D01*
X139810850Y-55190520D01*
X139831893Y-55203132D01*
X139851599Y-55217747D01*
X139869777Y-55234223D01*
X139886253Y-55252401D01*
X139900868Y-55272107D01*
X139913480Y-55293150D01*
X139923970Y-55315329D01*
X139932235Y-55338428D01*
X139938196Y-55362227D01*
X139941796Y-55386495D01*
X139943000Y-55410999D01*
X139943000Y-56311001D01*
X139941796Y-56335505D01*
X139938196Y-56359773D01*
X139932235Y-56383572D01*
X139923970Y-56406671D01*
X139913480Y-56428850D01*
X139900868Y-56449893D01*
X139886253Y-56469599D01*
X139869777Y-56487777D01*
X139851599Y-56504253D01*
X139831893Y-56518868D01*
X139810850Y-56531480D01*
X139788671Y-56541970D01*
X139765572Y-56550235D01*
X139741773Y-56556196D01*
X139717505Y-56559796D01*
X139693001Y-56561000D01*
X139042999Y-56561000D01*
X139018495Y-56559796D01*
X138994227Y-56556196D01*
X138970428Y-56550235D01*
X138947329Y-56541970D01*
X138925150Y-56531480D01*
X138904107Y-56518868D01*
X138884401Y-56504253D01*
X138866223Y-56487777D01*
X138849747Y-56469599D01*
X138835132Y-56449893D01*
X138822520Y-56428850D01*
X138812030Y-56406671D01*
X138803765Y-56383572D01*
X138797804Y-56359773D01*
X138794204Y-56335505D01*
X138793000Y-56311001D01*
X138793000Y-55410999D01*
X138794204Y-55386495D01*
X138797804Y-55362227D01*
X138803765Y-55338428D01*
X138812030Y-55315329D01*
X138822520Y-55293150D01*
X138835132Y-55272107D01*
X138849747Y-55252401D01*
X138866223Y-55234223D01*
X138884401Y-55217747D01*
X138904107Y-55203132D01*
X138925150Y-55190520D01*
X138947329Y-55180030D01*
X138970428Y-55171765D01*
X138994227Y-55165804D01*
X139018495Y-55162204D01*
X139042999Y-55161000D01*
X139693001Y-55161000D01*
X139717505Y-55162204D01*
X139717505Y-55162204D01*
G37*
D11*
X139368000Y-55861000D03*
D10*
G36*
X127365505Y-55245204D02*
G01*
X127389773Y-55248804D01*
X127413572Y-55254765D01*
X127436671Y-55263030D01*
X127458850Y-55273520D01*
X127479893Y-55286132D01*
X127499599Y-55300747D01*
X127517777Y-55317223D01*
X127534253Y-55335401D01*
X127548868Y-55355107D01*
X127561480Y-55376150D01*
X127571970Y-55398329D01*
X127580235Y-55421428D01*
X127586196Y-55445227D01*
X127589796Y-55469495D01*
X127591000Y-55493999D01*
X127591000Y-56394001D01*
X127589796Y-56418505D01*
X127586196Y-56442773D01*
X127580235Y-56466572D01*
X127571970Y-56489671D01*
X127561480Y-56511850D01*
X127548868Y-56532893D01*
X127534253Y-56552599D01*
X127517777Y-56570777D01*
X127499599Y-56587253D01*
X127479893Y-56601868D01*
X127458850Y-56614480D01*
X127436671Y-56624970D01*
X127413572Y-56633235D01*
X127389773Y-56639196D01*
X127365505Y-56642796D01*
X127341001Y-56644000D01*
X126690999Y-56644000D01*
X126666495Y-56642796D01*
X126642227Y-56639196D01*
X126618428Y-56633235D01*
X126595329Y-56624970D01*
X126573150Y-56614480D01*
X126552107Y-56601868D01*
X126532401Y-56587253D01*
X126514223Y-56570777D01*
X126497747Y-56552599D01*
X126483132Y-56532893D01*
X126470520Y-56511850D01*
X126460030Y-56489671D01*
X126451765Y-56466572D01*
X126445804Y-56442773D01*
X126442204Y-56418505D01*
X126441000Y-56394001D01*
X126441000Y-55493999D01*
X126442204Y-55469495D01*
X126445804Y-55445227D01*
X126451765Y-55421428D01*
X126460030Y-55398329D01*
X126470520Y-55376150D01*
X126483132Y-55355107D01*
X126497747Y-55335401D01*
X126514223Y-55317223D01*
X126532401Y-55300747D01*
X126552107Y-55286132D01*
X126573150Y-55273520D01*
X126595329Y-55263030D01*
X126618428Y-55254765D01*
X126642227Y-55248804D01*
X126666495Y-55245204D01*
X126690999Y-55244000D01*
X127341001Y-55244000D01*
X127365505Y-55245204D01*
X127365505Y-55245204D01*
G37*
D11*
X127016000Y-55944000D03*
D10*
G36*
X129415505Y-55245204D02*
G01*
X129439773Y-55248804D01*
X129463572Y-55254765D01*
X129486671Y-55263030D01*
X129508850Y-55273520D01*
X129529893Y-55286132D01*
X129549599Y-55300747D01*
X129567777Y-55317223D01*
X129584253Y-55335401D01*
X129598868Y-55355107D01*
X129611480Y-55376150D01*
X129621970Y-55398329D01*
X129630235Y-55421428D01*
X129636196Y-55445227D01*
X129639796Y-55469495D01*
X129641000Y-55493999D01*
X129641000Y-56394001D01*
X129639796Y-56418505D01*
X129636196Y-56442773D01*
X129630235Y-56466572D01*
X129621970Y-56489671D01*
X129611480Y-56511850D01*
X129598868Y-56532893D01*
X129584253Y-56552599D01*
X129567777Y-56570777D01*
X129549599Y-56587253D01*
X129529893Y-56601868D01*
X129508850Y-56614480D01*
X129486671Y-56624970D01*
X129463572Y-56633235D01*
X129439773Y-56639196D01*
X129415505Y-56642796D01*
X129391001Y-56644000D01*
X128740999Y-56644000D01*
X128716495Y-56642796D01*
X128692227Y-56639196D01*
X128668428Y-56633235D01*
X128645329Y-56624970D01*
X128623150Y-56614480D01*
X128602107Y-56601868D01*
X128582401Y-56587253D01*
X128564223Y-56570777D01*
X128547747Y-56552599D01*
X128533132Y-56532893D01*
X128520520Y-56511850D01*
X128510030Y-56489671D01*
X128501765Y-56466572D01*
X128495804Y-56442773D01*
X128492204Y-56418505D01*
X128491000Y-56394001D01*
X128491000Y-55493999D01*
X128492204Y-55469495D01*
X128495804Y-55445227D01*
X128501765Y-55421428D01*
X128510030Y-55398329D01*
X128520520Y-55376150D01*
X128533132Y-55355107D01*
X128547747Y-55335401D01*
X128564223Y-55317223D01*
X128582401Y-55300747D01*
X128602107Y-55286132D01*
X128623150Y-55273520D01*
X128645329Y-55263030D01*
X128668428Y-55254765D01*
X128692227Y-55248804D01*
X128716495Y-55245204D01*
X128740999Y-55244000D01*
X129391001Y-55244000D01*
X129415505Y-55245204D01*
X129415505Y-55245204D01*
G37*
D11*
X129066000Y-55944000D03*
D10*
G36*
X143836505Y-43728204D02*
G01*
X143860773Y-43731804D01*
X143884572Y-43737765D01*
X143907671Y-43746030D01*
X143929850Y-43756520D01*
X143950893Y-43769132D01*
X143970599Y-43783747D01*
X143988777Y-43800223D01*
X144005253Y-43818401D01*
X144019868Y-43838107D01*
X144032480Y-43859150D01*
X144042970Y-43881329D01*
X144051235Y-43904428D01*
X144057196Y-43928227D01*
X144060796Y-43952495D01*
X144062000Y-43976999D01*
X144062000Y-44627001D01*
X144060796Y-44651505D01*
X144057196Y-44675773D01*
X144051235Y-44699572D01*
X144042970Y-44722671D01*
X144032480Y-44744850D01*
X144019868Y-44765893D01*
X144005253Y-44785599D01*
X143988777Y-44803777D01*
X143970599Y-44820253D01*
X143950893Y-44834868D01*
X143929850Y-44847480D01*
X143907671Y-44857970D01*
X143884572Y-44866235D01*
X143860773Y-44872196D01*
X143836505Y-44875796D01*
X143812001Y-44877000D01*
X142911999Y-44877000D01*
X142887495Y-44875796D01*
X142863227Y-44872196D01*
X142839428Y-44866235D01*
X142816329Y-44857970D01*
X142794150Y-44847480D01*
X142773107Y-44834868D01*
X142753401Y-44820253D01*
X142735223Y-44803777D01*
X142718747Y-44785599D01*
X142704132Y-44765893D01*
X142691520Y-44744850D01*
X142681030Y-44722671D01*
X142672765Y-44699572D01*
X142666804Y-44675773D01*
X142663204Y-44651505D01*
X142662000Y-44627001D01*
X142662000Y-43976999D01*
X142663204Y-43952495D01*
X142666804Y-43928227D01*
X142672765Y-43904428D01*
X142681030Y-43881329D01*
X142691520Y-43859150D01*
X142704132Y-43838107D01*
X142718747Y-43818401D01*
X142735223Y-43800223D01*
X142753401Y-43783747D01*
X142773107Y-43769132D01*
X142794150Y-43756520D01*
X142816329Y-43746030D01*
X142839428Y-43737765D01*
X142863227Y-43731804D01*
X142887495Y-43728204D01*
X142911999Y-43727000D01*
X143812001Y-43727000D01*
X143836505Y-43728204D01*
X143836505Y-43728204D01*
G37*
D11*
X143362000Y-44302000D03*
D10*
G36*
X143836505Y-41678204D02*
G01*
X143860773Y-41681804D01*
X143884572Y-41687765D01*
X143907671Y-41696030D01*
X143929850Y-41706520D01*
X143950893Y-41719132D01*
X143970599Y-41733747D01*
X143988777Y-41750223D01*
X144005253Y-41768401D01*
X144019868Y-41788107D01*
X144032480Y-41809150D01*
X144042970Y-41831329D01*
X144051235Y-41854428D01*
X144057196Y-41878227D01*
X144060796Y-41902495D01*
X144062000Y-41926999D01*
X144062000Y-42577001D01*
X144060796Y-42601505D01*
X144057196Y-42625773D01*
X144051235Y-42649572D01*
X144042970Y-42672671D01*
X144032480Y-42694850D01*
X144019868Y-42715893D01*
X144005253Y-42735599D01*
X143988777Y-42753777D01*
X143970599Y-42770253D01*
X143950893Y-42784868D01*
X143929850Y-42797480D01*
X143907671Y-42807970D01*
X143884572Y-42816235D01*
X143860773Y-42822196D01*
X143836505Y-42825796D01*
X143812001Y-42827000D01*
X142911999Y-42827000D01*
X142887495Y-42825796D01*
X142863227Y-42822196D01*
X142839428Y-42816235D01*
X142816329Y-42807970D01*
X142794150Y-42797480D01*
X142773107Y-42784868D01*
X142753401Y-42770253D01*
X142735223Y-42753777D01*
X142718747Y-42735599D01*
X142704132Y-42715893D01*
X142691520Y-42694850D01*
X142681030Y-42672671D01*
X142672765Y-42649572D01*
X142666804Y-42625773D01*
X142663204Y-42601505D01*
X142662000Y-42577001D01*
X142662000Y-41926999D01*
X142663204Y-41902495D01*
X142666804Y-41878227D01*
X142672765Y-41854428D01*
X142681030Y-41831329D01*
X142691520Y-41809150D01*
X142704132Y-41788107D01*
X142718747Y-41768401D01*
X142735223Y-41750223D01*
X142753401Y-41733747D01*
X142773107Y-41719132D01*
X142794150Y-41706520D01*
X142816329Y-41696030D01*
X142839428Y-41687765D01*
X142863227Y-41681804D01*
X142887495Y-41678204D01*
X142911999Y-41677000D01*
X143812001Y-41677000D01*
X143836505Y-41678204D01*
X143836505Y-41678204D01*
G37*
D11*
X143362000Y-42252000D03*
D10*
G36*
X104274505Y-38648204D02*
G01*
X104298773Y-38651804D01*
X104322572Y-38657765D01*
X104345671Y-38666030D01*
X104367850Y-38676520D01*
X104388893Y-38689132D01*
X104408599Y-38703747D01*
X104426777Y-38720223D01*
X104443253Y-38738401D01*
X104457868Y-38758107D01*
X104470480Y-38779150D01*
X104480970Y-38801329D01*
X104489235Y-38824428D01*
X104495196Y-38848227D01*
X104498796Y-38872495D01*
X104500000Y-38896999D01*
X104500000Y-39797001D01*
X104498796Y-39821505D01*
X104495196Y-39845773D01*
X104489235Y-39869572D01*
X104480970Y-39892671D01*
X104470480Y-39914850D01*
X104457868Y-39935893D01*
X104443253Y-39955599D01*
X104426777Y-39973777D01*
X104408599Y-39990253D01*
X104388893Y-40004868D01*
X104367850Y-40017480D01*
X104345671Y-40027970D01*
X104322572Y-40036235D01*
X104298773Y-40042196D01*
X104274505Y-40045796D01*
X104250001Y-40047000D01*
X103599999Y-40047000D01*
X103575495Y-40045796D01*
X103551227Y-40042196D01*
X103527428Y-40036235D01*
X103504329Y-40027970D01*
X103482150Y-40017480D01*
X103461107Y-40004868D01*
X103441401Y-39990253D01*
X103423223Y-39973777D01*
X103406747Y-39955599D01*
X103392132Y-39935893D01*
X103379520Y-39914850D01*
X103369030Y-39892671D01*
X103360765Y-39869572D01*
X103354804Y-39845773D01*
X103351204Y-39821505D01*
X103350000Y-39797001D01*
X103350000Y-38896999D01*
X103351204Y-38872495D01*
X103354804Y-38848227D01*
X103360765Y-38824428D01*
X103369030Y-38801329D01*
X103379520Y-38779150D01*
X103392132Y-38758107D01*
X103406747Y-38738401D01*
X103423223Y-38720223D01*
X103441401Y-38703747D01*
X103461107Y-38689132D01*
X103482150Y-38676520D01*
X103504329Y-38666030D01*
X103527428Y-38657765D01*
X103551227Y-38651804D01*
X103575495Y-38648204D01*
X103599999Y-38647000D01*
X104250001Y-38647000D01*
X104274505Y-38648204D01*
X104274505Y-38648204D01*
G37*
D11*
X103925000Y-39347000D03*
D10*
G36*
X102224505Y-38648204D02*
G01*
X102248773Y-38651804D01*
X102272572Y-38657765D01*
X102295671Y-38666030D01*
X102317850Y-38676520D01*
X102338893Y-38689132D01*
X102358599Y-38703747D01*
X102376777Y-38720223D01*
X102393253Y-38738401D01*
X102407868Y-38758107D01*
X102420480Y-38779150D01*
X102430970Y-38801329D01*
X102439235Y-38824428D01*
X102445196Y-38848227D01*
X102448796Y-38872495D01*
X102450000Y-38896999D01*
X102450000Y-39797001D01*
X102448796Y-39821505D01*
X102445196Y-39845773D01*
X102439235Y-39869572D01*
X102430970Y-39892671D01*
X102420480Y-39914850D01*
X102407868Y-39935893D01*
X102393253Y-39955599D01*
X102376777Y-39973777D01*
X102358599Y-39990253D01*
X102338893Y-40004868D01*
X102317850Y-40017480D01*
X102295671Y-40027970D01*
X102272572Y-40036235D01*
X102248773Y-40042196D01*
X102224505Y-40045796D01*
X102200001Y-40047000D01*
X101549999Y-40047000D01*
X101525495Y-40045796D01*
X101501227Y-40042196D01*
X101477428Y-40036235D01*
X101454329Y-40027970D01*
X101432150Y-40017480D01*
X101411107Y-40004868D01*
X101391401Y-39990253D01*
X101373223Y-39973777D01*
X101356747Y-39955599D01*
X101342132Y-39935893D01*
X101329520Y-39914850D01*
X101319030Y-39892671D01*
X101310765Y-39869572D01*
X101304804Y-39845773D01*
X101301204Y-39821505D01*
X101300000Y-39797001D01*
X101300000Y-38896999D01*
X101301204Y-38872495D01*
X101304804Y-38848227D01*
X101310765Y-38824428D01*
X101319030Y-38801329D01*
X101329520Y-38779150D01*
X101342132Y-38758107D01*
X101356747Y-38738401D01*
X101373223Y-38720223D01*
X101391401Y-38703747D01*
X101411107Y-38689132D01*
X101432150Y-38676520D01*
X101454329Y-38666030D01*
X101477428Y-38657765D01*
X101501227Y-38651804D01*
X101525495Y-38648204D01*
X101549999Y-38647000D01*
X102200001Y-38647000D01*
X102224505Y-38648204D01*
X102224505Y-38648204D01*
G37*
D11*
X101875000Y-39347000D03*
D10*
G36*
X94798505Y-48878204D02*
G01*
X94822773Y-48881804D01*
X94846572Y-48887765D01*
X94869671Y-48896030D01*
X94891850Y-48906520D01*
X94912893Y-48919132D01*
X94932599Y-48933747D01*
X94950777Y-48950223D01*
X94967253Y-48968401D01*
X94981868Y-48988107D01*
X94994480Y-49009150D01*
X95004970Y-49031329D01*
X95013235Y-49054428D01*
X95019196Y-49078227D01*
X95022796Y-49102495D01*
X95024000Y-49126999D01*
X95024000Y-50027001D01*
X95022796Y-50051505D01*
X95019196Y-50075773D01*
X95013235Y-50099572D01*
X95004970Y-50122671D01*
X94994480Y-50144850D01*
X94981868Y-50165893D01*
X94967253Y-50185599D01*
X94950777Y-50203777D01*
X94932599Y-50220253D01*
X94912893Y-50234868D01*
X94891850Y-50247480D01*
X94869671Y-50257970D01*
X94846572Y-50266235D01*
X94822773Y-50272196D01*
X94798505Y-50275796D01*
X94774001Y-50277000D01*
X94123999Y-50277000D01*
X94099495Y-50275796D01*
X94075227Y-50272196D01*
X94051428Y-50266235D01*
X94028329Y-50257970D01*
X94006150Y-50247480D01*
X93985107Y-50234868D01*
X93965401Y-50220253D01*
X93947223Y-50203777D01*
X93930747Y-50185599D01*
X93916132Y-50165893D01*
X93903520Y-50144850D01*
X93893030Y-50122671D01*
X93884765Y-50099572D01*
X93878804Y-50075773D01*
X93875204Y-50051505D01*
X93874000Y-50027001D01*
X93874000Y-49126999D01*
X93875204Y-49102495D01*
X93878804Y-49078227D01*
X93884765Y-49054428D01*
X93893030Y-49031329D01*
X93903520Y-49009150D01*
X93916132Y-48988107D01*
X93930747Y-48968401D01*
X93947223Y-48950223D01*
X93965401Y-48933747D01*
X93985107Y-48919132D01*
X94006150Y-48906520D01*
X94028329Y-48896030D01*
X94051428Y-48887765D01*
X94075227Y-48881804D01*
X94099495Y-48878204D01*
X94123999Y-48877000D01*
X94774001Y-48877000D01*
X94798505Y-48878204D01*
X94798505Y-48878204D01*
G37*
D11*
X94449000Y-49577000D03*
D10*
G36*
X96848505Y-48878204D02*
G01*
X96872773Y-48881804D01*
X96896572Y-48887765D01*
X96919671Y-48896030D01*
X96941850Y-48906520D01*
X96962893Y-48919132D01*
X96982599Y-48933747D01*
X97000777Y-48950223D01*
X97017253Y-48968401D01*
X97031868Y-48988107D01*
X97044480Y-49009150D01*
X97054970Y-49031329D01*
X97063235Y-49054428D01*
X97069196Y-49078227D01*
X97072796Y-49102495D01*
X97074000Y-49126999D01*
X97074000Y-50027001D01*
X97072796Y-50051505D01*
X97069196Y-50075773D01*
X97063235Y-50099572D01*
X97054970Y-50122671D01*
X97044480Y-50144850D01*
X97031868Y-50165893D01*
X97017253Y-50185599D01*
X97000777Y-50203777D01*
X96982599Y-50220253D01*
X96962893Y-50234868D01*
X96941850Y-50247480D01*
X96919671Y-50257970D01*
X96896572Y-50266235D01*
X96872773Y-50272196D01*
X96848505Y-50275796D01*
X96824001Y-50277000D01*
X96173999Y-50277000D01*
X96149495Y-50275796D01*
X96125227Y-50272196D01*
X96101428Y-50266235D01*
X96078329Y-50257970D01*
X96056150Y-50247480D01*
X96035107Y-50234868D01*
X96015401Y-50220253D01*
X95997223Y-50203777D01*
X95980747Y-50185599D01*
X95966132Y-50165893D01*
X95953520Y-50144850D01*
X95943030Y-50122671D01*
X95934765Y-50099572D01*
X95928804Y-50075773D01*
X95925204Y-50051505D01*
X95924000Y-50027001D01*
X95924000Y-49126999D01*
X95925204Y-49102495D01*
X95928804Y-49078227D01*
X95934765Y-49054428D01*
X95943030Y-49031329D01*
X95953520Y-49009150D01*
X95966132Y-48988107D01*
X95980747Y-48968401D01*
X95997223Y-48950223D01*
X96015401Y-48933747D01*
X96035107Y-48919132D01*
X96056150Y-48906520D01*
X96078329Y-48896030D01*
X96101428Y-48887765D01*
X96125227Y-48881804D01*
X96149495Y-48878204D01*
X96173999Y-48877000D01*
X96824001Y-48877000D01*
X96848505Y-48878204D01*
X96848505Y-48878204D01*
G37*
D11*
X96499000Y-49577000D03*
D10*
G36*
X63013505Y-59013204D02*
G01*
X63037773Y-59016804D01*
X63061572Y-59022765D01*
X63084671Y-59031030D01*
X63106850Y-59041520D01*
X63127893Y-59054132D01*
X63147599Y-59068747D01*
X63165777Y-59085223D01*
X63182253Y-59103401D01*
X63196868Y-59123107D01*
X63209480Y-59144150D01*
X63219970Y-59166329D01*
X63228235Y-59189428D01*
X63234196Y-59213227D01*
X63237796Y-59237495D01*
X63239000Y-59261999D01*
X63239000Y-60162001D01*
X63237796Y-60186505D01*
X63234196Y-60210773D01*
X63228235Y-60234572D01*
X63219970Y-60257671D01*
X63209480Y-60279850D01*
X63196868Y-60300893D01*
X63182253Y-60320599D01*
X63165777Y-60338777D01*
X63147599Y-60355253D01*
X63127893Y-60369868D01*
X63106850Y-60382480D01*
X63084671Y-60392970D01*
X63061572Y-60401235D01*
X63037773Y-60407196D01*
X63013505Y-60410796D01*
X62989001Y-60412000D01*
X62338999Y-60412000D01*
X62314495Y-60410796D01*
X62290227Y-60407196D01*
X62266428Y-60401235D01*
X62243329Y-60392970D01*
X62221150Y-60382480D01*
X62200107Y-60369868D01*
X62180401Y-60355253D01*
X62162223Y-60338777D01*
X62145747Y-60320599D01*
X62131132Y-60300893D01*
X62118520Y-60279850D01*
X62108030Y-60257671D01*
X62099765Y-60234572D01*
X62093804Y-60210773D01*
X62090204Y-60186505D01*
X62089000Y-60162001D01*
X62089000Y-59261999D01*
X62090204Y-59237495D01*
X62093804Y-59213227D01*
X62099765Y-59189428D01*
X62108030Y-59166329D01*
X62118520Y-59144150D01*
X62131132Y-59123107D01*
X62145747Y-59103401D01*
X62162223Y-59085223D01*
X62180401Y-59068747D01*
X62200107Y-59054132D01*
X62221150Y-59041520D01*
X62243329Y-59031030D01*
X62266428Y-59022765D01*
X62290227Y-59016804D01*
X62314495Y-59013204D01*
X62338999Y-59012000D01*
X62989001Y-59012000D01*
X63013505Y-59013204D01*
X63013505Y-59013204D01*
G37*
D11*
X62664000Y-59712000D03*
D10*
G36*
X60963505Y-59013204D02*
G01*
X60987773Y-59016804D01*
X61011572Y-59022765D01*
X61034671Y-59031030D01*
X61056850Y-59041520D01*
X61077893Y-59054132D01*
X61097599Y-59068747D01*
X61115777Y-59085223D01*
X61132253Y-59103401D01*
X61146868Y-59123107D01*
X61159480Y-59144150D01*
X61169970Y-59166329D01*
X61178235Y-59189428D01*
X61184196Y-59213227D01*
X61187796Y-59237495D01*
X61189000Y-59261999D01*
X61189000Y-60162001D01*
X61187796Y-60186505D01*
X61184196Y-60210773D01*
X61178235Y-60234572D01*
X61169970Y-60257671D01*
X61159480Y-60279850D01*
X61146868Y-60300893D01*
X61132253Y-60320599D01*
X61115777Y-60338777D01*
X61097599Y-60355253D01*
X61077893Y-60369868D01*
X61056850Y-60382480D01*
X61034671Y-60392970D01*
X61011572Y-60401235D01*
X60987773Y-60407196D01*
X60963505Y-60410796D01*
X60939001Y-60412000D01*
X60288999Y-60412000D01*
X60264495Y-60410796D01*
X60240227Y-60407196D01*
X60216428Y-60401235D01*
X60193329Y-60392970D01*
X60171150Y-60382480D01*
X60150107Y-60369868D01*
X60130401Y-60355253D01*
X60112223Y-60338777D01*
X60095747Y-60320599D01*
X60081132Y-60300893D01*
X60068520Y-60279850D01*
X60058030Y-60257671D01*
X60049765Y-60234572D01*
X60043804Y-60210773D01*
X60040204Y-60186505D01*
X60039000Y-60162001D01*
X60039000Y-59261999D01*
X60040204Y-59237495D01*
X60043804Y-59213227D01*
X60049765Y-59189428D01*
X60058030Y-59166329D01*
X60068520Y-59144150D01*
X60081132Y-59123107D01*
X60095747Y-59103401D01*
X60112223Y-59085223D01*
X60130401Y-59068747D01*
X60150107Y-59054132D01*
X60171150Y-59041520D01*
X60193329Y-59031030D01*
X60216428Y-59022765D01*
X60240227Y-59016804D01*
X60264495Y-59013204D01*
X60288999Y-59012000D01*
X60939001Y-59012000D01*
X60963505Y-59013204D01*
X60963505Y-59013204D01*
G37*
D11*
X60614000Y-59712000D03*
D10*
G36*
X140755505Y-41748204D02*
G01*
X140779773Y-41751804D01*
X140803572Y-41757765D01*
X140826671Y-41766030D01*
X140848850Y-41776520D01*
X140869893Y-41789132D01*
X140889599Y-41803747D01*
X140907777Y-41820223D01*
X140924253Y-41838401D01*
X140938868Y-41858107D01*
X140951480Y-41879150D01*
X140961970Y-41901329D01*
X140970235Y-41924428D01*
X140976196Y-41948227D01*
X140979796Y-41972495D01*
X140981000Y-41996999D01*
X140981000Y-42647001D01*
X140979796Y-42671505D01*
X140976196Y-42695773D01*
X140970235Y-42719572D01*
X140961970Y-42742671D01*
X140951480Y-42764850D01*
X140938868Y-42785893D01*
X140924253Y-42805599D01*
X140907777Y-42823777D01*
X140889599Y-42840253D01*
X140869893Y-42854868D01*
X140848850Y-42867480D01*
X140826671Y-42877970D01*
X140803572Y-42886235D01*
X140779773Y-42892196D01*
X140755505Y-42895796D01*
X140731001Y-42897000D01*
X139830999Y-42897000D01*
X139806495Y-42895796D01*
X139782227Y-42892196D01*
X139758428Y-42886235D01*
X139735329Y-42877970D01*
X139713150Y-42867480D01*
X139692107Y-42854868D01*
X139672401Y-42840253D01*
X139654223Y-42823777D01*
X139637747Y-42805599D01*
X139623132Y-42785893D01*
X139610520Y-42764850D01*
X139600030Y-42742671D01*
X139591765Y-42719572D01*
X139585804Y-42695773D01*
X139582204Y-42671505D01*
X139581000Y-42647001D01*
X139581000Y-41996999D01*
X139582204Y-41972495D01*
X139585804Y-41948227D01*
X139591765Y-41924428D01*
X139600030Y-41901329D01*
X139610520Y-41879150D01*
X139623132Y-41858107D01*
X139637747Y-41838401D01*
X139654223Y-41820223D01*
X139672401Y-41803747D01*
X139692107Y-41789132D01*
X139713150Y-41776520D01*
X139735329Y-41766030D01*
X139758428Y-41757765D01*
X139782227Y-41751804D01*
X139806495Y-41748204D01*
X139830999Y-41747000D01*
X140731001Y-41747000D01*
X140755505Y-41748204D01*
X140755505Y-41748204D01*
G37*
D11*
X140281000Y-42322000D03*
D10*
G36*
X140755505Y-43798204D02*
G01*
X140779773Y-43801804D01*
X140803572Y-43807765D01*
X140826671Y-43816030D01*
X140848850Y-43826520D01*
X140869893Y-43839132D01*
X140889599Y-43853747D01*
X140907777Y-43870223D01*
X140924253Y-43888401D01*
X140938868Y-43908107D01*
X140951480Y-43929150D01*
X140961970Y-43951329D01*
X140970235Y-43974428D01*
X140976196Y-43998227D01*
X140979796Y-44022495D01*
X140981000Y-44046999D01*
X140981000Y-44697001D01*
X140979796Y-44721505D01*
X140976196Y-44745773D01*
X140970235Y-44769572D01*
X140961970Y-44792671D01*
X140951480Y-44814850D01*
X140938868Y-44835893D01*
X140924253Y-44855599D01*
X140907777Y-44873777D01*
X140889599Y-44890253D01*
X140869893Y-44904868D01*
X140848850Y-44917480D01*
X140826671Y-44927970D01*
X140803572Y-44936235D01*
X140779773Y-44942196D01*
X140755505Y-44945796D01*
X140731001Y-44947000D01*
X139830999Y-44947000D01*
X139806495Y-44945796D01*
X139782227Y-44942196D01*
X139758428Y-44936235D01*
X139735329Y-44927970D01*
X139713150Y-44917480D01*
X139692107Y-44904868D01*
X139672401Y-44890253D01*
X139654223Y-44873777D01*
X139637747Y-44855599D01*
X139623132Y-44835893D01*
X139610520Y-44814850D01*
X139600030Y-44792671D01*
X139591765Y-44769572D01*
X139585804Y-44745773D01*
X139582204Y-44721505D01*
X139581000Y-44697001D01*
X139581000Y-44046999D01*
X139582204Y-44022495D01*
X139585804Y-43998227D01*
X139591765Y-43974428D01*
X139600030Y-43951329D01*
X139610520Y-43929150D01*
X139623132Y-43908107D01*
X139637747Y-43888401D01*
X139654223Y-43870223D01*
X139672401Y-43853747D01*
X139692107Y-43839132D01*
X139713150Y-43826520D01*
X139735329Y-43816030D01*
X139758428Y-43807765D01*
X139782227Y-43801804D01*
X139806495Y-43798204D01*
X139830999Y-43797000D01*
X140731001Y-43797000D01*
X140755505Y-43798204D01*
X140755505Y-43798204D01*
G37*
D11*
X140281000Y-44372000D03*
D10*
G36*
X70051505Y-76582204D02*
G01*
X70075773Y-76585804D01*
X70099572Y-76591765D01*
X70122671Y-76600030D01*
X70144850Y-76610520D01*
X70165893Y-76623132D01*
X70185599Y-76637747D01*
X70203777Y-76654223D01*
X70220253Y-76672401D01*
X70234868Y-76692107D01*
X70247480Y-76713150D01*
X70257970Y-76735329D01*
X70266235Y-76758428D01*
X70272196Y-76782227D01*
X70275796Y-76806495D01*
X70277000Y-76830999D01*
X70277000Y-77731001D01*
X70275796Y-77755505D01*
X70272196Y-77779773D01*
X70266235Y-77803572D01*
X70257970Y-77826671D01*
X70247480Y-77848850D01*
X70234868Y-77869893D01*
X70220253Y-77889599D01*
X70203777Y-77907777D01*
X70185599Y-77924253D01*
X70165893Y-77938868D01*
X70144850Y-77951480D01*
X70122671Y-77961970D01*
X70099572Y-77970235D01*
X70075773Y-77976196D01*
X70051505Y-77979796D01*
X70027001Y-77981000D01*
X69376999Y-77981000D01*
X69352495Y-77979796D01*
X69328227Y-77976196D01*
X69304428Y-77970235D01*
X69281329Y-77961970D01*
X69259150Y-77951480D01*
X69238107Y-77938868D01*
X69218401Y-77924253D01*
X69200223Y-77907777D01*
X69183747Y-77889599D01*
X69169132Y-77869893D01*
X69156520Y-77848850D01*
X69146030Y-77826671D01*
X69137765Y-77803572D01*
X69131804Y-77779773D01*
X69128204Y-77755505D01*
X69127000Y-77731001D01*
X69127000Y-76830999D01*
X69128204Y-76806495D01*
X69131804Y-76782227D01*
X69137765Y-76758428D01*
X69146030Y-76735329D01*
X69156520Y-76713150D01*
X69169132Y-76692107D01*
X69183747Y-76672401D01*
X69200223Y-76654223D01*
X69218401Y-76637747D01*
X69238107Y-76623132D01*
X69259150Y-76610520D01*
X69281329Y-76600030D01*
X69304428Y-76591765D01*
X69328227Y-76585804D01*
X69352495Y-76582204D01*
X69376999Y-76581000D01*
X70027001Y-76581000D01*
X70051505Y-76582204D01*
X70051505Y-76582204D01*
G37*
D11*
X69702000Y-77281000D03*
D10*
G36*
X72101505Y-76582204D02*
G01*
X72125773Y-76585804D01*
X72149572Y-76591765D01*
X72172671Y-76600030D01*
X72194850Y-76610520D01*
X72215893Y-76623132D01*
X72235599Y-76637747D01*
X72253777Y-76654223D01*
X72270253Y-76672401D01*
X72284868Y-76692107D01*
X72297480Y-76713150D01*
X72307970Y-76735329D01*
X72316235Y-76758428D01*
X72322196Y-76782227D01*
X72325796Y-76806495D01*
X72327000Y-76830999D01*
X72327000Y-77731001D01*
X72325796Y-77755505D01*
X72322196Y-77779773D01*
X72316235Y-77803572D01*
X72307970Y-77826671D01*
X72297480Y-77848850D01*
X72284868Y-77869893D01*
X72270253Y-77889599D01*
X72253777Y-77907777D01*
X72235599Y-77924253D01*
X72215893Y-77938868D01*
X72194850Y-77951480D01*
X72172671Y-77961970D01*
X72149572Y-77970235D01*
X72125773Y-77976196D01*
X72101505Y-77979796D01*
X72077001Y-77981000D01*
X71426999Y-77981000D01*
X71402495Y-77979796D01*
X71378227Y-77976196D01*
X71354428Y-77970235D01*
X71331329Y-77961970D01*
X71309150Y-77951480D01*
X71288107Y-77938868D01*
X71268401Y-77924253D01*
X71250223Y-77907777D01*
X71233747Y-77889599D01*
X71219132Y-77869893D01*
X71206520Y-77848850D01*
X71196030Y-77826671D01*
X71187765Y-77803572D01*
X71181804Y-77779773D01*
X71178204Y-77755505D01*
X71177000Y-77731001D01*
X71177000Y-76830999D01*
X71178204Y-76806495D01*
X71181804Y-76782227D01*
X71187765Y-76758428D01*
X71196030Y-76735329D01*
X71206520Y-76713150D01*
X71219132Y-76692107D01*
X71233747Y-76672401D01*
X71250223Y-76654223D01*
X71268401Y-76637747D01*
X71288107Y-76623132D01*
X71309150Y-76610520D01*
X71331329Y-76600030D01*
X71354428Y-76591765D01*
X71378227Y-76585804D01*
X71402495Y-76582204D01*
X71426999Y-76581000D01*
X72077001Y-76581000D01*
X72101505Y-76582204D01*
X72101505Y-76582204D01*
G37*
D11*
X71752000Y-77281000D03*
D10*
G36*
X135349505Y-58087204D02*
G01*
X135373773Y-58090804D01*
X135397572Y-58096765D01*
X135420671Y-58105030D01*
X135442850Y-58115520D01*
X135463893Y-58128132D01*
X135483599Y-58142747D01*
X135501777Y-58159223D01*
X135518253Y-58177401D01*
X135532868Y-58197107D01*
X135545480Y-58218150D01*
X135555970Y-58240329D01*
X135564235Y-58263428D01*
X135570196Y-58287227D01*
X135573796Y-58311495D01*
X135575000Y-58335999D01*
X135575000Y-59236001D01*
X135573796Y-59260505D01*
X135570196Y-59284773D01*
X135564235Y-59308572D01*
X135555970Y-59331671D01*
X135545480Y-59353850D01*
X135532868Y-59374893D01*
X135518253Y-59394599D01*
X135501777Y-59412777D01*
X135483599Y-59429253D01*
X135463893Y-59443868D01*
X135442850Y-59456480D01*
X135420671Y-59466970D01*
X135397572Y-59475235D01*
X135373773Y-59481196D01*
X135349505Y-59484796D01*
X135325001Y-59486000D01*
X134674999Y-59486000D01*
X134650495Y-59484796D01*
X134626227Y-59481196D01*
X134602428Y-59475235D01*
X134579329Y-59466970D01*
X134557150Y-59456480D01*
X134536107Y-59443868D01*
X134516401Y-59429253D01*
X134498223Y-59412777D01*
X134481747Y-59394599D01*
X134467132Y-59374893D01*
X134454520Y-59353850D01*
X134444030Y-59331671D01*
X134435765Y-59308572D01*
X134429804Y-59284773D01*
X134426204Y-59260505D01*
X134425000Y-59236001D01*
X134425000Y-58335999D01*
X134426204Y-58311495D01*
X134429804Y-58287227D01*
X134435765Y-58263428D01*
X134444030Y-58240329D01*
X134454520Y-58218150D01*
X134467132Y-58197107D01*
X134481747Y-58177401D01*
X134498223Y-58159223D01*
X134516401Y-58142747D01*
X134536107Y-58128132D01*
X134557150Y-58115520D01*
X134579329Y-58105030D01*
X134602428Y-58096765D01*
X134626227Y-58090804D01*
X134650495Y-58087204D01*
X134674999Y-58086000D01*
X135325001Y-58086000D01*
X135349505Y-58087204D01*
X135349505Y-58087204D01*
G37*
D11*
X135000000Y-58786000D03*
D10*
G36*
X133299505Y-58087204D02*
G01*
X133323773Y-58090804D01*
X133347572Y-58096765D01*
X133370671Y-58105030D01*
X133392850Y-58115520D01*
X133413893Y-58128132D01*
X133433599Y-58142747D01*
X133451777Y-58159223D01*
X133468253Y-58177401D01*
X133482868Y-58197107D01*
X133495480Y-58218150D01*
X133505970Y-58240329D01*
X133514235Y-58263428D01*
X133520196Y-58287227D01*
X133523796Y-58311495D01*
X133525000Y-58335999D01*
X133525000Y-59236001D01*
X133523796Y-59260505D01*
X133520196Y-59284773D01*
X133514235Y-59308572D01*
X133505970Y-59331671D01*
X133495480Y-59353850D01*
X133482868Y-59374893D01*
X133468253Y-59394599D01*
X133451777Y-59412777D01*
X133433599Y-59429253D01*
X133413893Y-59443868D01*
X133392850Y-59456480D01*
X133370671Y-59466970D01*
X133347572Y-59475235D01*
X133323773Y-59481196D01*
X133299505Y-59484796D01*
X133275001Y-59486000D01*
X132624999Y-59486000D01*
X132600495Y-59484796D01*
X132576227Y-59481196D01*
X132552428Y-59475235D01*
X132529329Y-59466970D01*
X132507150Y-59456480D01*
X132486107Y-59443868D01*
X132466401Y-59429253D01*
X132448223Y-59412777D01*
X132431747Y-59394599D01*
X132417132Y-59374893D01*
X132404520Y-59353850D01*
X132394030Y-59331671D01*
X132385765Y-59308572D01*
X132379804Y-59284773D01*
X132376204Y-59260505D01*
X132375000Y-59236001D01*
X132375000Y-58335999D01*
X132376204Y-58311495D01*
X132379804Y-58287227D01*
X132385765Y-58263428D01*
X132394030Y-58240329D01*
X132404520Y-58218150D01*
X132417132Y-58197107D01*
X132431747Y-58177401D01*
X132448223Y-58159223D01*
X132466401Y-58142747D01*
X132486107Y-58128132D01*
X132507150Y-58115520D01*
X132529329Y-58105030D01*
X132552428Y-58096765D01*
X132576227Y-58090804D01*
X132600495Y-58087204D01*
X132624999Y-58086000D01*
X133275001Y-58086000D01*
X133299505Y-58087204D01*
X133299505Y-58087204D01*
G37*
D11*
X132950000Y-58786000D03*
D10*
G36*
X100902505Y-45563204D02*
G01*
X100926773Y-45566804D01*
X100950572Y-45572765D01*
X100973671Y-45581030D01*
X100995850Y-45591520D01*
X101016893Y-45604132D01*
X101036599Y-45618747D01*
X101054777Y-45635223D01*
X101071253Y-45653401D01*
X101085868Y-45673107D01*
X101098480Y-45694150D01*
X101108970Y-45716329D01*
X101117235Y-45739428D01*
X101123196Y-45763227D01*
X101126796Y-45787495D01*
X101128000Y-45811999D01*
X101128000Y-46712001D01*
X101126796Y-46736505D01*
X101123196Y-46760773D01*
X101117235Y-46784572D01*
X101108970Y-46807671D01*
X101098480Y-46829850D01*
X101085868Y-46850893D01*
X101071253Y-46870599D01*
X101054777Y-46888777D01*
X101036599Y-46905253D01*
X101016893Y-46919868D01*
X100995850Y-46932480D01*
X100973671Y-46942970D01*
X100950572Y-46951235D01*
X100926773Y-46957196D01*
X100902505Y-46960796D01*
X100878001Y-46962000D01*
X100227999Y-46962000D01*
X100203495Y-46960796D01*
X100179227Y-46957196D01*
X100155428Y-46951235D01*
X100132329Y-46942970D01*
X100110150Y-46932480D01*
X100089107Y-46919868D01*
X100069401Y-46905253D01*
X100051223Y-46888777D01*
X100034747Y-46870599D01*
X100020132Y-46850893D01*
X100007520Y-46829850D01*
X99997030Y-46807671D01*
X99988765Y-46784572D01*
X99982804Y-46760773D01*
X99979204Y-46736505D01*
X99978000Y-46712001D01*
X99978000Y-45811999D01*
X99979204Y-45787495D01*
X99982804Y-45763227D01*
X99988765Y-45739428D01*
X99997030Y-45716329D01*
X100007520Y-45694150D01*
X100020132Y-45673107D01*
X100034747Y-45653401D01*
X100051223Y-45635223D01*
X100069401Y-45618747D01*
X100089107Y-45604132D01*
X100110150Y-45591520D01*
X100132329Y-45581030D01*
X100155428Y-45572765D01*
X100179227Y-45566804D01*
X100203495Y-45563204D01*
X100227999Y-45562000D01*
X100878001Y-45562000D01*
X100902505Y-45563204D01*
X100902505Y-45563204D01*
G37*
D11*
X100553000Y-46262000D03*
D10*
G36*
X102952505Y-45563204D02*
G01*
X102976773Y-45566804D01*
X103000572Y-45572765D01*
X103023671Y-45581030D01*
X103045850Y-45591520D01*
X103066893Y-45604132D01*
X103086599Y-45618747D01*
X103104777Y-45635223D01*
X103121253Y-45653401D01*
X103135868Y-45673107D01*
X103148480Y-45694150D01*
X103158970Y-45716329D01*
X103167235Y-45739428D01*
X103173196Y-45763227D01*
X103176796Y-45787495D01*
X103178000Y-45811999D01*
X103178000Y-46712001D01*
X103176796Y-46736505D01*
X103173196Y-46760773D01*
X103167235Y-46784572D01*
X103158970Y-46807671D01*
X103148480Y-46829850D01*
X103135868Y-46850893D01*
X103121253Y-46870599D01*
X103104777Y-46888777D01*
X103086599Y-46905253D01*
X103066893Y-46919868D01*
X103045850Y-46932480D01*
X103023671Y-46942970D01*
X103000572Y-46951235D01*
X102976773Y-46957196D01*
X102952505Y-46960796D01*
X102928001Y-46962000D01*
X102277999Y-46962000D01*
X102253495Y-46960796D01*
X102229227Y-46957196D01*
X102205428Y-46951235D01*
X102182329Y-46942970D01*
X102160150Y-46932480D01*
X102139107Y-46919868D01*
X102119401Y-46905253D01*
X102101223Y-46888777D01*
X102084747Y-46870599D01*
X102070132Y-46850893D01*
X102057520Y-46829850D01*
X102047030Y-46807671D01*
X102038765Y-46784572D01*
X102032804Y-46760773D01*
X102029204Y-46736505D01*
X102028000Y-46712001D01*
X102028000Y-45811999D01*
X102029204Y-45787495D01*
X102032804Y-45763227D01*
X102038765Y-45739428D01*
X102047030Y-45716329D01*
X102057520Y-45694150D01*
X102070132Y-45673107D01*
X102084747Y-45653401D01*
X102101223Y-45635223D01*
X102119401Y-45618747D01*
X102139107Y-45604132D01*
X102160150Y-45591520D01*
X102182329Y-45581030D01*
X102205428Y-45572765D01*
X102229227Y-45566804D01*
X102253495Y-45563204D01*
X102277999Y-45562000D01*
X102928001Y-45562000D01*
X102952505Y-45563204D01*
X102952505Y-45563204D01*
G37*
D11*
X102603000Y-46262000D03*
D10*
G36*
X61450505Y-68885204D02*
G01*
X61474773Y-68888804D01*
X61498572Y-68894765D01*
X61521671Y-68903030D01*
X61543850Y-68913520D01*
X61564893Y-68926132D01*
X61584599Y-68940747D01*
X61602777Y-68957223D01*
X61619253Y-68975401D01*
X61633868Y-68995107D01*
X61646480Y-69016150D01*
X61656970Y-69038329D01*
X61665235Y-69061428D01*
X61671196Y-69085227D01*
X61674796Y-69109495D01*
X61676000Y-69133999D01*
X61676000Y-69784001D01*
X61674796Y-69808505D01*
X61671196Y-69832773D01*
X61665235Y-69856572D01*
X61656970Y-69879671D01*
X61646480Y-69901850D01*
X61633868Y-69922893D01*
X61619253Y-69942599D01*
X61602777Y-69960777D01*
X61584599Y-69977253D01*
X61564893Y-69991868D01*
X61543850Y-70004480D01*
X61521671Y-70014970D01*
X61498572Y-70023235D01*
X61474773Y-70029196D01*
X61450505Y-70032796D01*
X61426001Y-70034000D01*
X60525999Y-70034000D01*
X60501495Y-70032796D01*
X60477227Y-70029196D01*
X60453428Y-70023235D01*
X60430329Y-70014970D01*
X60408150Y-70004480D01*
X60387107Y-69991868D01*
X60367401Y-69977253D01*
X60349223Y-69960777D01*
X60332747Y-69942599D01*
X60318132Y-69922893D01*
X60305520Y-69901850D01*
X60295030Y-69879671D01*
X60286765Y-69856572D01*
X60280804Y-69832773D01*
X60277204Y-69808505D01*
X60276000Y-69784001D01*
X60276000Y-69133999D01*
X60277204Y-69109495D01*
X60280804Y-69085227D01*
X60286765Y-69061428D01*
X60295030Y-69038329D01*
X60305520Y-69016150D01*
X60318132Y-68995107D01*
X60332747Y-68975401D01*
X60349223Y-68957223D01*
X60367401Y-68940747D01*
X60387107Y-68926132D01*
X60408150Y-68913520D01*
X60430329Y-68903030D01*
X60453428Y-68894765D01*
X60477227Y-68888804D01*
X60501495Y-68885204D01*
X60525999Y-68884000D01*
X61426001Y-68884000D01*
X61450505Y-68885204D01*
X61450505Y-68885204D01*
G37*
D11*
X60976000Y-69459000D03*
D10*
G36*
X61450505Y-66835204D02*
G01*
X61474773Y-66838804D01*
X61498572Y-66844765D01*
X61521671Y-66853030D01*
X61543850Y-66863520D01*
X61564893Y-66876132D01*
X61584599Y-66890747D01*
X61602777Y-66907223D01*
X61619253Y-66925401D01*
X61633868Y-66945107D01*
X61646480Y-66966150D01*
X61656970Y-66988329D01*
X61665235Y-67011428D01*
X61671196Y-67035227D01*
X61674796Y-67059495D01*
X61676000Y-67083999D01*
X61676000Y-67734001D01*
X61674796Y-67758505D01*
X61671196Y-67782773D01*
X61665235Y-67806572D01*
X61656970Y-67829671D01*
X61646480Y-67851850D01*
X61633868Y-67872893D01*
X61619253Y-67892599D01*
X61602777Y-67910777D01*
X61584599Y-67927253D01*
X61564893Y-67941868D01*
X61543850Y-67954480D01*
X61521671Y-67964970D01*
X61498572Y-67973235D01*
X61474773Y-67979196D01*
X61450505Y-67982796D01*
X61426001Y-67984000D01*
X60525999Y-67984000D01*
X60501495Y-67982796D01*
X60477227Y-67979196D01*
X60453428Y-67973235D01*
X60430329Y-67964970D01*
X60408150Y-67954480D01*
X60387107Y-67941868D01*
X60367401Y-67927253D01*
X60349223Y-67910777D01*
X60332747Y-67892599D01*
X60318132Y-67872893D01*
X60305520Y-67851850D01*
X60295030Y-67829671D01*
X60286765Y-67806572D01*
X60280804Y-67782773D01*
X60277204Y-67758505D01*
X60276000Y-67734001D01*
X60276000Y-67083999D01*
X60277204Y-67059495D01*
X60280804Y-67035227D01*
X60286765Y-67011428D01*
X60295030Y-66988329D01*
X60305520Y-66966150D01*
X60318132Y-66945107D01*
X60332747Y-66925401D01*
X60349223Y-66907223D01*
X60367401Y-66890747D01*
X60387107Y-66876132D01*
X60408150Y-66863520D01*
X60430329Y-66853030D01*
X60453428Y-66844765D01*
X60477227Y-66838804D01*
X60501495Y-66835204D01*
X60525999Y-66834000D01*
X61426001Y-66834000D01*
X61450505Y-66835204D01*
X61450505Y-66835204D01*
G37*
D11*
X60976000Y-67409000D03*
D18*
X116402000Y-30572000D03*
X107902000Y-30572000D03*
X112152000Y-30572000D03*
X66424000Y-29982000D03*
X62174000Y-29982000D03*
X70674000Y-29982000D03*
X101696000Y-30006000D03*
X93196000Y-30006000D03*
X97446000Y-30006000D03*
X82481000Y-30098000D03*
X78231000Y-30098000D03*
X86731000Y-30098000D03*
D10*
G36*
X119084505Y-152278204D02*
G01*
X119108773Y-152281804D01*
X119132572Y-152287765D01*
X119155671Y-152296030D01*
X119177850Y-152306520D01*
X119198893Y-152319132D01*
X119218599Y-152333747D01*
X119236777Y-152350223D01*
X119253253Y-152368401D01*
X119267868Y-152388107D01*
X119280480Y-152409150D01*
X119290970Y-152431329D01*
X119299235Y-152454428D01*
X119305196Y-152478227D01*
X119308796Y-152502495D01*
X119310000Y-152526999D01*
X119310000Y-153427001D01*
X119308796Y-153451505D01*
X119305196Y-153475773D01*
X119299235Y-153499572D01*
X119290970Y-153522671D01*
X119280480Y-153544850D01*
X119267868Y-153565893D01*
X119253253Y-153585599D01*
X119236777Y-153603777D01*
X119218599Y-153620253D01*
X119198893Y-153634868D01*
X119177850Y-153647480D01*
X119155671Y-153657970D01*
X119132572Y-153666235D01*
X119108773Y-153672196D01*
X119084505Y-153675796D01*
X119060001Y-153677000D01*
X118409999Y-153677000D01*
X118385495Y-153675796D01*
X118361227Y-153672196D01*
X118337428Y-153666235D01*
X118314329Y-153657970D01*
X118292150Y-153647480D01*
X118271107Y-153634868D01*
X118251401Y-153620253D01*
X118233223Y-153603777D01*
X118216747Y-153585599D01*
X118202132Y-153565893D01*
X118189520Y-153544850D01*
X118179030Y-153522671D01*
X118170765Y-153499572D01*
X118164804Y-153475773D01*
X118161204Y-153451505D01*
X118160000Y-153427001D01*
X118160000Y-152526999D01*
X118161204Y-152502495D01*
X118164804Y-152478227D01*
X118170765Y-152454428D01*
X118179030Y-152431329D01*
X118189520Y-152409150D01*
X118202132Y-152388107D01*
X118216747Y-152368401D01*
X118233223Y-152350223D01*
X118251401Y-152333747D01*
X118271107Y-152319132D01*
X118292150Y-152306520D01*
X118314329Y-152296030D01*
X118337428Y-152287765D01*
X118361227Y-152281804D01*
X118385495Y-152278204D01*
X118409999Y-152277000D01*
X119060001Y-152277000D01*
X119084505Y-152278204D01*
X119084505Y-152278204D01*
G37*
D11*
X118735000Y-152977000D03*
D10*
G36*
X121134505Y-152278204D02*
G01*
X121158773Y-152281804D01*
X121182572Y-152287765D01*
X121205671Y-152296030D01*
X121227850Y-152306520D01*
X121248893Y-152319132D01*
X121268599Y-152333747D01*
X121286777Y-152350223D01*
X121303253Y-152368401D01*
X121317868Y-152388107D01*
X121330480Y-152409150D01*
X121340970Y-152431329D01*
X121349235Y-152454428D01*
X121355196Y-152478227D01*
X121358796Y-152502495D01*
X121360000Y-152526999D01*
X121360000Y-153427001D01*
X121358796Y-153451505D01*
X121355196Y-153475773D01*
X121349235Y-153499572D01*
X121340970Y-153522671D01*
X121330480Y-153544850D01*
X121317868Y-153565893D01*
X121303253Y-153585599D01*
X121286777Y-153603777D01*
X121268599Y-153620253D01*
X121248893Y-153634868D01*
X121227850Y-153647480D01*
X121205671Y-153657970D01*
X121182572Y-153666235D01*
X121158773Y-153672196D01*
X121134505Y-153675796D01*
X121110001Y-153677000D01*
X120459999Y-153677000D01*
X120435495Y-153675796D01*
X120411227Y-153672196D01*
X120387428Y-153666235D01*
X120364329Y-153657970D01*
X120342150Y-153647480D01*
X120321107Y-153634868D01*
X120301401Y-153620253D01*
X120283223Y-153603777D01*
X120266747Y-153585599D01*
X120252132Y-153565893D01*
X120239520Y-153544850D01*
X120229030Y-153522671D01*
X120220765Y-153499572D01*
X120214804Y-153475773D01*
X120211204Y-153451505D01*
X120210000Y-153427001D01*
X120210000Y-152526999D01*
X120211204Y-152502495D01*
X120214804Y-152478227D01*
X120220765Y-152454428D01*
X120229030Y-152431329D01*
X120239520Y-152409150D01*
X120252132Y-152388107D01*
X120266747Y-152368401D01*
X120283223Y-152350223D01*
X120301401Y-152333747D01*
X120321107Y-152319132D01*
X120342150Y-152306520D01*
X120364329Y-152296030D01*
X120387428Y-152287765D01*
X120411227Y-152281804D01*
X120435495Y-152278204D01*
X120459999Y-152277000D01*
X121110001Y-152277000D01*
X121134505Y-152278204D01*
X121134505Y-152278204D01*
G37*
D11*
X120785000Y-152977000D03*
D10*
G36*
X126735505Y-149409204D02*
G01*
X126759773Y-149412804D01*
X126783572Y-149418765D01*
X126806671Y-149427030D01*
X126828850Y-149437520D01*
X126849893Y-149450132D01*
X126869599Y-149464747D01*
X126887777Y-149481223D01*
X126904253Y-149499401D01*
X126918868Y-149519107D01*
X126931480Y-149540150D01*
X126941970Y-149562329D01*
X126950235Y-149585428D01*
X126956196Y-149609227D01*
X126959796Y-149633495D01*
X126961000Y-149657999D01*
X126961000Y-150308001D01*
X126959796Y-150332505D01*
X126956196Y-150356773D01*
X126950235Y-150380572D01*
X126941970Y-150403671D01*
X126931480Y-150425850D01*
X126918868Y-150446893D01*
X126904253Y-150466599D01*
X126887777Y-150484777D01*
X126869599Y-150501253D01*
X126849893Y-150515868D01*
X126828850Y-150528480D01*
X126806671Y-150538970D01*
X126783572Y-150547235D01*
X126759773Y-150553196D01*
X126735505Y-150556796D01*
X126711001Y-150558000D01*
X125810999Y-150558000D01*
X125786495Y-150556796D01*
X125762227Y-150553196D01*
X125738428Y-150547235D01*
X125715329Y-150538970D01*
X125693150Y-150528480D01*
X125672107Y-150515868D01*
X125652401Y-150501253D01*
X125634223Y-150484777D01*
X125617747Y-150466599D01*
X125603132Y-150446893D01*
X125590520Y-150425850D01*
X125580030Y-150403671D01*
X125571765Y-150380572D01*
X125565804Y-150356773D01*
X125562204Y-150332505D01*
X125561000Y-150308001D01*
X125561000Y-149657999D01*
X125562204Y-149633495D01*
X125565804Y-149609227D01*
X125571765Y-149585428D01*
X125580030Y-149562329D01*
X125590520Y-149540150D01*
X125603132Y-149519107D01*
X125617747Y-149499401D01*
X125634223Y-149481223D01*
X125652401Y-149464747D01*
X125672107Y-149450132D01*
X125693150Y-149437520D01*
X125715329Y-149427030D01*
X125738428Y-149418765D01*
X125762227Y-149412804D01*
X125786495Y-149409204D01*
X125810999Y-149408000D01*
X126711001Y-149408000D01*
X126735505Y-149409204D01*
X126735505Y-149409204D01*
G37*
D11*
X126261000Y-149983000D03*
D10*
G36*
X126735505Y-147359204D02*
G01*
X126759773Y-147362804D01*
X126783572Y-147368765D01*
X126806671Y-147377030D01*
X126828850Y-147387520D01*
X126849893Y-147400132D01*
X126869599Y-147414747D01*
X126887777Y-147431223D01*
X126904253Y-147449401D01*
X126918868Y-147469107D01*
X126931480Y-147490150D01*
X126941970Y-147512329D01*
X126950235Y-147535428D01*
X126956196Y-147559227D01*
X126959796Y-147583495D01*
X126961000Y-147607999D01*
X126961000Y-148258001D01*
X126959796Y-148282505D01*
X126956196Y-148306773D01*
X126950235Y-148330572D01*
X126941970Y-148353671D01*
X126931480Y-148375850D01*
X126918868Y-148396893D01*
X126904253Y-148416599D01*
X126887777Y-148434777D01*
X126869599Y-148451253D01*
X126849893Y-148465868D01*
X126828850Y-148478480D01*
X126806671Y-148488970D01*
X126783572Y-148497235D01*
X126759773Y-148503196D01*
X126735505Y-148506796D01*
X126711001Y-148508000D01*
X125810999Y-148508000D01*
X125786495Y-148506796D01*
X125762227Y-148503196D01*
X125738428Y-148497235D01*
X125715329Y-148488970D01*
X125693150Y-148478480D01*
X125672107Y-148465868D01*
X125652401Y-148451253D01*
X125634223Y-148434777D01*
X125617747Y-148416599D01*
X125603132Y-148396893D01*
X125590520Y-148375850D01*
X125580030Y-148353671D01*
X125571765Y-148330572D01*
X125565804Y-148306773D01*
X125562204Y-148282505D01*
X125561000Y-148258001D01*
X125561000Y-147607999D01*
X125562204Y-147583495D01*
X125565804Y-147559227D01*
X125571765Y-147535428D01*
X125580030Y-147512329D01*
X125590520Y-147490150D01*
X125603132Y-147469107D01*
X125617747Y-147449401D01*
X125634223Y-147431223D01*
X125652401Y-147414747D01*
X125672107Y-147400132D01*
X125693150Y-147387520D01*
X125715329Y-147377030D01*
X125738428Y-147368765D01*
X125762227Y-147362804D01*
X125786495Y-147359204D01*
X125810999Y-147358000D01*
X126711001Y-147358000D01*
X126735505Y-147359204D01*
X126735505Y-147359204D01*
G37*
D11*
X126261000Y-147933000D03*
D10*
G36*
X135127505Y-77250204D02*
G01*
X135151773Y-77253804D01*
X135175572Y-77259765D01*
X135198671Y-77268030D01*
X135220850Y-77278520D01*
X135241893Y-77291132D01*
X135261599Y-77305747D01*
X135279777Y-77322223D01*
X135296253Y-77340401D01*
X135310868Y-77360107D01*
X135323480Y-77381150D01*
X135333970Y-77403329D01*
X135342235Y-77426428D01*
X135348196Y-77450227D01*
X135351796Y-77474495D01*
X135353000Y-77498999D01*
X135353000Y-78399001D01*
X135351796Y-78423505D01*
X135348196Y-78447773D01*
X135342235Y-78471572D01*
X135333970Y-78494671D01*
X135323480Y-78516850D01*
X135310868Y-78537893D01*
X135296253Y-78557599D01*
X135279777Y-78575777D01*
X135261599Y-78592253D01*
X135241893Y-78606868D01*
X135220850Y-78619480D01*
X135198671Y-78629970D01*
X135175572Y-78638235D01*
X135151773Y-78644196D01*
X135127505Y-78647796D01*
X135103001Y-78649000D01*
X134452999Y-78649000D01*
X134428495Y-78647796D01*
X134404227Y-78644196D01*
X134380428Y-78638235D01*
X134357329Y-78629970D01*
X134335150Y-78619480D01*
X134314107Y-78606868D01*
X134294401Y-78592253D01*
X134276223Y-78575777D01*
X134259747Y-78557599D01*
X134245132Y-78537893D01*
X134232520Y-78516850D01*
X134222030Y-78494671D01*
X134213765Y-78471572D01*
X134207804Y-78447773D01*
X134204204Y-78423505D01*
X134203000Y-78399001D01*
X134203000Y-77498999D01*
X134204204Y-77474495D01*
X134207804Y-77450227D01*
X134213765Y-77426428D01*
X134222030Y-77403329D01*
X134232520Y-77381150D01*
X134245132Y-77360107D01*
X134259747Y-77340401D01*
X134276223Y-77322223D01*
X134294401Y-77305747D01*
X134314107Y-77291132D01*
X134335150Y-77278520D01*
X134357329Y-77268030D01*
X134380428Y-77259765D01*
X134404227Y-77253804D01*
X134428495Y-77250204D01*
X134452999Y-77249000D01*
X135103001Y-77249000D01*
X135127505Y-77250204D01*
X135127505Y-77250204D01*
G37*
D11*
X134778000Y-77949000D03*
D10*
G36*
X133077505Y-77250204D02*
G01*
X133101773Y-77253804D01*
X133125572Y-77259765D01*
X133148671Y-77268030D01*
X133170850Y-77278520D01*
X133191893Y-77291132D01*
X133211599Y-77305747D01*
X133229777Y-77322223D01*
X133246253Y-77340401D01*
X133260868Y-77360107D01*
X133273480Y-77381150D01*
X133283970Y-77403329D01*
X133292235Y-77426428D01*
X133298196Y-77450227D01*
X133301796Y-77474495D01*
X133303000Y-77498999D01*
X133303000Y-78399001D01*
X133301796Y-78423505D01*
X133298196Y-78447773D01*
X133292235Y-78471572D01*
X133283970Y-78494671D01*
X133273480Y-78516850D01*
X133260868Y-78537893D01*
X133246253Y-78557599D01*
X133229777Y-78575777D01*
X133211599Y-78592253D01*
X133191893Y-78606868D01*
X133170850Y-78619480D01*
X133148671Y-78629970D01*
X133125572Y-78638235D01*
X133101773Y-78644196D01*
X133077505Y-78647796D01*
X133053001Y-78649000D01*
X132402999Y-78649000D01*
X132378495Y-78647796D01*
X132354227Y-78644196D01*
X132330428Y-78638235D01*
X132307329Y-78629970D01*
X132285150Y-78619480D01*
X132264107Y-78606868D01*
X132244401Y-78592253D01*
X132226223Y-78575777D01*
X132209747Y-78557599D01*
X132195132Y-78537893D01*
X132182520Y-78516850D01*
X132172030Y-78494671D01*
X132163765Y-78471572D01*
X132157804Y-78447773D01*
X132154204Y-78423505D01*
X132153000Y-78399001D01*
X132153000Y-77498999D01*
X132154204Y-77474495D01*
X132157804Y-77450227D01*
X132163765Y-77426428D01*
X132172030Y-77403329D01*
X132182520Y-77381150D01*
X132195132Y-77360107D01*
X132209747Y-77340401D01*
X132226223Y-77322223D01*
X132244401Y-77305747D01*
X132264107Y-77291132D01*
X132285150Y-77278520D01*
X132307329Y-77268030D01*
X132330428Y-77259765D01*
X132354227Y-77253804D01*
X132378495Y-77250204D01*
X132402999Y-77249000D01*
X133053001Y-77249000D01*
X133077505Y-77250204D01*
X133077505Y-77250204D01*
G37*
D11*
X132728000Y-77949000D03*
D10*
G36*
X133077505Y-80540204D02*
G01*
X133101773Y-80543804D01*
X133125572Y-80549765D01*
X133148671Y-80558030D01*
X133170850Y-80568520D01*
X133191893Y-80581132D01*
X133211599Y-80595747D01*
X133229777Y-80612223D01*
X133246253Y-80630401D01*
X133260868Y-80650107D01*
X133273480Y-80671150D01*
X133283970Y-80693329D01*
X133292235Y-80716428D01*
X133298196Y-80740227D01*
X133301796Y-80764495D01*
X133303000Y-80788999D01*
X133303000Y-81689001D01*
X133301796Y-81713505D01*
X133298196Y-81737773D01*
X133292235Y-81761572D01*
X133283970Y-81784671D01*
X133273480Y-81806850D01*
X133260868Y-81827893D01*
X133246253Y-81847599D01*
X133229777Y-81865777D01*
X133211599Y-81882253D01*
X133191893Y-81896868D01*
X133170850Y-81909480D01*
X133148671Y-81919970D01*
X133125572Y-81928235D01*
X133101773Y-81934196D01*
X133077505Y-81937796D01*
X133053001Y-81939000D01*
X132402999Y-81939000D01*
X132378495Y-81937796D01*
X132354227Y-81934196D01*
X132330428Y-81928235D01*
X132307329Y-81919970D01*
X132285150Y-81909480D01*
X132264107Y-81896868D01*
X132244401Y-81882253D01*
X132226223Y-81865777D01*
X132209747Y-81847599D01*
X132195132Y-81827893D01*
X132182520Y-81806850D01*
X132172030Y-81784671D01*
X132163765Y-81761572D01*
X132157804Y-81737773D01*
X132154204Y-81713505D01*
X132153000Y-81689001D01*
X132153000Y-80788999D01*
X132154204Y-80764495D01*
X132157804Y-80740227D01*
X132163765Y-80716428D01*
X132172030Y-80693329D01*
X132182520Y-80671150D01*
X132195132Y-80650107D01*
X132209747Y-80630401D01*
X132226223Y-80612223D01*
X132244401Y-80595747D01*
X132264107Y-80581132D01*
X132285150Y-80568520D01*
X132307329Y-80558030D01*
X132330428Y-80549765D01*
X132354227Y-80543804D01*
X132378495Y-80540204D01*
X132402999Y-80539000D01*
X133053001Y-80539000D01*
X133077505Y-80540204D01*
X133077505Y-80540204D01*
G37*
D11*
X132728000Y-81239000D03*
D10*
G36*
X135127505Y-80540204D02*
G01*
X135151773Y-80543804D01*
X135175572Y-80549765D01*
X135198671Y-80558030D01*
X135220850Y-80568520D01*
X135241893Y-80581132D01*
X135261599Y-80595747D01*
X135279777Y-80612223D01*
X135296253Y-80630401D01*
X135310868Y-80650107D01*
X135323480Y-80671150D01*
X135333970Y-80693329D01*
X135342235Y-80716428D01*
X135348196Y-80740227D01*
X135351796Y-80764495D01*
X135353000Y-80788999D01*
X135353000Y-81689001D01*
X135351796Y-81713505D01*
X135348196Y-81737773D01*
X135342235Y-81761572D01*
X135333970Y-81784671D01*
X135323480Y-81806850D01*
X135310868Y-81827893D01*
X135296253Y-81847599D01*
X135279777Y-81865777D01*
X135261599Y-81882253D01*
X135241893Y-81896868D01*
X135220850Y-81909480D01*
X135198671Y-81919970D01*
X135175572Y-81928235D01*
X135151773Y-81934196D01*
X135127505Y-81937796D01*
X135103001Y-81939000D01*
X134452999Y-81939000D01*
X134428495Y-81937796D01*
X134404227Y-81934196D01*
X134380428Y-81928235D01*
X134357329Y-81919970D01*
X134335150Y-81909480D01*
X134314107Y-81896868D01*
X134294401Y-81882253D01*
X134276223Y-81865777D01*
X134259747Y-81847599D01*
X134245132Y-81827893D01*
X134232520Y-81806850D01*
X134222030Y-81784671D01*
X134213765Y-81761572D01*
X134207804Y-81737773D01*
X134204204Y-81713505D01*
X134203000Y-81689001D01*
X134203000Y-80788999D01*
X134204204Y-80764495D01*
X134207804Y-80740227D01*
X134213765Y-80716428D01*
X134222030Y-80693329D01*
X134232520Y-80671150D01*
X134245132Y-80650107D01*
X134259747Y-80630401D01*
X134276223Y-80612223D01*
X134294401Y-80595747D01*
X134314107Y-80581132D01*
X134335150Y-80568520D01*
X134357329Y-80558030D01*
X134380428Y-80549765D01*
X134404227Y-80543804D01*
X134428495Y-80540204D01*
X134452999Y-80539000D01*
X135103001Y-80539000D01*
X135127505Y-80540204D01*
X135127505Y-80540204D01*
G37*
D11*
X134778000Y-81239000D03*
D10*
G36*
X139027505Y-77250204D02*
G01*
X139051773Y-77253804D01*
X139075572Y-77259765D01*
X139098671Y-77268030D01*
X139120850Y-77278520D01*
X139141893Y-77291132D01*
X139161599Y-77305747D01*
X139179777Y-77322223D01*
X139196253Y-77340401D01*
X139210868Y-77360107D01*
X139223480Y-77381150D01*
X139233970Y-77403329D01*
X139242235Y-77426428D01*
X139248196Y-77450227D01*
X139251796Y-77474495D01*
X139253000Y-77498999D01*
X139253000Y-78399001D01*
X139251796Y-78423505D01*
X139248196Y-78447773D01*
X139242235Y-78471572D01*
X139233970Y-78494671D01*
X139223480Y-78516850D01*
X139210868Y-78537893D01*
X139196253Y-78557599D01*
X139179777Y-78575777D01*
X139161599Y-78592253D01*
X139141893Y-78606868D01*
X139120850Y-78619480D01*
X139098671Y-78629970D01*
X139075572Y-78638235D01*
X139051773Y-78644196D01*
X139027505Y-78647796D01*
X139003001Y-78649000D01*
X138352999Y-78649000D01*
X138328495Y-78647796D01*
X138304227Y-78644196D01*
X138280428Y-78638235D01*
X138257329Y-78629970D01*
X138235150Y-78619480D01*
X138214107Y-78606868D01*
X138194401Y-78592253D01*
X138176223Y-78575777D01*
X138159747Y-78557599D01*
X138145132Y-78537893D01*
X138132520Y-78516850D01*
X138122030Y-78494671D01*
X138113765Y-78471572D01*
X138107804Y-78447773D01*
X138104204Y-78423505D01*
X138103000Y-78399001D01*
X138103000Y-77498999D01*
X138104204Y-77474495D01*
X138107804Y-77450227D01*
X138113765Y-77426428D01*
X138122030Y-77403329D01*
X138132520Y-77381150D01*
X138145132Y-77360107D01*
X138159747Y-77340401D01*
X138176223Y-77322223D01*
X138194401Y-77305747D01*
X138214107Y-77291132D01*
X138235150Y-77278520D01*
X138257329Y-77268030D01*
X138280428Y-77259765D01*
X138304227Y-77253804D01*
X138328495Y-77250204D01*
X138352999Y-77249000D01*
X139003001Y-77249000D01*
X139027505Y-77250204D01*
X139027505Y-77250204D01*
G37*
D11*
X138678000Y-77949000D03*
D10*
G36*
X141077505Y-77250204D02*
G01*
X141101773Y-77253804D01*
X141125572Y-77259765D01*
X141148671Y-77268030D01*
X141170850Y-77278520D01*
X141191893Y-77291132D01*
X141211599Y-77305747D01*
X141229777Y-77322223D01*
X141246253Y-77340401D01*
X141260868Y-77360107D01*
X141273480Y-77381150D01*
X141283970Y-77403329D01*
X141292235Y-77426428D01*
X141298196Y-77450227D01*
X141301796Y-77474495D01*
X141303000Y-77498999D01*
X141303000Y-78399001D01*
X141301796Y-78423505D01*
X141298196Y-78447773D01*
X141292235Y-78471572D01*
X141283970Y-78494671D01*
X141273480Y-78516850D01*
X141260868Y-78537893D01*
X141246253Y-78557599D01*
X141229777Y-78575777D01*
X141211599Y-78592253D01*
X141191893Y-78606868D01*
X141170850Y-78619480D01*
X141148671Y-78629970D01*
X141125572Y-78638235D01*
X141101773Y-78644196D01*
X141077505Y-78647796D01*
X141053001Y-78649000D01*
X140402999Y-78649000D01*
X140378495Y-78647796D01*
X140354227Y-78644196D01*
X140330428Y-78638235D01*
X140307329Y-78629970D01*
X140285150Y-78619480D01*
X140264107Y-78606868D01*
X140244401Y-78592253D01*
X140226223Y-78575777D01*
X140209747Y-78557599D01*
X140195132Y-78537893D01*
X140182520Y-78516850D01*
X140172030Y-78494671D01*
X140163765Y-78471572D01*
X140157804Y-78447773D01*
X140154204Y-78423505D01*
X140153000Y-78399001D01*
X140153000Y-77498999D01*
X140154204Y-77474495D01*
X140157804Y-77450227D01*
X140163765Y-77426428D01*
X140172030Y-77403329D01*
X140182520Y-77381150D01*
X140195132Y-77360107D01*
X140209747Y-77340401D01*
X140226223Y-77322223D01*
X140244401Y-77305747D01*
X140264107Y-77291132D01*
X140285150Y-77278520D01*
X140307329Y-77268030D01*
X140330428Y-77259765D01*
X140354227Y-77253804D01*
X140378495Y-77250204D01*
X140402999Y-77249000D01*
X141053001Y-77249000D01*
X141077505Y-77250204D01*
X141077505Y-77250204D01*
G37*
D11*
X140728000Y-77949000D03*
D10*
G36*
X96699505Y-45860204D02*
G01*
X96723773Y-45863804D01*
X96747572Y-45869765D01*
X96770671Y-45878030D01*
X96792850Y-45888520D01*
X96813893Y-45901132D01*
X96833599Y-45915747D01*
X96851777Y-45932223D01*
X96868253Y-45950401D01*
X96882868Y-45970107D01*
X96895480Y-45991150D01*
X96905970Y-46013329D01*
X96914235Y-46036428D01*
X96920196Y-46060227D01*
X96923796Y-46084495D01*
X96925000Y-46108999D01*
X96925000Y-47009001D01*
X96923796Y-47033505D01*
X96920196Y-47057773D01*
X96914235Y-47081572D01*
X96905970Y-47104671D01*
X96895480Y-47126850D01*
X96882868Y-47147893D01*
X96868253Y-47167599D01*
X96851777Y-47185777D01*
X96833599Y-47202253D01*
X96813893Y-47216868D01*
X96792850Y-47229480D01*
X96770671Y-47239970D01*
X96747572Y-47248235D01*
X96723773Y-47254196D01*
X96699505Y-47257796D01*
X96675001Y-47259000D01*
X96024999Y-47259000D01*
X96000495Y-47257796D01*
X95976227Y-47254196D01*
X95952428Y-47248235D01*
X95929329Y-47239970D01*
X95907150Y-47229480D01*
X95886107Y-47216868D01*
X95866401Y-47202253D01*
X95848223Y-47185777D01*
X95831747Y-47167599D01*
X95817132Y-47147893D01*
X95804520Y-47126850D01*
X95794030Y-47104671D01*
X95785765Y-47081572D01*
X95779804Y-47057773D01*
X95776204Y-47033505D01*
X95775000Y-47009001D01*
X95775000Y-46108999D01*
X95776204Y-46084495D01*
X95779804Y-46060227D01*
X95785765Y-46036428D01*
X95794030Y-46013329D01*
X95804520Y-45991150D01*
X95817132Y-45970107D01*
X95831747Y-45950401D01*
X95848223Y-45932223D01*
X95866401Y-45915747D01*
X95886107Y-45901132D01*
X95907150Y-45888520D01*
X95929329Y-45878030D01*
X95952428Y-45869765D01*
X95976227Y-45863804D01*
X96000495Y-45860204D01*
X96024999Y-45859000D01*
X96675001Y-45859000D01*
X96699505Y-45860204D01*
X96699505Y-45860204D01*
G37*
D11*
X96350000Y-46559000D03*
D10*
G36*
X94649505Y-45860204D02*
G01*
X94673773Y-45863804D01*
X94697572Y-45869765D01*
X94720671Y-45878030D01*
X94742850Y-45888520D01*
X94763893Y-45901132D01*
X94783599Y-45915747D01*
X94801777Y-45932223D01*
X94818253Y-45950401D01*
X94832868Y-45970107D01*
X94845480Y-45991150D01*
X94855970Y-46013329D01*
X94864235Y-46036428D01*
X94870196Y-46060227D01*
X94873796Y-46084495D01*
X94875000Y-46108999D01*
X94875000Y-47009001D01*
X94873796Y-47033505D01*
X94870196Y-47057773D01*
X94864235Y-47081572D01*
X94855970Y-47104671D01*
X94845480Y-47126850D01*
X94832868Y-47147893D01*
X94818253Y-47167599D01*
X94801777Y-47185777D01*
X94783599Y-47202253D01*
X94763893Y-47216868D01*
X94742850Y-47229480D01*
X94720671Y-47239970D01*
X94697572Y-47248235D01*
X94673773Y-47254196D01*
X94649505Y-47257796D01*
X94625001Y-47259000D01*
X93974999Y-47259000D01*
X93950495Y-47257796D01*
X93926227Y-47254196D01*
X93902428Y-47248235D01*
X93879329Y-47239970D01*
X93857150Y-47229480D01*
X93836107Y-47216868D01*
X93816401Y-47202253D01*
X93798223Y-47185777D01*
X93781747Y-47167599D01*
X93767132Y-47147893D01*
X93754520Y-47126850D01*
X93744030Y-47104671D01*
X93735765Y-47081572D01*
X93729804Y-47057773D01*
X93726204Y-47033505D01*
X93725000Y-47009001D01*
X93725000Y-46108999D01*
X93726204Y-46084495D01*
X93729804Y-46060227D01*
X93735765Y-46036428D01*
X93744030Y-46013329D01*
X93754520Y-45991150D01*
X93767132Y-45970107D01*
X93781747Y-45950401D01*
X93798223Y-45932223D01*
X93816401Y-45915747D01*
X93836107Y-45901132D01*
X93857150Y-45888520D01*
X93879329Y-45878030D01*
X93902428Y-45869765D01*
X93926227Y-45863804D01*
X93950495Y-45860204D01*
X93974999Y-45859000D01*
X94625001Y-45859000D01*
X94649505Y-45860204D01*
X94649505Y-45860204D01*
G37*
D11*
X94300000Y-46559000D03*
D10*
G36*
X61906505Y-43810204D02*
G01*
X61930773Y-43813804D01*
X61954572Y-43819765D01*
X61977671Y-43828030D01*
X61999850Y-43838520D01*
X62020893Y-43851132D01*
X62040599Y-43865747D01*
X62058777Y-43882223D01*
X62075253Y-43900401D01*
X62089868Y-43920107D01*
X62102480Y-43941150D01*
X62112970Y-43963329D01*
X62121235Y-43986428D01*
X62127196Y-44010227D01*
X62130796Y-44034495D01*
X62132000Y-44058999D01*
X62132000Y-44709001D01*
X62130796Y-44733505D01*
X62127196Y-44757773D01*
X62121235Y-44781572D01*
X62112970Y-44804671D01*
X62102480Y-44826850D01*
X62089868Y-44847893D01*
X62075253Y-44867599D01*
X62058777Y-44885777D01*
X62040599Y-44902253D01*
X62020893Y-44916868D01*
X61999850Y-44929480D01*
X61977671Y-44939970D01*
X61954572Y-44948235D01*
X61930773Y-44954196D01*
X61906505Y-44957796D01*
X61882001Y-44959000D01*
X60981999Y-44959000D01*
X60957495Y-44957796D01*
X60933227Y-44954196D01*
X60909428Y-44948235D01*
X60886329Y-44939970D01*
X60864150Y-44929480D01*
X60843107Y-44916868D01*
X60823401Y-44902253D01*
X60805223Y-44885777D01*
X60788747Y-44867599D01*
X60774132Y-44847893D01*
X60761520Y-44826850D01*
X60751030Y-44804671D01*
X60742765Y-44781572D01*
X60736804Y-44757773D01*
X60733204Y-44733505D01*
X60732000Y-44709001D01*
X60732000Y-44058999D01*
X60733204Y-44034495D01*
X60736804Y-44010227D01*
X60742765Y-43986428D01*
X60751030Y-43963329D01*
X60761520Y-43941150D01*
X60774132Y-43920107D01*
X60788747Y-43900401D01*
X60805223Y-43882223D01*
X60823401Y-43865747D01*
X60843107Y-43851132D01*
X60864150Y-43838520D01*
X60886329Y-43828030D01*
X60909428Y-43819765D01*
X60933227Y-43813804D01*
X60957495Y-43810204D01*
X60981999Y-43809000D01*
X61882001Y-43809000D01*
X61906505Y-43810204D01*
X61906505Y-43810204D01*
G37*
D11*
X61432000Y-44384000D03*
D10*
G36*
X61906505Y-41760204D02*
G01*
X61930773Y-41763804D01*
X61954572Y-41769765D01*
X61977671Y-41778030D01*
X61999850Y-41788520D01*
X62020893Y-41801132D01*
X62040599Y-41815747D01*
X62058777Y-41832223D01*
X62075253Y-41850401D01*
X62089868Y-41870107D01*
X62102480Y-41891150D01*
X62112970Y-41913329D01*
X62121235Y-41936428D01*
X62127196Y-41960227D01*
X62130796Y-41984495D01*
X62132000Y-42008999D01*
X62132000Y-42659001D01*
X62130796Y-42683505D01*
X62127196Y-42707773D01*
X62121235Y-42731572D01*
X62112970Y-42754671D01*
X62102480Y-42776850D01*
X62089868Y-42797893D01*
X62075253Y-42817599D01*
X62058777Y-42835777D01*
X62040599Y-42852253D01*
X62020893Y-42866868D01*
X61999850Y-42879480D01*
X61977671Y-42889970D01*
X61954572Y-42898235D01*
X61930773Y-42904196D01*
X61906505Y-42907796D01*
X61882001Y-42909000D01*
X60981999Y-42909000D01*
X60957495Y-42907796D01*
X60933227Y-42904196D01*
X60909428Y-42898235D01*
X60886329Y-42889970D01*
X60864150Y-42879480D01*
X60843107Y-42866868D01*
X60823401Y-42852253D01*
X60805223Y-42835777D01*
X60788747Y-42817599D01*
X60774132Y-42797893D01*
X60761520Y-42776850D01*
X60751030Y-42754671D01*
X60742765Y-42731572D01*
X60736804Y-42707773D01*
X60733204Y-42683505D01*
X60732000Y-42659001D01*
X60732000Y-42008999D01*
X60733204Y-41984495D01*
X60736804Y-41960227D01*
X60742765Y-41936428D01*
X60751030Y-41913329D01*
X60761520Y-41891150D01*
X60774132Y-41870107D01*
X60788747Y-41850401D01*
X60805223Y-41832223D01*
X60823401Y-41815747D01*
X60843107Y-41801132D01*
X60864150Y-41788520D01*
X60886329Y-41778030D01*
X60909428Y-41769765D01*
X60933227Y-41763804D01*
X60957495Y-41760204D01*
X60981999Y-41759000D01*
X61882001Y-41759000D01*
X61906505Y-41760204D01*
X61906505Y-41760204D01*
G37*
D11*
X61432000Y-42334000D03*
D10*
G36*
X73967505Y-43810204D02*
G01*
X73991773Y-43813804D01*
X74015572Y-43819765D01*
X74038671Y-43828030D01*
X74060850Y-43838520D01*
X74081893Y-43851132D01*
X74101599Y-43865747D01*
X74119777Y-43882223D01*
X74136253Y-43900401D01*
X74150868Y-43920107D01*
X74163480Y-43941150D01*
X74173970Y-43963329D01*
X74182235Y-43986428D01*
X74188196Y-44010227D01*
X74191796Y-44034495D01*
X74193000Y-44058999D01*
X74193000Y-44709001D01*
X74191796Y-44733505D01*
X74188196Y-44757773D01*
X74182235Y-44781572D01*
X74173970Y-44804671D01*
X74163480Y-44826850D01*
X74150868Y-44847893D01*
X74136253Y-44867599D01*
X74119777Y-44885777D01*
X74101599Y-44902253D01*
X74081893Y-44916868D01*
X74060850Y-44929480D01*
X74038671Y-44939970D01*
X74015572Y-44948235D01*
X73991773Y-44954196D01*
X73967505Y-44957796D01*
X73943001Y-44959000D01*
X73042999Y-44959000D01*
X73018495Y-44957796D01*
X72994227Y-44954196D01*
X72970428Y-44948235D01*
X72947329Y-44939970D01*
X72925150Y-44929480D01*
X72904107Y-44916868D01*
X72884401Y-44902253D01*
X72866223Y-44885777D01*
X72849747Y-44867599D01*
X72835132Y-44847893D01*
X72822520Y-44826850D01*
X72812030Y-44804671D01*
X72803765Y-44781572D01*
X72797804Y-44757773D01*
X72794204Y-44733505D01*
X72793000Y-44709001D01*
X72793000Y-44058999D01*
X72794204Y-44034495D01*
X72797804Y-44010227D01*
X72803765Y-43986428D01*
X72812030Y-43963329D01*
X72822520Y-43941150D01*
X72835132Y-43920107D01*
X72849747Y-43900401D01*
X72866223Y-43882223D01*
X72884401Y-43865747D01*
X72904107Y-43851132D01*
X72925150Y-43838520D01*
X72947329Y-43828030D01*
X72970428Y-43819765D01*
X72994227Y-43813804D01*
X73018495Y-43810204D01*
X73042999Y-43809000D01*
X73943001Y-43809000D01*
X73967505Y-43810204D01*
X73967505Y-43810204D01*
G37*
D11*
X73493000Y-44384000D03*
D10*
G36*
X73967505Y-41760204D02*
G01*
X73991773Y-41763804D01*
X74015572Y-41769765D01*
X74038671Y-41778030D01*
X74060850Y-41788520D01*
X74081893Y-41801132D01*
X74101599Y-41815747D01*
X74119777Y-41832223D01*
X74136253Y-41850401D01*
X74150868Y-41870107D01*
X74163480Y-41891150D01*
X74173970Y-41913329D01*
X74182235Y-41936428D01*
X74188196Y-41960227D01*
X74191796Y-41984495D01*
X74193000Y-42008999D01*
X74193000Y-42659001D01*
X74191796Y-42683505D01*
X74188196Y-42707773D01*
X74182235Y-42731572D01*
X74173970Y-42754671D01*
X74163480Y-42776850D01*
X74150868Y-42797893D01*
X74136253Y-42817599D01*
X74119777Y-42835777D01*
X74101599Y-42852253D01*
X74081893Y-42866868D01*
X74060850Y-42879480D01*
X74038671Y-42889970D01*
X74015572Y-42898235D01*
X73991773Y-42904196D01*
X73967505Y-42907796D01*
X73943001Y-42909000D01*
X73042999Y-42909000D01*
X73018495Y-42907796D01*
X72994227Y-42904196D01*
X72970428Y-42898235D01*
X72947329Y-42889970D01*
X72925150Y-42879480D01*
X72904107Y-42866868D01*
X72884401Y-42852253D01*
X72866223Y-42835777D01*
X72849747Y-42817599D01*
X72835132Y-42797893D01*
X72822520Y-42776850D01*
X72812030Y-42754671D01*
X72803765Y-42731572D01*
X72797804Y-42707773D01*
X72794204Y-42683505D01*
X72793000Y-42659001D01*
X72793000Y-42008999D01*
X72794204Y-41984495D01*
X72797804Y-41960227D01*
X72803765Y-41936428D01*
X72812030Y-41913329D01*
X72822520Y-41891150D01*
X72835132Y-41870107D01*
X72849747Y-41850401D01*
X72866223Y-41832223D01*
X72884401Y-41815747D01*
X72904107Y-41801132D01*
X72925150Y-41788520D01*
X72947329Y-41778030D01*
X72970428Y-41769765D01*
X72994227Y-41763804D01*
X73018495Y-41760204D01*
X73042999Y-41759000D01*
X73943001Y-41759000D01*
X73967505Y-41760204D01*
X73967505Y-41760204D01*
G37*
D11*
X73493000Y-42334000D03*
D10*
G36*
X60985505Y-55395204D02*
G01*
X61009773Y-55398804D01*
X61033572Y-55404765D01*
X61056671Y-55413030D01*
X61078850Y-55423520D01*
X61099893Y-55436132D01*
X61119599Y-55450747D01*
X61137777Y-55467223D01*
X61154253Y-55485401D01*
X61168868Y-55505107D01*
X61181480Y-55526150D01*
X61191970Y-55548329D01*
X61200235Y-55571428D01*
X61206196Y-55595227D01*
X61209796Y-55619495D01*
X61211000Y-55643999D01*
X61211000Y-56294001D01*
X61209796Y-56318505D01*
X61206196Y-56342773D01*
X61200235Y-56366572D01*
X61191970Y-56389671D01*
X61181480Y-56411850D01*
X61168868Y-56432893D01*
X61154253Y-56452599D01*
X61137777Y-56470777D01*
X61119599Y-56487253D01*
X61099893Y-56501868D01*
X61078850Y-56514480D01*
X61056671Y-56524970D01*
X61033572Y-56533235D01*
X61009773Y-56539196D01*
X60985505Y-56542796D01*
X60961001Y-56544000D01*
X60060999Y-56544000D01*
X60036495Y-56542796D01*
X60012227Y-56539196D01*
X59988428Y-56533235D01*
X59965329Y-56524970D01*
X59943150Y-56514480D01*
X59922107Y-56501868D01*
X59902401Y-56487253D01*
X59884223Y-56470777D01*
X59867747Y-56452599D01*
X59853132Y-56432893D01*
X59840520Y-56411850D01*
X59830030Y-56389671D01*
X59821765Y-56366572D01*
X59815804Y-56342773D01*
X59812204Y-56318505D01*
X59811000Y-56294001D01*
X59811000Y-55643999D01*
X59812204Y-55619495D01*
X59815804Y-55595227D01*
X59821765Y-55571428D01*
X59830030Y-55548329D01*
X59840520Y-55526150D01*
X59853132Y-55505107D01*
X59867747Y-55485401D01*
X59884223Y-55467223D01*
X59902401Y-55450747D01*
X59922107Y-55436132D01*
X59943150Y-55423520D01*
X59965329Y-55413030D01*
X59988428Y-55404765D01*
X60012227Y-55398804D01*
X60036495Y-55395204D01*
X60060999Y-55394000D01*
X60961001Y-55394000D01*
X60985505Y-55395204D01*
X60985505Y-55395204D01*
G37*
D11*
X60511000Y-55969000D03*
D10*
G36*
X60985505Y-53345204D02*
G01*
X61009773Y-53348804D01*
X61033572Y-53354765D01*
X61056671Y-53363030D01*
X61078850Y-53373520D01*
X61099893Y-53386132D01*
X61119599Y-53400747D01*
X61137777Y-53417223D01*
X61154253Y-53435401D01*
X61168868Y-53455107D01*
X61181480Y-53476150D01*
X61191970Y-53498329D01*
X61200235Y-53521428D01*
X61206196Y-53545227D01*
X61209796Y-53569495D01*
X61211000Y-53593999D01*
X61211000Y-54244001D01*
X61209796Y-54268505D01*
X61206196Y-54292773D01*
X61200235Y-54316572D01*
X61191970Y-54339671D01*
X61181480Y-54361850D01*
X61168868Y-54382893D01*
X61154253Y-54402599D01*
X61137777Y-54420777D01*
X61119599Y-54437253D01*
X61099893Y-54451868D01*
X61078850Y-54464480D01*
X61056671Y-54474970D01*
X61033572Y-54483235D01*
X61009773Y-54489196D01*
X60985505Y-54492796D01*
X60961001Y-54494000D01*
X60060999Y-54494000D01*
X60036495Y-54492796D01*
X60012227Y-54489196D01*
X59988428Y-54483235D01*
X59965329Y-54474970D01*
X59943150Y-54464480D01*
X59922107Y-54451868D01*
X59902401Y-54437253D01*
X59884223Y-54420777D01*
X59867747Y-54402599D01*
X59853132Y-54382893D01*
X59840520Y-54361850D01*
X59830030Y-54339671D01*
X59821765Y-54316572D01*
X59815804Y-54292773D01*
X59812204Y-54268505D01*
X59811000Y-54244001D01*
X59811000Y-53593999D01*
X59812204Y-53569495D01*
X59815804Y-53545227D01*
X59821765Y-53521428D01*
X59830030Y-53498329D01*
X59840520Y-53476150D01*
X59853132Y-53455107D01*
X59867747Y-53435401D01*
X59884223Y-53417223D01*
X59902401Y-53400747D01*
X59922107Y-53386132D01*
X59943150Y-53373520D01*
X59965329Y-53363030D01*
X59988428Y-53354765D01*
X60012227Y-53348804D01*
X60036495Y-53345204D01*
X60060999Y-53344000D01*
X60961001Y-53344000D01*
X60985505Y-53345204D01*
X60985505Y-53345204D01*
G37*
D11*
X60511000Y-53919000D03*
D10*
G36*
X68864505Y-46564204D02*
G01*
X68888773Y-46567804D01*
X68912572Y-46573765D01*
X68935671Y-46582030D01*
X68957850Y-46592520D01*
X68978893Y-46605132D01*
X68998599Y-46619747D01*
X69016777Y-46636223D01*
X69033253Y-46654401D01*
X69047868Y-46674107D01*
X69060480Y-46695150D01*
X69070970Y-46717329D01*
X69079235Y-46740428D01*
X69085196Y-46764227D01*
X69088796Y-46788495D01*
X69090000Y-46812999D01*
X69090000Y-47713001D01*
X69088796Y-47737505D01*
X69085196Y-47761773D01*
X69079235Y-47785572D01*
X69070970Y-47808671D01*
X69060480Y-47830850D01*
X69047868Y-47851893D01*
X69033253Y-47871599D01*
X69016777Y-47889777D01*
X68998599Y-47906253D01*
X68978893Y-47920868D01*
X68957850Y-47933480D01*
X68935671Y-47943970D01*
X68912572Y-47952235D01*
X68888773Y-47958196D01*
X68864505Y-47961796D01*
X68840001Y-47963000D01*
X68189999Y-47963000D01*
X68165495Y-47961796D01*
X68141227Y-47958196D01*
X68117428Y-47952235D01*
X68094329Y-47943970D01*
X68072150Y-47933480D01*
X68051107Y-47920868D01*
X68031401Y-47906253D01*
X68013223Y-47889777D01*
X67996747Y-47871599D01*
X67982132Y-47851893D01*
X67969520Y-47830850D01*
X67959030Y-47808671D01*
X67950765Y-47785572D01*
X67944804Y-47761773D01*
X67941204Y-47737505D01*
X67940000Y-47713001D01*
X67940000Y-46812999D01*
X67941204Y-46788495D01*
X67944804Y-46764227D01*
X67950765Y-46740428D01*
X67959030Y-46717329D01*
X67969520Y-46695150D01*
X67982132Y-46674107D01*
X67996747Y-46654401D01*
X68013223Y-46636223D01*
X68031401Y-46619747D01*
X68051107Y-46605132D01*
X68072150Y-46592520D01*
X68094329Y-46582030D01*
X68117428Y-46573765D01*
X68141227Y-46567804D01*
X68165495Y-46564204D01*
X68189999Y-46563000D01*
X68840001Y-46563000D01*
X68864505Y-46564204D01*
X68864505Y-46564204D01*
G37*
D11*
X68515000Y-47263000D03*
D10*
G36*
X66814505Y-46564204D02*
G01*
X66838773Y-46567804D01*
X66862572Y-46573765D01*
X66885671Y-46582030D01*
X66907850Y-46592520D01*
X66928893Y-46605132D01*
X66948599Y-46619747D01*
X66966777Y-46636223D01*
X66983253Y-46654401D01*
X66997868Y-46674107D01*
X67010480Y-46695150D01*
X67020970Y-46717329D01*
X67029235Y-46740428D01*
X67035196Y-46764227D01*
X67038796Y-46788495D01*
X67040000Y-46812999D01*
X67040000Y-47713001D01*
X67038796Y-47737505D01*
X67035196Y-47761773D01*
X67029235Y-47785572D01*
X67020970Y-47808671D01*
X67010480Y-47830850D01*
X66997868Y-47851893D01*
X66983253Y-47871599D01*
X66966777Y-47889777D01*
X66948599Y-47906253D01*
X66928893Y-47920868D01*
X66907850Y-47933480D01*
X66885671Y-47943970D01*
X66862572Y-47952235D01*
X66838773Y-47958196D01*
X66814505Y-47961796D01*
X66790001Y-47963000D01*
X66139999Y-47963000D01*
X66115495Y-47961796D01*
X66091227Y-47958196D01*
X66067428Y-47952235D01*
X66044329Y-47943970D01*
X66022150Y-47933480D01*
X66001107Y-47920868D01*
X65981401Y-47906253D01*
X65963223Y-47889777D01*
X65946747Y-47871599D01*
X65932132Y-47851893D01*
X65919520Y-47830850D01*
X65909030Y-47808671D01*
X65900765Y-47785572D01*
X65894804Y-47761773D01*
X65891204Y-47737505D01*
X65890000Y-47713001D01*
X65890000Y-46812999D01*
X65891204Y-46788495D01*
X65894804Y-46764227D01*
X65900765Y-46740428D01*
X65909030Y-46717329D01*
X65919520Y-46695150D01*
X65932132Y-46674107D01*
X65946747Y-46654401D01*
X65963223Y-46636223D01*
X65981401Y-46619747D01*
X66001107Y-46605132D01*
X66022150Y-46592520D01*
X66044329Y-46582030D01*
X66067428Y-46573765D01*
X66091227Y-46567804D01*
X66115495Y-46564204D01*
X66139999Y-46563000D01*
X66790001Y-46563000D01*
X66814505Y-46564204D01*
X66814505Y-46564204D01*
G37*
D11*
X66465000Y-47263000D03*
D10*
G36*
X60600505Y-50355204D02*
G01*
X60624773Y-50358804D01*
X60648572Y-50364765D01*
X60671671Y-50373030D01*
X60693850Y-50383520D01*
X60714893Y-50396132D01*
X60734599Y-50410747D01*
X60752777Y-50427223D01*
X60769253Y-50445401D01*
X60783868Y-50465107D01*
X60796480Y-50486150D01*
X60806970Y-50508329D01*
X60815235Y-50531428D01*
X60821196Y-50555227D01*
X60824796Y-50579495D01*
X60826000Y-50603999D01*
X60826000Y-51254001D01*
X60824796Y-51278505D01*
X60821196Y-51302773D01*
X60815235Y-51326572D01*
X60806970Y-51349671D01*
X60796480Y-51371850D01*
X60783868Y-51392893D01*
X60769253Y-51412599D01*
X60752777Y-51430777D01*
X60734599Y-51447253D01*
X60714893Y-51461868D01*
X60693850Y-51474480D01*
X60671671Y-51484970D01*
X60648572Y-51493235D01*
X60624773Y-51499196D01*
X60600505Y-51502796D01*
X60576001Y-51504000D01*
X59675999Y-51504000D01*
X59651495Y-51502796D01*
X59627227Y-51499196D01*
X59603428Y-51493235D01*
X59580329Y-51484970D01*
X59558150Y-51474480D01*
X59537107Y-51461868D01*
X59517401Y-51447253D01*
X59499223Y-51430777D01*
X59482747Y-51412599D01*
X59468132Y-51392893D01*
X59455520Y-51371850D01*
X59445030Y-51349671D01*
X59436765Y-51326572D01*
X59430804Y-51302773D01*
X59427204Y-51278505D01*
X59426000Y-51254001D01*
X59426000Y-50603999D01*
X59427204Y-50579495D01*
X59430804Y-50555227D01*
X59436765Y-50531428D01*
X59445030Y-50508329D01*
X59455520Y-50486150D01*
X59468132Y-50465107D01*
X59482747Y-50445401D01*
X59499223Y-50427223D01*
X59517401Y-50410747D01*
X59537107Y-50396132D01*
X59558150Y-50383520D01*
X59580329Y-50373030D01*
X59603428Y-50364765D01*
X59627227Y-50358804D01*
X59651495Y-50355204D01*
X59675999Y-50354000D01*
X60576001Y-50354000D01*
X60600505Y-50355204D01*
X60600505Y-50355204D01*
G37*
D11*
X60126000Y-50929000D03*
D10*
G36*
X60600505Y-48305204D02*
G01*
X60624773Y-48308804D01*
X60648572Y-48314765D01*
X60671671Y-48323030D01*
X60693850Y-48333520D01*
X60714893Y-48346132D01*
X60734599Y-48360747D01*
X60752777Y-48377223D01*
X60769253Y-48395401D01*
X60783868Y-48415107D01*
X60796480Y-48436150D01*
X60806970Y-48458329D01*
X60815235Y-48481428D01*
X60821196Y-48505227D01*
X60824796Y-48529495D01*
X60826000Y-48553999D01*
X60826000Y-49204001D01*
X60824796Y-49228505D01*
X60821196Y-49252773D01*
X60815235Y-49276572D01*
X60806970Y-49299671D01*
X60796480Y-49321850D01*
X60783868Y-49342893D01*
X60769253Y-49362599D01*
X60752777Y-49380777D01*
X60734599Y-49397253D01*
X60714893Y-49411868D01*
X60693850Y-49424480D01*
X60671671Y-49434970D01*
X60648572Y-49443235D01*
X60624773Y-49449196D01*
X60600505Y-49452796D01*
X60576001Y-49454000D01*
X59675999Y-49454000D01*
X59651495Y-49452796D01*
X59627227Y-49449196D01*
X59603428Y-49443235D01*
X59580329Y-49434970D01*
X59558150Y-49424480D01*
X59537107Y-49411868D01*
X59517401Y-49397253D01*
X59499223Y-49380777D01*
X59482747Y-49362599D01*
X59468132Y-49342893D01*
X59455520Y-49321850D01*
X59445030Y-49299671D01*
X59436765Y-49276572D01*
X59430804Y-49252773D01*
X59427204Y-49228505D01*
X59426000Y-49204001D01*
X59426000Y-48553999D01*
X59427204Y-48529495D01*
X59430804Y-48505227D01*
X59436765Y-48481428D01*
X59445030Y-48458329D01*
X59455520Y-48436150D01*
X59468132Y-48415107D01*
X59482747Y-48395401D01*
X59499223Y-48377223D01*
X59517401Y-48360747D01*
X59537107Y-48346132D01*
X59558150Y-48333520D01*
X59580329Y-48323030D01*
X59603428Y-48314765D01*
X59627227Y-48308804D01*
X59651495Y-48305204D01*
X59675999Y-48304000D01*
X60576001Y-48304000D01*
X60600505Y-48305204D01*
X60600505Y-48305204D01*
G37*
D11*
X60126000Y-48879000D03*
D10*
G36*
X74610505Y-49324204D02*
G01*
X74634773Y-49327804D01*
X74658572Y-49333765D01*
X74681671Y-49342030D01*
X74703850Y-49352520D01*
X74724893Y-49365132D01*
X74744599Y-49379747D01*
X74762777Y-49396223D01*
X74779253Y-49414401D01*
X74793868Y-49434107D01*
X74806480Y-49455150D01*
X74816970Y-49477329D01*
X74825235Y-49500428D01*
X74831196Y-49524227D01*
X74834796Y-49548495D01*
X74836000Y-49572999D01*
X74836000Y-50223001D01*
X74834796Y-50247505D01*
X74831196Y-50271773D01*
X74825235Y-50295572D01*
X74816970Y-50318671D01*
X74806480Y-50340850D01*
X74793868Y-50361893D01*
X74779253Y-50381599D01*
X74762777Y-50399777D01*
X74744599Y-50416253D01*
X74724893Y-50430868D01*
X74703850Y-50443480D01*
X74681671Y-50453970D01*
X74658572Y-50462235D01*
X74634773Y-50468196D01*
X74610505Y-50471796D01*
X74586001Y-50473000D01*
X73685999Y-50473000D01*
X73661495Y-50471796D01*
X73637227Y-50468196D01*
X73613428Y-50462235D01*
X73590329Y-50453970D01*
X73568150Y-50443480D01*
X73547107Y-50430868D01*
X73527401Y-50416253D01*
X73509223Y-50399777D01*
X73492747Y-50381599D01*
X73478132Y-50361893D01*
X73465520Y-50340850D01*
X73455030Y-50318671D01*
X73446765Y-50295572D01*
X73440804Y-50271773D01*
X73437204Y-50247505D01*
X73436000Y-50223001D01*
X73436000Y-49572999D01*
X73437204Y-49548495D01*
X73440804Y-49524227D01*
X73446765Y-49500428D01*
X73455030Y-49477329D01*
X73465520Y-49455150D01*
X73478132Y-49434107D01*
X73492747Y-49414401D01*
X73509223Y-49396223D01*
X73527401Y-49379747D01*
X73547107Y-49365132D01*
X73568150Y-49352520D01*
X73590329Y-49342030D01*
X73613428Y-49333765D01*
X73637227Y-49327804D01*
X73661495Y-49324204D01*
X73685999Y-49323000D01*
X74586001Y-49323000D01*
X74610505Y-49324204D01*
X74610505Y-49324204D01*
G37*
D11*
X74136000Y-49898000D03*
D10*
G36*
X74610505Y-51374204D02*
G01*
X74634773Y-51377804D01*
X74658572Y-51383765D01*
X74681671Y-51392030D01*
X74703850Y-51402520D01*
X74724893Y-51415132D01*
X74744599Y-51429747D01*
X74762777Y-51446223D01*
X74779253Y-51464401D01*
X74793868Y-51484107D01*
X74806480Y-51505150D01*
X74816970Y-51527329D01*
X74825235Y-51550428D01*
X74831196Y-51574227D01*
X74834796Y-51598495D01*
X74836000Y-51622999D01*
X74836000Y-52273001D01*
X74834796Y-52297505D01*
X74831196Y-52321773D01*
X74825235Y-52345572D01*
X74816970Y-52368671D01*
X74806480Y-52390850D01*
X74793868Y-52411893D01*
X74779253Y-52431599D01*
X74762777Y-52449777D01*
X74744599Y-52466253D01*
X74724893Y-52480868D01*
X74703850Y-52493480D01*
X74681671Y-52503970D01*
X74658572Y-52512235D01*
X74634773Y-52518196D01*
X74610505Y-52521796D01*
X74586001Y-52523000D01*
X73685999Y-52523000D01*
X73661495Y-52521796D01*
X73637227Y-52518196D01*
X73613428Y-52512235D01*
X73590329Y-52503970D01*
X73568150Y-52493480D01*
X73547107Y-52480868D01*
X73527401Y-52466253D01*
X73509223Y-52449777D01*
X73492747Y-52431599D01*
X73478132Y-52411893D01*
X73465520Y-52390850D01*
X73455030Y-52368671D01*
X73446765Y-52345572D01*
X73440804Y-52321773D01*
X73437204Y-52297505D01*
X73436000Y-52273001D01*
X73436000Y-51622999D01*
X73437204Y-51598495D01*
X73440804Y-51574227D01*
X73446765Y-51550428D01*
X73455030Y-51527329D01*
X73465520Y-51505150D01*
X73478132Y-51484107D01*
X73492747Y-51464401D01*
X73509223Y-51446223D01*
X73527401Y-51429747D01*
X73547107Y-51415132D01*
X73568150Y-51402520D01*
X73590329Y-51392030D01*
X73613428Y-51383765D01*
X73637227Y-51377804D01*
X73661495Y-51374204D01*
X73685999Y-51373000D01*
X74586001Y-51373000D01*
X74610505Y-51374204D01*
X74610505Y-51374204D01*
G37*
D11*
X74136000Y-51948000D03*
D10*
G36*
X75577505Y-59123204D02*
G01*
X75601773Y-59126804D01*
X75625572Y-59132765D01*
X75648671Y-59141030D01*
X75670850Y-59151520D01*
X75691893Y-59164132D01*
X75711599Y-59178747D01*
X75729777Y-59195223D01*
X75746253Y-59213401D01*
X75760868Y-59233107D01*
X75773480Y-59254150D01*
X75783970Y-59276329D01*
X75792235Y-59299428D01*
X75798196Y-59323227D01*
X75801796Y-59347495D01*
X75803000Y-59371999D01*
X75803000Y-60272001D01*
X75801796Y-60296505D01*
X75798196Y-60320773D01*
X75792235Y-60344572D01*
X75783970Y-60367671D01*
X75773480Y-60389850D01*
X75760868Y-60410893D01*
X75746253Y-60430599D01*
X75729777Y-60448777D01*
X75711599Y-60465253D01*
X75691893Y-60479868D01*
X75670850Y-60492480D01*
X75648671Y-60502970D01*
X75625572Y-60511235D01*
X75601773Y-60517196D01*
X75577505Y-60520796D01*
X75553001Y-60522000D01*
X74902999Y-60522000D01*
X74878495Y-60520796D01*
X74854227Y-60517196D01*
X74830428Y-60511235D01*
X74807329Y-60502970D01*
X74785150Y-60492480D01*
X74764107Y-60479868D01*
X74744401Y-60465253D01*
X74726223Y-60448777D01*
X74709747Y-60430599D01*
X74695132Y-60410893D01*
X74682520Y-60389850D01*
X74672030Y-60367671D01*
X74663765Y-60344572D01*
X74657804Y-60320773D01*
X74654204Y-60296505D01*
X74653000Y-60272001D01*
X74653000Y-59371999D01*
X74654204Y-59347495D01*
X74657804Y-59323227D01*
X74663765Y-59299428D01*
X74672030Y-59276329D01*
X74682520Y-59254150D01*
X74695132Y-59233107D01*
X74709747Y-59213401D01*
X74726223Y-59195223D01*
X74744401Y-59178747D01*
X74764107Y-59164132D01*
X74785150Y-59151520D01*
X74807329Y-59141030D01*
X74830428Y-59132765D01*
X74854227Y-59126804D01*
X74878495Y-59123204D01*
X74902999Y-59122000D01*
X75553001Y-59122000D01*
X75577505Y-59123204D01*
X75577505Y-59123204D01*
G37*
D11*
X75228000Y-59822000D03*
D10*
G36*
X73527505Y-59123204D02*
G01*
X73551773Y-59126804D01*
X73575572Y-59132765D01*
X73598671Y-59141030D01*
X73620850Y-59151520D01*
X73641893Y-59164132D01*
X73661599Y-59178747D01*
X73679777Y-59195223D01*
X73696253Y-59213401D01*
X73710868Y-59233107D01*
X73723480Y-59254150D01*
X73733970Y-59276329D01*
X73742235Y-59299428D01*
X73748196Y-59323227D01*
X73751796Y-59347495D01*
X73753000Y-59371999D01*
X73753000Y-60272001D01*
X73751796Y-60296505D01*
X73748196Y-60320773D01*
X73742235Y-60344572D01*
X73733970Y-60367671D01*
X73723480Y-60389850D01*
X73710868Y-60410893D01*
X73696253Y-60430599D01*
X73679777Y-60448777D01*
X73661599Y-60465253D01*
X73641893Y-60479868D01*
X73620850Y-60492480D01*
X73598671Y-60502970D01*
X73575572Y-60511235D01*
X73551773Y-60517196D01*
X73527505Y-60520796D01*
X73503001Y-60522000D01*
X72852999Y-60522000D01*
X72828495Y-60520796D01*
X72804227Y-60517196D01*
X72780428Y-60511235D01*
X72757329Y-60502970D01*
X72735150Y-60492480D01*
X72714107Y-60479868D01*
X72694401Y-60465253D01*
X72676223Y-60448777D01*
X72659747Y-60430599D01*
X72645132Y-60410893D01*
X72632520Y-60389850D01*
X72622030Y-60367671D01*
X72613765Y-60344572D01*
X72607804Y-60320773D01*
X72604204Y-60296505D01*
X72603000Y-60272001D01*
X72603000Y-59371999D01*
X72604204Y-59347495D01*
X72607804Y-59323227D01*
X72613765Y-59299428D01*
X72622030Y-59276329D01*
X72632520Y-59254150D01*
X72645132Y-59233107D01*
X72659747Y-59213401D01*
X72676223Y-59195223D01*
X72694401Y-59178747D01*
X72714107Y-59164132D01*
X72735150Y-59151520D01*
X72757329Y-59141030D01*
X72780428Y-59132765D01*
X72804227Y-59126804D01*
X72828495Y-59123204D01*
X72852999Y-59122000D01*
X73503001Y-59122000D01*
X73527505Y-59123204D01*
X73527505Y-59123204D01*
G37*
D11*
X73178000Y-59822000D03*
D10*
G36*
X75675505Y-55985204D02*
G01*
X75699773Y-55988804D01*
X75723572Y-55994765D01*
X75746671Y-56003030D01*
X75768850Y-56013520D01*
X75789893Y-56026132D01*
X75809599Y-56040747D01*
X75827777Y-56057223D01*
X75844253Y-56075401D01*
X75858868Y-56095107D01*
X75871480Y-56116150D01*
X75881970Y-56138329D01*
X75890235Y-56161428D01*
X75896196Y-56185227D01*
X75899796Y-56209495D01*
X75901000Y-56233999D01*
X75901000Y-57134001D01*
X75899796Y-57158505D01*
X75896196Y-57182773D01*
X75890235Y-57206572D01*
X75881970Y-57229671D01*
X75871480Y-57251850D01*
X75858868Y-57272893D01*
X75844253Y-57292599D01*
X75827777Y-57310777D01*
X75809599Y-57327253D01*
X75789893Y-57341868D01*
X75768850Y-57354480D01*
X75746671Y-57364970D01*
X75723572Y-57373235D01*
X75699773Y-57379196D01*
X75675505Y-57382796D01*
X75651001Y-57384000D01*
X75000999Y-57384000D01*
X74976495Y-57382796D01*
X74952227Y-57379196D01*
X74928428Y-57373235D01*
X74905329Y-57364970D01*
X74883150Y-57354480D01*
X74862107Y-57341868D01*
X74842401Y-57327253D01*
X74824223Y-57310777D01*
X74807747Y-57292599D01*
X74793132Y-57272893D01*
X74780520Y-57251850D01*
X74770030Y-57229671D01*
X74761765Y-57206572D01*
X74755804Y-57182773D01*
X74752204Y-57158505D01*
X74751000Y-57134001D01*
X74751000Y-56233999D01*
X74752204Y-56209495D01*
X74755804Y-56185227D01*
X74761765Y-56161428D01*
X74770030Y-56138329D01*
X74780520Y-56116150D01*
X74793132Y-56095107D01*
X74807747Y-56075401D01*
X74824223Y-56057223D01*
X74842401Y-56040747D01*
X74862107Y-56026132D01*
X74883150Y-56013520D01*
X74905329Y-56003030D01*
X74928428Y-55994765D01*
X74952227Y-55988804D01*
X74976495Y-55985204D01*
X75000999Y-55984000D01*
X75651001Y-55984000D01*
X75675505Y-55985204D01*
X75675505Y-55985204D01*
G37*
D11*
X75326000Y-56684000D03*
D10*
G36*
X73625505Y-55985204D02*
G01*
X73649773Y-55988804D01*
X73673572Y-55994765D01*
X73696671Y-56003030D01*
X73718850Y-56013520D01*
X73739893Y-56026132D01*
X73759599Y-56040747D01*
X73777777Y-56057223D01*
X73794253Y-56075401D01*
X73808868Y-56095107D01*
X73821480Y-56116150D01*
X73831970Y-56138329D01*
X73840235Y-56161428D01*
X73846196Y-56185227D01*
X73849796Y-56209495D01*
X73851000Y-56233999D01*
X73851000Y-57134001D01*
X73849796Y-57158505D01*
X73846196Y-57182773D01*
X73840235Y-57206572D01*
X73831970Y-57229671D01*
X73821480Y-57251850D01*
X73808868Y-57272893D01*
X73794253Y-57292599D01*
X73777777Y-57310777D01*
X73759599Y-57327253D01*
X73739893Y-57341868D01*
X73718850Y-57354480D01*
X73696671Y-57364970D01*
X73673572Y-57373235D01*
X73649773Y-57379196D01*
X73625505Y-57382796D01*
X73601001Y-57384000D01*
X72950999Y-57384000D01*
X72926495Y-57382796D01*
X72902227Y-57379196D01*
X72878428Y-57373235D01*
X72855329Y-57364970D01*
X72833150Y-57354480D01*
X72812107Y-57341868D01*
X72792401Y-57327253D01*
X72774223Y-57310777D01*
X72757747Y-57292599D01*
X72743132Y-57272893D01*
X72730520Y-57251850D01*
X72720030Y-57229671D01*
X72711765Y-57206572D01*
X72705804Y-57182773D01*
X72702204Y-57158505D01*
X72701000Y-57134001D01*
X72701000Y-56233999D01*
X72702204Y-56209495D01*
X72705804Y-56185227D01*
X72711765Y-56161428D01*
X72720030Y-56138329D01*
X72730520Y-56116150D01*
X72743132Y-56095107D01*
X72757747Y-56075401D01*
X72774223Y-56057223D01*
X72792401Y-56040747D01*
X72812107Y-56026132D01*
X72833150Y-56013520D01*
X72855329Y-56003030D01*
X72878428Y-55994765D01*
X72902227Y-55988804D01*
X72926495Y-55985204D01*
X72950999Y-55984000D01*
X73601001Y-55984000D01*
X73625505Y-55985204D01*
X73625505Y-55985204D01*
G37*
D11*
X73276000Y-56684000D03*
D10*
G36*
X132634505Y-40851204D02*
G01*
X132658773Y-40854804D01*
X132682572Y-40860765D01*
X132705671Y-40869030D01*
X132727850Y-40879520D01*
X132748893Y-40892132D01*
X132768599Y-40906747D01*
X132786777Y-40923223D01*
X132803253Y-40941401D01*
X132817868Y-40961107D01*
X132830480Y-40982150D01*
X132840970Y-41004329D01*
X132849235Y-41027428D01*
X132855196Y-41051227D01*
X132858796Y-41075495D01*
X132860000Y-41099999D01*
X132860000Y-42000001D01*
X132858796Y-42024505D01*
X132855196Y-42048773D01*
X132849235Y-42072572D01*
X132840970Y-42095671D01*
X132830480Y-42117850D01*
X132817868Y-42138893D01*
X132803253Y-42158599D01*
X132786777Y-42176777D01*
X132768599Y-42193253D01*
X132748893Y-42207868D01*
X132727850Y-42220480D01*
X132705671Y-42230970D01*
X132682572Y-42239235D01*
X132658773Y-42245196D01*
X132634505Y-42248796D01*
X132610001Y-42250000D01*
X131959999Y-42250000D01*
X131935495Y-42248796D01*
X131911227Y-42245196D01*
X131887428Y-42239235D01*
X131864329Y-42230970D01*
X131842150Y-42220480D01*
X131821107Y-42207868D01*
X131801401Y-42193253D01*
X131783223Y-42176777D01*
X131766747Y-42158599D01*
X131752132Y-42138893D01*
X131739520Y-42117850D01*
X131729030Y-42095671D01*
X131720765Y-42072572D01*
X131714804Y-42048773D01*
X131711204Y-42024505D01*
X131710000Y-42000001D01*
X131710000Y-41099999D01*
X131711204Y-41075495D01*
X131714804Y-41051227D01*
X131720765Y-41027428D01*
X131729030Y-41004329D01*
X131739520Y-40982150D01*
X131752132Y-40961107D01*
X131766747Y-40941401D01*
X131783223Y-40923223D01*
X131801401Y-40906747D01*
X131821107Y-40892132D01*
X131842150Y-40879520D01*
X131864329Y-40869030D01*
X131887428Y-40860765D01*
X131911227Y-40854804D01*
X131935495Y-40851204D01*
X131959999Y-40850000D01*
X132610001Y-40850000D01*
X132634505Y-40851204D01*
X132634505Y-40851204D01*
G37*
D11*
X132285000Y-41550000D03*
D10*
G36*
X134684505Y-40851204D02*
G01*
X134708773Y-40854804D01*
X134732572Y-40860765D01*
X134755671Y-40869030D01*
X134777850Y-40879520D01*
X134798893Y-40892132D01*
X134818599Y-40906747D01*
X134836777Y-40923223D01*
X134853253Y-40941401D01*
X134867868Y-40961107D01*
X134880480Y-40982150D01*
X134890970Y-41004329D01*
X134899235Y-41027428D01*
X134905196Y-41051227D01*
X134908796Y-41075495D01*
X134910000Y-41099999D01*
X134910000Y-42000001D01*
X134908796Y-42024505D01*
X134905196Y-42048773D01*
X134899235Y-42072572D01*
X134890970Y-42095671D01*
X134880480Y-42117850D01*
X134867868Y-42138893D01*
X134853253Y-42158599D01*
X134836777Y-42176777D01*
X134818599Y-42193253D01*
X134798893Y-42207868D01*
X134777850Y-42220480D01*
X134755671Y-42230970D01*
X134732572Y-42239235D01*
X134708773Y-42245196D01*
X134684505Y-42248796D01*
X134660001Y-42250000D01*
X134009999Y-42250000D01*
X133985495Y-42248796D01*
X133961227Y-42245196D01*
X133937428Y-42239235D01*
X133914329Y-42230970D01*
X133892150Y-42220480D01*
X133871107Y-42207868D01*
X133851401Y-42193253D01*
X133833223Y-42176777D01*
X133816747Y-42158599D01*
X133802132Y-42138893D01*
X133789520Y-42117850D01*
X133779030Y-42095671D01*
X133770765Y-42072572D01*
X133764804Y-42048773D01*
X133761204Y-42024505D01*
X133760000Y-42000001D01*
X133760000Y-41099999D01*
X133761204Y-41075495D01*
X133764804Y-41051227D01*
X133770765Y-41027428D01*
X133779030Y-41004329D01*
X133789520Y-40982150D01*
X133802132Y-40961107D01*
X133816747Y-40941401D01*
X133833223Y-40923223D01*
X133851401Y-40906747D01*
X133871107Y-40892132D01*
X133892150Y-40879520D01*
X133914329Y-40869030D01*
X133937428Y-40860765D01*
X133961227Y-40854804D01*
X133985495Y-40851204D01*
X134009999Y-40850000D01*
X134660001Y-40850000D01*
X134684505Y-40851204D01*
X134684505Y-40851204D01*
G37*
D11*
X134335000Y-41550000D03*
D10*
G36*
X134651505Y-45960204D02*
G01*
X134675773Y-45963804D01*
X134699572Y-45969765D01*
X134722671Y-45978030D01*
X134744850Y-45988520D01*
X134765893Y-46001132D01*
X134785599Y-46015747D01*
X134803777Y-46032223D01*
X134820253Y-46050401D01*
X134834868Y-46070107D01*
X134847480Y-46091150D01*
X134857970Y-46113329D01*
X134866235Y-46136428D01*
X134872196Y-46160227D01*
X134875796Y-46184495D01*
X134877000Y-46208999D01*
X134877000Y-47109001D01*
X134875796Y-47133505D01*
X134872196Y-47157773D01*
X134866235Y-47181572D01*
X134857970Y-47204671D01*
X134847480Y-47226850D01*
X134834868Y-47247893D01*
X134820253Y-47267599D01*
X134803777Y-47285777D01*
X134785599Y-47302253D01*
X134765893Y-47316868D01*
X134744850Y-47329480D01*
X134722671Y-47339970D01*
X134699572Y-47348235D01*
X134675773Y-47354196D01*
X134651505Y-47357796D01*
X134627001Y-47359000D01*
X133976999Y-47359000D01*
X133952495Y-47357796D01*
X133928227Y-47354196D01*
X133904428Y-47348235D01*
X133881329Y-47339970D01*
X133859150Y-47329480D01*
X133838107Y-47316868D01*
X133818401Y-47302253D01*
X133800223Y-47285777D01*
X133783747Y-47267599D01*
X133769132Y-47247893D01*
X133756520Y-47226850D01*
X133746030Y-47204671D01*
X133737765Y-47181572D01*
X133731804Y-47157773D01*
X133728204Y-47133505D01*
X133727000Y-47109001D01*
X133727000Y-46208999D01*
X133728204Y-46184495D01*
X133731804Y-46160227D01*
X133737765Y-46136428D01*
X133746030Y-46113329D01*
X133756520Y-46091150D01*
X133769132Y-46070107D01*
X133783747Y-46050401D01*
X133800223Y-46032223D01*
X133818401Y-46015747D01*
X133838107Y-46001132D01*
X133859150Y-45988520D01*
X133881329Y-45978030D01*
X133904428Y-45969765D01*
X133928227Y-45963804D01*
X133952495Y-45960204D01*
X133976999Y-45959000D01*
X134627001Y-45959000D01*
X134651505Y-45960204D01*
X134651505Y-45960204D01*
G37*
D11*
X134302000Y-46659000D03*
D10*
G36*
X132601505Y-45960204D02*
G01*
X132625773Y-45963804D01*
X132649572Y-45969765D01*
X132672671Y-45978030D01*
X132694850Y-45988520D01*
X132715893Y-46001132D01*
X132735599Y-46015747D01*
X132753777Y-46032223D01*
X132770253Y-46050401D01*
X132784868Y-46070107D01*
X132797480Y-46091150D01*
X132807970Y-46113329D01*
X132816235Y-46136428D01*
X132822196Y-46160227D01*
X132825796Y-46184495D01*
X132827000Y-46208999D01*
X132827000Y-47109001D01*
X132825796Y-47133505D01*
X132822196Y-47157773D01*
X132816235Y-47181572D01*
X132807970Y-47204671D01*
X132797480Y-47226850D01*
X132784868Y-47247893D01*
X132770253Y-47267599D01*
X132753777Y-47285777D01*
X132735599Y-47302253D01*
X132715893Y-47316868D01*
X132694850Y-47329480D01*
X132672671Y-47339970D01*
X132649572Y-47348235D01*
X132625773Y-47354196D01*
X132601505Y-47357796D01*
X132577001Y-47359000D01*
X131926999Y-47359000D01*
X131902495Y-47357796D01*
X131878227Y-47354196D01*
X131854428Y-47348235D01*
X131831329Y-47339970D01*
X131809150Y-47329480D01*
X131788107Y-47316868D01*
X131768401Y-47302253D01*
X131750223Y-47285777D01*
X131733747Y-47267599D01*
X131719132Y-47247893D01*
X131706520Y-47226850D01*
X131696030Y-47204671D01*
X131687765Y-47181572D01*
X131681804Y-47157773D01*
X131678204Y-47133505D01*
X131677000Y-47109001D01*
X131677000Y-46208999D01*
X131678204Y-46184495D01*
X131681804Y-46160227D01*
X131687765Y-46136428D01*
X131696030Y-46113329D01*
X131706520Y-46091150D01*
X131719132Y-46070107D01*
X131733747Y-46050401D01*
X131750223Y-46032223D01*
X131768401Y-46015747D01*
X131788107Y-46001132D01*
X131809150Y-45988520D01*
X131831329Y-45978030D01*
X131854428Y-45969765D01*
X131878227Y-45963804D01*
X131902495Y-45960204D01*
X131926999Y-45959000D01*
X132577001Y-45959000D01*
X132601505Y-45960204D01*
X132601505Y-45960204D01*
G37*
D11*
X132252000Y-46659000D03*
D10*
G36*
X148285505Y-37380204D02*
G01*
X148309773Y-37383804D01*
X148333572Y-37389765D01*
X148356671Y-37398030D01*
X148378850Y-37408520D01*
X148399893Y-37421132D01*
X148419599Y-37435747D01*
X148437777Y-37452223D01*
X148454253Y-37470401D01*
X148468868Y-37490107D01*
X148481480Y-37511150D01*
X148491970Y-37533329D01*
X148500235Y-37556428D01*
X148506196Y-37580227D01*
X148509796Y-37604495D01*
X148511000Y-37628999D01*
X148511000Y-38529001D01*
X148509796Y-38553505D01*
X148506196Y-38577773D01*
X148500235Y-38601572D01*
X148491970Y-38624671D01*
X148481480Y-38646850D01*
X148468868Y-38667893D01*
X148454253Y-38687599D01*
X148437777Y-38705777D01*
X148419599Y-38722253D01*
X148399893Y-38736868D01*
X148378850Y-38749480D01*
X148356671Y-38759970D01*
X148333572Y-38768235D01*
X148309773Y-38774196D01*
X148285505Y-38777796D01*
X148261001Y-38779000D01*
X147610999Y-38779000D01*
X147586495Y-38777796D01*
X147562227Y-38774196D01*
X147538428Y-38768235D01*
X147515329Y-38759970D01*
X147493150Y-38749480D01*
X147472107Y-38736868D01*
X147452401Y-38722253D01*
X147434223Y-38705777D01*
X147417747Y-38687599D01*
X147403132Y-38667893D01*
X147390520Y-38646850D01*
X147380030Y-38624671D01*
X147371765Y-38601572D01*
X147365804Y-38577773D01*
X147362204Y-38553505D01*
X147361000Y-38529001D01*
X147361000Y-37628999D01*
X147362204Y-37604495D01*
X147365804Y-37580227D01*
X147371765Y-37556428D01*
X147380030Y-37533329D01*
X147390520Y-37511150D01*
X147403132Y-37490107D01*
X147417747Y-37470401D01*
X147434223Y-37452223D01*
X147452401Y-37435747D01*
X147472107Y-37421132D01*
X147493150Y-37408520D01*
X147515329Y-37398030D01*
X147538428Y-37389765D01*
X147562227Y-37383804D01*
X147586495Y-37380204D01*
X147610999Y-37379000D01*
X148261001Y-37379000D01*
X148285505Y-37380204D01*
X148285505Y-37380204D01*
G37*
D11*
X147936000Y-38079000D03*
D10*
G36*
X146235505Y-37380204D02*
G01*
X146259773Y-37383804D01*
X146283572Y-37389765D01*
X146306671Y-37398030D01*
X146328850Y-37408520D01*
X146349893Y-37421132D01*
X146369599Y-37435747D01*
X146387777Y-37452223D01*
X146404253Y-37470401D01*
X146418868Y-37490107D01*
X146431480Y-37511150D01*
X146441970Y-37533329D01*
X146450235Y-37556428D01*
X146456196Y-37580227D01*
X146459796Y-37604495D01*
X146461000Y-37628999D01*
X146461000Y-38529001D01*
X146459796Y-38553505D01*
X146456196Y-38577773D01*
X146450235Y-38601572D01*
X146441970Y-38624671D01*
X146431480Y-38646850D01*
X146418868Y-38667893D01*
X146404253Y-38687599D01*
X146387777Y-38705777D01*
X146369599Y-38722253D01*
X146349893Y-38736868D01*
X146328850Y-38749480D01*
X146306671Y-38759970D01*
X146283572Y-38768235D01*
X146259773Y-38774196D01*
X146235505Y-38777796D01*
X146211001Y-38779000D01*
X145560999Y-38779000D01*
X145536495Y-38777796D01*
X145512227Y-38774196D01*
X145488428Y-38768235D01*
X145465329Y-38759970D01*
X145443150Y-38749480D01*
X145422107Y-38736868D01*
X145402401Y-38722253D01*
X145384223Y-38705777D01*
X145367747Y-38687599D01*
X145353132Y-38667893D01*
X145340520Y-38646850D01*
X145330030Y-38624671D01*
X145321765Y-38601572D01*
X145315804Y-38577773D01*
X145312204Y-38553505D01*
X145311000Y-38529001D01*
X145311000Y-37628999D01*
X145312204Y-37604495D01*
X145315804Y-37580227D01*
X145321765Y-37556428D01*
X145330030Y-37533329D01*
X145340520Y-37511150D01*
X145353132Y-37490107D01*
X145367747Y-37470401D01*
X145384223Y-37452223D01*
X145402401Y-37435747D01*
X145422107Y-37421132D01*
X145443150Y-37408520D01*
X145465329Y-37398030D01*
X145488428Y-37389765D01*
X145512227Y-37383804D01*
X145536495Y-37380204D01*
X145560999Y-37379000D01*
X146211001Y-37379000D01*
X146235505Y-37380204D01*
X146235505Y-37380204D01*
G37*
D11*
X145886000Y-38079000D03*
D10*
G36*
X150819505Y-46698204D02*
G01*
X150843773Y-46701804D01*
X150867572Y-46707765D01*
X150890671Y-46716030D01*
X150912850Y-46726520D01*
X150933893Y-46739132D01*
X150953599Y-46753747D01*
X150971777Y-46770223D01*
X150988253Y-46788401D01*
X151002868Y-46808107D01*
X151015480Y-46829150D01*
X151025970Y-46851329D01*
X151034235Y-46874428D01*
X151040196Y-46898227D01*
X151043796Y-46922495D01*
X151045000Y-46946999D01*
X151045000Y-47597001D01*
X151043796Y-47621505D01*
X151040196Y-47645773D01*
X151034235Y-47669572D01*
X151025970Y-47692671D01*
X151015480Y-47714850D01*
X151002868Y-47735893D01*
X150988253Y-47755599D01*
X150971777Y-47773777D01*
X150953599Y-47790253D01*
X150933893Y-47804868D01*
X150912850Y-47817480D01*
X150890671Y-47827970D01*
X150867572Y-47836235D01*
X150843773Y-47842196D01*
X150819505Y-47845796D01*
X150795001Y-47847000D01*
X149894999Y-47847000D01*
X149870495Y-47845796D01*
X149846227Y-47842196D01*
X149822428Y-47836235D01*
X149799329Y-47827970D01*
X149777150Y-47817480D01*
X149756107Y-47804868D01*
X149736401Y-47790253D01*
X149718223Y-47773777D01*
X149701747Y-47755599D01*
X149687132Y-47735893D01*
X149674520Y-47714850D01*
X149664030Y-47692671D01*
X149655765Y-47669572D01*
X149649804Y-47645773D01*
X149646204Y-47621505D01*
X149645000Y-47597001D01*
X149645000Y-46946999D01*
X149646204Y-46922495D01*
X149649804Y-46898227D01*
X149655765Y-46874428D01*
X149664030Y-46851329D01*
X149674520Y-46829150D01*
X149687132Y-46808107D01*
X149701747Y-46788401D01*
X149718223Y-46770223D01*
X149736401Y-46753747D01*
X149756107Y-46739132D01*
X149777150Y-46726520D01*
X149799329Y-46716030D01*
X149822428Y-46707765D01*
X149846227Y-46701804D01*
X149870495Y-46698204D01*
X149894999Y-46697000D01*
X150795001Y-46697000D01*
X150819505Y-46698204D01*
X150819505Y-46698204D01*
G37*
D11*
X150345000Y-47272000D03*
D10*
G36*
X150819505Y-48748204D02*
G01*
X150843773Y-48751804D01*
X150867572Y-48757765D01*
X150890671Y-48766030D01*
X150912850Y-48776520D01*
X150933893Y-48789132D01*
X150953599Y-48803747D01*
X150971777Y-48820223D01*
X150988253Y-48838401D01*
X151002868Y-48858107D01*
X151015480Y-48879150D01*
X151025970Y-48901329D01*
X151034235Y-48924428D01*
X151040196Y-48948227D01*
X151043796Y-48972495D01*
X151045000Y-48996999D01*
X151045000Y-49647001D01*
X151043796Y-49671505D01*
X151040196Y-49695773D01*
X151034235Y-49719572D01*
X151025970Y-49742671D01*
X151015480Y-49764850D01*
X151002868Y-49785893D01*
X150988253Y-49805599D01*
X150971777Y-49823777D01*
X150953599Y-49840253D01*
X150933893Y-49854868D01*
X150912850Y-49867480D01*
X150890671Y-49877970D01*
X150867572Y-49886235D01*
X150843773Y-49892196D01*
X150819505Y-49895796D01*
X150795001Y-49897000D01*
X149894999Y-49897000D01*
X149870495Y-49895796D01*
X149846227Y-49892196D01*
X149822428Y-49886235D01*
X149799329Y-49877970D01*
X149777150Y-49867480D01*
X149756107Y-49854868D01*
X149736401Y-49840253D01*
X149718223Y-49823777D01*
X149701747Y-49805599D01*
X149687132Y-49785893D01*
X149674520Y-49764850D01*
X149664030Y-49742671D01*
X149655765Y-49719572D01*
X149649804Y-49695773D01*
X149646204Y-49671505D01*
X149645000Y-49647001D01*
X149645000Y-48996999D01*
X149646204Y-48972495D01*
X149649804Y-48948227D01*
X149655765Y-48924428D01*
X149664030Y-48901329D01*
X149674520Y-48879150D01*
X149687132Y-48858107D01*
X149701747Y-48838401D01*
X149718223Y-48820223D01*
X149736401Y-48803747D01*
X149756107Y-48789132D01*
X149777150Y-48776520D01*
X149799329Y-48766030D01*
X149822428Y-48757765D01*
X149846227Y-48751804D01*
X149870495Y-48748204D01*
X149894999Y-48747000D01*
X150795001Y-48747000D01*
X150819505Y-48748204D01*
X150819505Y-48748204D01*
G37*
D11*
X150345000Y-49322000D03*
D10*
G36*
X138627505Y-87704204D02*
G01*
X138651773Y-87707804D01*
X138675572Y-87713765D01*
X138698671Y-87722030D01*
X138720850Y-87732520D01*
X138741893Y-87745132D01*
X138761599Y-87759747D01*
X138779777Y-87776223D01*
X138796253Y-87794401D01*
X138810868Y-87814107D01*
X138823480Y-87835150D01*
X138833970Y-87857329D01*
X138842235Y-87880428D01*
X138848196Y-87904227D01*
X138851796Y-87928495D01*
X138853000Y-87952999D01*
X138853000Y-88853001D01*
X138851796Y-88877505D01*
X138848196Y-88901773D01*
X138842235Y-88925572D01*
X138833970Y-88948671D01*
X138823480Y-88970850D01*
X138810868Y-88991893D01*
X138796253Y-89011599D01*
X138779777Y-89029777D01*
X138761599Y-89046253D01*
X138741893Y-89060868D01*
X138720850Y-89073480D01*
X138698671Y-89083970D01*
X138675572Y-89092235D01*
X138651773Y-89098196D01*
X138627505Y-89101796D01*
X138603001Y-89103000D01*
X137952999Y-89103000D01*
X137928495Y-89101796D01*
X137904227Y-89098196D01*
X137880428Y-89092235D01*
X137857329Y-89083970D01*
X137835150Y-89073480D01*
X137814107Y-89060868D01*
X137794401Y-89046253D01*
X137776223Y-89029777D01*
X137759747Y-89011599D01*
X137745132Y-88991893D01*
X137732520Y-88970850D01*
X137722030Y-88948671D01*
X137713765Y-88925572D01*
X137707804Y-88901773D01*
X137704204Y-88877505D01*
X137703000Y-88853001D01*
X137703000Y-87952999D01*
X137704204Y-87928495D01*
X137707804Y-87904227D01*
X137713765Y-87880428D01*
X137722030Y-87857329D01*
X137732520Y-87835150D01*
X137745132Y-87814107D01*
X137759747Y-87794401D01*
X137776223Y-87776223D01*
X137794401Y-87759747D01*
X137814107Y-87745132D01*
X137835150Y-87732520D01*
X137857329Y-87722030D01*
X137880428Y-87713765D01*
X137904227Y-87707804D01*
X137928495Y-87704204D01*
X137952999Y-87703000D01*
X138603001Y-87703000D01*
X138627505Y-87704204D01*
X138627505Y-87704204D01*
G37*
D11*
X138278000Y-88403000D03*
D10*
G36*
X136577505Y-87704204D02*
G01*
X136601773Y-87707804D01*
X136625572Y-87713765D01*
X136648671Y-87722030D01*
X136670850Y-87732520D01*
X136691893Y-87745132D01*
X136711599Y-87759747D01*
X136729777Y-87776223D01*
X136746253Y-87794401D01*
X136760868Y-87814107D01*
X136773480Y-87835150D01*
X136783970Y-87857329D01*
X136792235Y-87880428D01*
X136798196Y-87904227D01*
X136801796Y-87928495D01*
X136803000Y-87952999D01*
X136803000Y-88853001D01*
X136801796Y-88877505D01*
X136798196Y-88901773D01*
X136792235Y-88925572D01*
X136783970Y-88948671D01*
X136773480Y-88970850D01*
X136760868Y-88991893D01*
X136746253Y-89011599D01*
X136729777Y-89029777D01*
X136711599Y-89046253D01*
X136691893Y-89060868D01*
X136670850Y-89073480D01*
X136648671Y-89083970D01*
X136625572Y-89092235D01*
X136601773Y-89098196D01*
X136577505Y-89101796D01*
X136553001Y-89103000D01*
X135902999Y-89103000D01*
X135878495Y-89101796D01*
X135854227Y-89098196D01*
X135830428Y-89092235D01*
X135807329Y-89083970D01*
X135785150Y-89073480D01*
X135764107Y-89060868D01*
X135744401Y-89046253D01*
X135726223Y-89029777D01*
X135709747Y-89011599D01*
X135695132Y-88991893D01*
X135682520Y-88970850D01*
X135672030Y-88948671D01*
X135663765Y-88925572D01*
X135657804Y-88901773D01*
X135654204Y-88877505D01*
X135653000Y-88853001D01*
X135653000Y-87952999D01*
X135654204Y-87928495D01*
X135657804Y-87904227D01*
X135663765Y-87880428D01*
X135672030Y-87857329D01*
X135682520Y-87835150D01*
X135695132Y-87814107D01*
X135709747Y-87794401D01*
X135726223Y-87776223D01*
X135744401Y-87759747D01*
X135764107Y-87745132D01*
X135785150Y-87732520D01*
X135807329Y-87722030D01*
X135830428Y-87713765D01*
X135854227Y-87707804D01*
X135878495Y-87704204D01*
X135902999Y-87703000D01*
X136553001Y-87703000D01*
X136577505Y-87704204D01*
X136577505Y-87704204D01*
G37*
D11*
X136228000Y-88403000D03*
D10*
G36*
X148376505Y-120057204D02*
G01*
X148400773Y-120060804D01*
X148424572Y-120066765D01*
X148447671Y-120075030D01*
X148469850Y-120085520D01*
X148490893Y-120098132D01*
X148510599Y-120112747D01*
X148528777Y-120129223D01*
X148545253Y-120147401D01*
X148559868Y-120167107D01*
X148572480Y-120188150D01*
X148582970Y-120210329D01*
X148591235Y-120233428D01*
X148597196Y-120257227D01*
X148600796Y-120281495D01*
X148602000Y-120305999D01*
X148602000Y-120956001D01*
X148600796Y-120980505D01*
X148597196Y-121004773D01*
X148591235Y-121028572D01*
X148582970Y-121051671D01*
X148572480Y-121073850D01*
X148559868Y-121094893D01*
X148545253Y-121114599D01*
X148528777Y-121132777D01*
X148510599Y-121149253D01*
X148490893Y-121163868D01*
X148469850Y-121176480D01*
X148447671Y-121186970D01*
X148424572Y-121195235D01*
X148400773Y-121201196D01*
X148376505Y-121204796D01*
X148352001Y-121206000D01*
X147451999Y-121206000D01*
X147427495Y-121204796D01*
X147403227Y-121201196D01*
X147379428Y-121195235D01*
X147356329Y-121186970D01*
X147334150Y-121176480D01*
X147313107Y-121163868D01*
X147293401Y-121149253D01*
X147275223Y-121132777D01*
X147258747Y-121114599D01*
X147244132Y-121094893D01*
X147231520Y-121073850D01*
X147221030Y-121051671D01*
X147212765Y-121028572D01*
X147206804Y-121004773D01*
X147203204Y-120980505D01*
X147202000Y-120956001D01*
X147202000Y-120305999D01*
X147203204Y-120281495D01*
X147206804Y-120257227D01*
X147212765Y-120233428D01*
X147221030Y-120210329D01*
X147231520Y-120188150D01*
X147244132Y-120167107D01*
X147258747Y-120147401D01*
X147275223Y-120129223D01*
X147293401Y-120112747D01*
X147313107Y-120098132D01*
X147334150Y-120085520D01*
X147356329Y-120075030D01*
X147379428Y-120066765D01*
X147403227Y-120060804D01*
X147427495Y-120057204D01*
X147451999Y-120056000D01*
X148352001Y-120056000D01*
X148376505Y-120057204D01*
X148376505Y-120057204D01*
G37*
D11*
X147902000Y-120631000D03*
D10*
G36*
X148376505Y-122107204D02*
G01*
X148400773Y-122110804D01*
X148424572Y-122116765D01*
X148447671Y-122125030D01*
X148469850Y-122135520D01*
X148490893Y-122148132D01*
X148510599Y-122162747D01*
X148528777Y-122179223D01*
X148545253Y-122197401D01*
X148559868Y-122217107D01*
X148572480Y-122238150D01*
X148582970Y-122260329D01*
X148591235Y-122283428D01*
X148597196Y-122307227D01*
X148600796Y-122331495D01*
X148602000Y-122355999D01*
X148602000Y-123006001D01*
X148600796Y-123030505D01*
X148597196Y-123054773D01*
X148591235Y-123078572D01*
X148582970Y-123101671D01*
X148572480Y-123123850D01*
X148559868Y-123144893D01*
X148545253Y-123164599D01*
X148528777Y-123182777D01*
X148510599Y-123199253D01*
X148490893Y-123213868D01*
X148469850Y-123226480D01*
X148447671Y-123236970D01*
X148424572Y-123245235D01*
X148400773Y-123251196D01*
X148376505Y-123254796D01*
X148352001Y-123256000D01*
X147451999Y-123256000D01*
X147427495Y-123254796D01*
X147403227Y-123251196D01*
X147379428Y-123245235D01*
X147356329Y-123236970D01*
X147334150Y-123226480D01*
X147313107Y-123213868D01*
X147293401Y-123199253D01*
X147275223Y-123182777D01*
X147258747Y-123164599D01*
X147244132Y-123144893D01*
X147231520Y-123123850D01*
X147221030Y-123101671D01*
X147212765Y-123078572D01*
X147206804Y-123054773D01*
X147203204Y-123030505D01*
X147202000Y-123006001D01*
X147202000Y-122355999D01*
X147203204Y-122331495D01*
X147206804Y-122307227D01*
X147212765Y-122283428D01*
X147221030Y-122260329D01*
X147231520Y-122238150D01*
X147244132Y-122217107D01*
X147258747Y-122197401D01*
X147275223Y-122179223D01*
X147293401Y-122162747D01*
X147313107Y-122148132D01*
X147334150Y-122135520D01*
X147356329Y-122125030D01*
X147379428Y-122116765D01*
X147403227Y-122110804D01*
X147427495Y-122107204D01*
X147451999Y-122106000D01*
X148352001Y-122106000D01*
X148376505Y-122107204D01*
X148376505Y-122107204D01*
G37*
D11*
X147902000Y-122681000D03*
D10*
G36*
X160552505Y-129950204D02*
G01*
X160576773Y-129953804D01*
X160600572Y-129959765D01*
X160623671Y-129968030D01*
X160645850Y-129978520D01*
X160666893Y-129991132D01*
X160686599Y-130005747D01*
X160704777Y-130022223D01*
X160721253Y-130040401D01*
X160735868Y-130060107D01*
X160748480Y-130081150D01*
X160758970Y-130103329D01*
X160767235Y-130126428D01*
X160773196Y-130150227D01*
X160776796Y-130174495D01*
X160778000Y-130198999D01*
X160778000Y-130849001D01*
X160776796Y-130873505D01*
X160773196Y-130897773D01*
X160767235Y-130921572D01*
X160758970Y-130944671D01*
X160748480Y-130966850D01*
X160735868Y-130987893D01*
X160721253Y-131007599D01*
X160704777Y-131025777D01*
X160686599Y-131042253D01*
X160666893Y-131056868D01*
X160645850Y-131069480D01*
X160623671Y-131079970D01*
X160600572Y-131088235D01*
X160576773Y-131094196D01*
X160552505Y-131097796D01*
X160528001Y-131099000D01*
X159627999Y-131099000D01*
X159603495Y-131097796D01*
X159579227Y-131094196D01*
X159555428Y-131088235D01*
X159532329Y-131079970D01*
X159510150Y-131069480D01*
X159489107Y-131056868D01*
X159469401Y-131042253D01*
X159451223Y-131025777D01*
X159434747Y-131007599D01*
X159420132Y-130987893D01*
X159407520Y-130966850D01*
X159397030Y-130944671D01*
X159388765Y-130921572D01*
X159382804Y-130897773D01*
X159379204Y-130873505D01*
X159378000Y-130849001D01*
X159378000Y-130198999D01*
X159379204Y-130174495D01*
X159382804Y-130150227D01*
X159388765Y-130126428D01*
X159397030Y-130103329D01*
X159407520Y-130081150D01*
X159420132Y-130060107D01*
X159434747Y-130040401D01*
X159451223Y-130022223D01*
X159469401Y-130005747D01*
X159489107Y-129991132D01*
X159510150Y-129978520D01*
X159532329Y-129968030D01*
X159555428Y-129959765D01*
X159579227Y-129953804D01*
X159603495Y-129950204D01*
X159627999Y-129949000D01*
X160528001Y-129949000D01*
X160552505Y-129950204D01*
X160552505Y-129950204D01*
G37*
D11*
X160078000Y-130524000D03*
D10*
G36*
X160552505Y-127900204D02*
G01*
X160576773Y-127903804D01*
X160600572Y-127909765D01*
X160623671Y-127918030D01*
X160645850Y-127928520D01*
X160666893Y-127941132D01*
X160686599Y-127955747D01*
X160704777Y-127972223D01*
X160721253Y-127990401D01*
X160735868Y-128010107D01*
X160748480Y-128031150D01*
X160758970Y-128053329D01*
X160767235Y-128076428D01*
X160773196Y-128100227D01*
X160776796Y-128124495D01*
X160778000Y-128148999D01*
X160778000Y-128799001D01*
X160776796Y-128823505D01*
X160773196Y-128847773D01*
X160767235Y-128871572D01*
X160758970Y-128894671D01*
X160748480Y-128916850D01*
X160735868Y-128937893D01*
X160721253Y-128957599D01*
X160704777Y-128975777D01*
X160686599Y-128992253D01*
X160666893Y-129006868D01*
X160645850Y-129019480D01*
X160623671Y-129029970D01*
X160600572Y-129038235D01*
X160576773Y-129044196D01*
X160552505Y-129047796D01*
X160528001Y-129049000D01*
X159627999Y-129049000D01*
X159603495Y-129047796D01*
X159579227Y-129044196D01*
X159555428Y-129038235D01*
X159532329Y-129029970D01*
X159510150Y-129019480D01*
X159489107Y-129006868D01*
X159469401Y-128992253D01*
X159451223Y-128975777D01*
X159434747Y-128957599D01*
X159420132Y-128937893D01*
X159407520Y-128916850D01*
X159397030Y-128894671D01*
X159388765Y-128871572D01*
X159382804Y-128847773D01*
X159379204Y-128823505D01*
X159378000Y-128799001D01*
X159378000Y-128148999D01*
X159379204Y-128124495D01*
X159382804Y-128100227D01*
X159388765Y-128076428D01*
X159397030Y-128053329D01*
X159407520Y-128031150D01*
X159420132Y-128010107D01*
X159434747Y-127990401D01*
X159451223Y-127972223D01*
X159469401Y-127955747D01*
X159489107Y-127941132D01*
X159510150Y-127928520D01*
X159532329Y-127918030D01*
X159555428Y-127909765D01*
X159579227Y-127903804D01*
X159603495Y-127900204D01*
X159627999Y-127899000D01*
X160528001Y-127899000D01*
X160552505Y-127900204D01*
X160552505Y-127900204D01*
G37*
D11*
X160078000Y-128474000D03*
D10*
G36*
X157443505Y-121322204D02*
G01*
X157467773Y-121325804D01*
X157491572Y-121331765D01*
X157514671Y-121340030D01*
X157536850Y-121350520D01*
X157557893Y-121363132D01*
X157577599Y-121377747D01*
X157595777Y-121394223D01*
X157612253Y-121412401D01*
X157626868Y-121432107D01*
X157639480Y-121453150D01*
X157649970Y-121475329D01*
X157658235Y-121498428D01*
X157664196Y-121522227D01*
X157667796Y-121546495D01*
X157669000Y-121570999D01*
X157669000Y-122471001D01*
X157667796Y-122495505D01*
X157664196Y-122519773D01*
X157658235Y-122543572D01*
X157649970Y-122566671D01*
X157639480Y-122588850D01*
X157626868Y-122609893D01*
X157612253Y-122629599D01*
X157595777Y-122647777D01*
X157577599Y-122664253D01*
X157557893Y-122678868D01*
X157536850Y-122691480D01*
X157514671Y-122701970D01*
X157491572Y-122710235D01*
X157467773Y-122716196D01*
X157443505Y-122719796D01*
X157419001Y-122721000D01*
X156768999Y-122721000D01*
X156744495Y-122719796D01*
X156720227Y-122716196D01*
X156696428Y-122710235D01*
X156673329Y-122701970D01*
X156651150Y-122691480D01*
X156630107Y-122678868D01*
X156610401Y-122664253D01*
X156592223Y-122647777D01*
X156575747Y-122629599D01*
X156561132Y-122609893D01*
X156548520Y-122588850D01*
X156538030Y-122566671D01*
X156529765Y-122543572D01*
X156523804Y-122519773D01*
X156520204Y-122495505D01*
X156519000Y-122471001D01*
X156519000Y-121570999D01*
X156520204Y-121546495D01*
X156523804Y-121522227D01*
X156529765Y-121498428D01*
X156538030Y-121475329D01*
X156548520Y-121453150D01*
X156561132Y-121432107D01*
X156575747Y-121412401D01*
X156592223Y-121394223D01*
X156610401Y-121377747D01*
X156630107Y-121363132D01*
X156651150Y-121350520D01*
X156673329Y-121340030D01*
X156696428Y-121331765D01*
X156720227Y-121325804D01*
X156744495Y-121322204D01*
X156768999Y-121321000D01*
X157419001Y-121321000D01*
X157443505Y-121322204D01*
X157443505Y-121322204D01*
G37*
D11*
X157094000Y-122021000D03*
D10*
G36*
X159493505Y-121322204D02*
G01*
X159517773Y-121325804D01*
X159541572Y-121331765D01*
X159564671Y-121340030D01*
X159586850Y-121350520D01*
X159607893Y-121363132D01*
X159627599Y-121377747D01*
X159645777Y-121394223D01*
X159662253Y-121412401D01*
X159676868Y-121432107D01*
X159689480Y-121453150D01*
X159699970Y-121475329D01*
X159708235Y-121498428D01*
X159714196Y-121522227D01*
X159717796Y-121546495D01*
X159719000Y-121570999D01*
X159719000Y-122471001D01*
X159717796Y-122495505D01*
X159714196Y-122519773D01*
X159708235Y-122543572D01*
X159699970Y-122566671D01*
X159689480Y-122588850D01*
X159676868Y-122609893D01*
X159662253Y-122629599D01*
X159645777Y-122647777D01*
X159627599Y-122664253D01*
X159607893Y-122678868D01*
X159586850Y-122691480D01*
X159564671Y-122701970D01*
X159541572Y-122710235D01*
X159517773Y-122716196D01*
X159493505Y-122719796D01*
X159469001Y-122721000D01*
X158818999Y-122721000D01*
X158794495Y-122719796D01*
X158770227Y-122716196D01*
X158746428Y-122710235D01*
X158723329Y-122701970D01*
X158701150Y-122691480D01*
X158680107Y-122678868D01*
X158660401Y-122664253D01*
X158642223Y-122647777D01*
X158625747Y-122629599D01*
X158611132Y-122609893D01*
X158598520Y-122588850D01*
X158588030Y-122566671D01*
X158579765Y-122543572D01*
X158573804Y-122519773D01*
X158570204Y-122495505D01*
X158569000Y-122471001D01*
X158569000Y-121570999D01*
X158570204Y-121546495D01*
X158573804Y-121522227D01*
X158579765Y-121498428D01*
X158588030Y-121475329D01*
X158598520Y-121453150D01*
X158611132Y-121432107D01*
X158625747Y-121412401D01*
X158642223Y-121394223D01*
X158660401Y-121377747D01*
X158680107Y-121363132D01*
X158701150Y-121350520D01*
X158723329Y-121340030D01*
X158746428Y-121331765D01*
X158770227Y-121325804D01*
X158794495Y-121322204D01*
X158818999Y-121321000D01*
X159469001Y-121321000D01*
X159493505Y-121322204D01*
X159493505Y-121322204D01*
G37*
D11*
X159144000Y-122021000D03*
D10*
G36*
X155307505Y-120949204D02*
G01*
X155331773Y-120952804D01*
X155355572Y-120958765D01*
X155378671Y-120967030D01*
X155400850Y-120977520D01*
X155421893Y-120990132D01*
X155441599Y-121004747D01*
X155459777Y-121021223D01*
X155476253Y-121039401D01*
X155490868Y-121059107D01*
X155503480Y-121080150D01*
X155513970Y-121102329D01*
X155522235Y-121125428D01*
X155528196Y-121149227D01*
X155531796Y-121173495D01*
X155533000Y-121197999D01*
X155533000Y-122098001D01*
X155531796Y-122122505D01*
X155528196Y-122146773D01*
X155522235Y-122170572D01*
X155513970Y-122193671D01*
X155503480Y-122215850D01*
X155490868Y-122236893D01*
X155476253Y-122256599D01*
X155459777Y-122274777D01*
X155441599Y-122291253D01*
X155421893Y-122305868D01*
X155400850Y-122318480D01*
X155378671Y-122328970D01*
X155355572Y-122337235D01*
X155331773Y-122343196D01*
X155307505Y-122346796D01*
X155283001Y-122348000D01*
X154632999Y-122348000D01*
X154608495Y-122346796D01*
X154584227Y-122343196D01*
X154560428Y-122337235D01*
X154537329Y-122328970D01*
X154515150Y-122318480D01*
X154494107Y-122305868D01*
X154474401Y-122291253D01*
X154456223Y-122274777D01*
X154439747Y-122256599D01*
X154425132Y-122236893D01*
X154412520Y-122215850D01*
X154402030Y-122193671D01*
X154393765Y-122170572D01*
X154387804Y-122146773D01*
X154384204Y-122122505D01*
X154383000Y-122098001D01*
X154383000Y-121197999D01*
X154384204Y-121173495D01*
X154387804Y-121149227D01*
X154393765Y-121125428D01*
X154402030Y-121102329D01*
X154412520Y-121080150D01*
X154425132Y-121059107D01*
X154439747Y-121039401D01*
X154456223Y-121021223D01*
X154474401Y-121004747D01*
X154494107Y-120990132D01*
X154515150Y-120977520D01*
X154537329Y-120967030D01*
X154560428Y-120958765D01*
X154584227Y-120952804D01*
X154608495Y-120949204D01*
X154632999Y-120948000D01*
X155283001Y-120948000D01*
X155307505Y-120949204D01*
X155307505Y-120949204D01*
G37*
D11*
X154958000Y-121648000D03*
D10*
G36*
X153257505Y-120949204D02*
G01*
X153281773Y-120952804D01*
X153305572Y-120958765D01*
X153328671Y-120967030D01*
X153350850Y-120977520D01*
X153371893Y-120990132D01*
X153391599Y-121004747D01*
X153409777Y-121021223D01*
X153426253Y-121039401D01*
X153440868Y-121059107D01*
X153453480Y-121080150D01*
X153463970Y-121102329D01*
X153472235Y-121125428D01*
X153478196Y-121149227D01*
X153481796Y-121173495D01*
X153483000Y-121197999D01*
X153483000Y-122098001D01*
X153481796Y-122122505D01*
X153478196Y-122146773D01*
X153472235Y-122170572D01*
X153463970Y-122193671D01*
X153453480Y-122215850D01*
X153440868Y-122236893D01*
X153426253Y-122256599D01*
X153409777Y-122274777D01*
X153391599Y-122291253D01*
X153371893Y-122305868D01*
X153350850Y-122318480D01*
X153328671Y-122328970D01*
X153305572Y-122337235D01*
X153281773Y-122343196D01*
X153257505Y-122346796D01*
X153233001Y-122348000D01*
X152582999Y-122348000D01*
X152558495Y-122346796D01*
X152534227Y-122343196D01*
X152510428Y-122337235D01*
X152487329Y-122328970D01*
X152465150Y-122318480D01*
X152444107Y-122305868D01*
X152424401Y-122291253D01*
X152406223Y-122274777D01*
X152389747Y-122256599D01*
X152375132Y-122236893D01*
X152362520Y-122215850D01*
X152352030Y-122193671D01*
X152343765Y-122170572D01*
X152337804Y-122146773D01*
X152334204Y-122122505D01*
X152333000Y-122098001D01*
X152333000Y-121197999D01*
X152334204Y-121173495D01*
X152337804Y-121149227D01*
X152343765Y-121125428D01*
X152352030Y-121102329D01*
X152362520Y-121080150D01*
X152375132Y-121059107D01*
X152389747Y-121039401D01*
X152406223Y-121021223D01*
X152424401Y-121004747D01*
X152444107Y-120990132D01*
X152465150Y-120977520D01*
X152487329Y-120967030D01*
X152510428Y-120958765D01*
X152534227Y-120952804D01*
X152558495Y-120949204D01*
X152582999Y-120948000D01*
X153233001Y-120948000D01*
X153257505Y-120949204D01*
X153257505Y-120949204D01*
G37*
D11*
X152908000Y-121648000D03*
D10*
G36*
X155325505Y-118679204D02*
G01*
X155349773Y-118682804D01*
X155373572Y-118688765D01*
X155396671Y-118697030D01*
X155418850Y-118707520D01*
X155439893Y-118720132D01*
X155459599Y-118734747D01*
X155477777Y-118751223D01*
X155494253Y-118769401D01*
X155508868Y-118789107D01*
X155521480Y-118810150D01*
X155531970Y-118832329D01*
X155540235Y-118855428D01*
X155546196Y-118879227D01*
X155549796Y-118903495D01*
X155551000Y-118927999D01*
X155551000Y-119828001D01*
X155549796Y-119852505D01*
X155546196Y-119876773D01*
X155540235Y-119900572D01*
X155531970Y-119923671D01*
X155521480Y-119945850D01*
X155508868Y-119966893D01*
X155494253Y-119986599D01*
X155477777Y-120004777D01*
X155459599Y-120021253D01*
X155439893Y-120035868D01*
X155418850Y-120048480D01*
X155396671Y-120058970D01*
X155373572Y-120067235D01*
X155349773Y-120073196D01*
X155325505Y-120076796D01*
X155301001Y-120078000D01*
X154650999Y-120078000D01*
X154626495Y-120076796D01*
X154602227Y-120073196D01*
X154578428Y-120067235D01*
X154555329Y-120058970D01*
X154533150Y-120048480D01*
X154512107Y-120035868D01*
X154492401Y-120021253D01*
X154474223Y-120004777D01*
X154457747Y-119986599D01*
X154443132Y-119966893D01*
X154430520Y-119945850D01*
X154420030Y-119923671D01*
X154411765Y-119900572D01*
X154405804Y-119876773D01*
X154402204Y-119852505D01*
X154401000Y-119828001D01*
X154401000Y-118927999D01*
X154402204Y-118903495D01*
X154405804Y-118879227D01*
X154411765Y-118855428D01*
X154420030Y-118832329D01*
X154430520Y-118810150D01*
X154443132Y-118789107D01*
X154457747Y-118769401D01*
X154474223Y-118751223D01*
X154492401Y-118734747D01*
X154512107Y-118720132D01*
X154533150Y-118707520D01*
X154555329Y-118697030D01*
X154578428Y-118688765D01*
X154602227Y-118682804D01*
X154626495Y-118679204D01*
X154650999Y-118678000D01*
X155301001Y-118678000D01*
X155325505Y-118679204D01*
X155325505Y-118679204D01*
G37*
D11*
X154976000Y-119378000D03*
D10*
G36*
X153275505Y-118679204D02*
G01*
X153299773Y-118682804D01*
X153323572Y-118688765D01*
X153346671Y-118697030D01*
X153368850Y-118707520D01*
X153389893Y-118720132D01*
X153409599Y-118734747D01*
X153427777Y-118751223D01*
X153444253Y-118769401D01*
X153458868Y-118789107D01*
X153471480Y-118810150D01*
X153481970Y-118832329D01*
X153490235Y-118855428D01*
X153496196Y-118879227D01*
X153499796Y-118903495D01*
X153501000Y-118927999D01*
X153501000Y-119828001D01*
X153499796Y-119852505D01*
X153496196Y-119876773D01*
X153490235Y-119900572D01*
X153481970Y-119923671D01*
X153471480Y-119945850D01*
X153458868Y-119966893D01*
X153444253Y-119986599D01*
X153427777Y-120004777D01*
X153409599Y-120021253D01*
X153389893Y-120035868D01*
X153368850Y-120048480D01*
X153346671Y-120058970D01*
X153323572Y-120067235D01*
X153299773Y-120073196D01*
X153275505Y-120076796D01*
X153251001Y-120078000D01*
X152600999Y-120078000D01*
X152576495Y-120076796D01*
X152552227Y-120073196D01*
X152528428Y-120067235D01*
X152505329Y-120058970D01*
X152483150Y-120048480D01*
X152462107Y-120035868D01*
X152442401Y-120021253D01*
X152424223Y-120004777D01*
X152407747Y-119986599D01*
X152393132Y-119966893D01*
X152380520Y-119945850D01*
X152370030Y-119923671D01*
X152361765Y-119900572D01*
X152355804Y-119876773D01*
X152352204Y-119852505D01*
X152351000Y-119828001D01*
X152351000Y-118927999D01*
X152352204Y-118903495D01*
X152355804Y-118879227D01*
X152361765Y-118855428D01*
X152370030Y-118832329D01*
X152380520Y-118810150D01*
X152393132Y-118789107D01*
X152407747Y-118769401D01*
X152424223Y-118751223D01*
X152442401Y-118734747D01*
X152462107Y-118720132D01*
X152483150Y-118707520D01*
X152505329Y-118697030D01*
X152528428Y-118688765D01*
X152552227Y-118682804D01*
X152576495Y-118679204D01*
X152600999Y-118678000D01*
X153251001Y-118678000D01*
X153275505Y-118679204D01*
X153275505Y-118679204D01*
G37*
D11*
X152926000Y-119378000D03*
D10*
G36*
X155798505Y-141418204D02*
G01*
X155822773Y-141421804D01*
X155846572Y-141427765D01*
X155869671Y-141436030D01*
X155891850Y-141446520D01*
X155912893Y-141459132D01*
X155932599Y-141473747D01*
X155950777Y-141490223D01*
X155967253Y-141508401D01*
X155981868Y-141528107D01*
X155994480Y-141549150D01*
X156004970Y-141571329D01*
X156013235Y-141594428D01*
X156019196Y-141618227D01*
X156022796Y-141642495D01*
X156024000Y-141666999D01*
X156024000Y-142567001D01*
X156022796Y-142591505D01*
X156019196Y-142615773D01*
X156013235Y-142639572D01*
X156004970Y-142662671D01*
X155994480Y-142684850D01*
X155981868Y-142705893D01*
X155967253Y-142725599D01*
X155950777Y-142743777D01*
X155932599Y-142760253D01*
X155912893Y-142774868D01*
X155891850Y-142787480D01*
X155869671Y-142797970D01*
X155846572Y-142806235D01*
X155822773Y-142812196D01*
X155798505Y-142815796D01*
X155774001Y-142817000D01*
X155123999Y-142817000D01*
X155099495Y-142815796D01*
X155075227Y-142812196D01*
X155051428Y-142806235D01*
X155028329Y-142797970D01*
X155006150Y-142787480D01*
X154985107Y-142774868D01*
X154965401Y-142760253D01*
X154947223Y-142743777D01*
X154930747Y-142725599D01*
X154916132Y-142705893D01*
X154903520Y-142684850D01*
X154893030Y-142662671D01*
X154884765Y-142639572D01*
X154878804Y-142615773D01*
X154875204Y-142591505D01*
X154874000Y-142567001D01*
X154874000Y-141666999D01*
X154875204Y-141642495D01*
X154878804Y-141618227D01*
X154884765Y-141594428D01*
X154893030Y-141571329D01*
X154903520Y-141549150D01*
X154916132Y-141528107D01*
X154930747Y-141508401D01*
X154947223Y-141490223D01*
X154965401Y-141473747D01*
X154985107Y-141459132D01*
X155006150Y-141446520D01*
X155028329Y-141436030D01*
X155051428Y-141427765D01*
X155075227Y-141421804D01*
X155099495Y-141418204D01*
X155123999Y-141417000D01*
X155774001Y-141417000D01*
X155798505Y-141418204D01*
X155798505Y-141418204D01*
G37*
D11*
X155449000Y-142117000D03*
D10*
G36*
X153748505Y-141418204D02*
G01*
X153772773Y-141421804D01*
X153796572Y-141427765D01*
X153819671Y-141436030D01*
X153841850Y-141446520D01*
X153862893Y-141459132D01*
X153882599Y-141473747D01*
X153900777Y-141490223D01*
X153917253Y-141508401D01*
X153931868Y-141528107D01*
X153944480Y-141549150D01*
X153954970Y-141571329D01*
X153963235Y-141594428D01*
X153969196Y-141618227D01*
X153972796Y-141642495D01*
X153974000Y-141666999D01*
X153974000Y-142567001D01*
X153972796Y-142591505D01*
X153969196Y-142615773D01*
X153963235Y-142639572D01*
X153954970Y-142662671D01*
X153944480Y-142684850D01*
X153931868Y-142705893D01*
X153917253Y-142725599D01*
X153900777Y-142743777D01*
X153882599Y-142760253D01*
X153862893Y-142774868D01*
X153841850Y-142787480D01*
X153819671Y-142797970D01*
X153796572Y-142806235D01*
X153772773Y-142812196D01*
X153748505Y-142815796D01*
X153724001Y-142817000D01*
X153073999Y-142817000D01*
X153049495Y-142815796D01*
X153025227Y-142812196D01*
X153001428Y-142806235D01*
X152978329Y-142797970D01*
X152956150Y-142787480D01*
X152935107Y-142774868D01*
X152915401Y-142760253D01*
X152897223Y-142743777D01*
X152880747Y-142725599D01*
X152866132Y-142705893D01*
X152853520Y-142684850D01*
X152843030Y-142662671D01*
X152834765Y-142639572D01*
X152828804Y-142615773D01*
X152825204Y-142591505D01*
X152824000Y-142567001D01*
X152824000Y-141666999D01*
X152825204Y-141642495D01*
X152828804Y-141618227D01*
X152834765Y-141594428D01*
X152843030Y-141571329D01*
X152853520Y-141549150D01*
X152866132Y-141528107D01*
X152880747Y-141508401D01*
X152897223Y-141490223D01*
X152915401Y-141473747D01*
X152935107Y-141459132D01*
X152956150Y-141446520D01*
X152978329Y-141436030D01*
X153001428Y-141427765D01*
X153025227Y-141421804D01*
X153049495Y-141418204D01*
X153073999Y-141417000D01*
X153724001Y-141417000D01*
X153748505Y-141418204D01*
X153748505Y-141418204D01*
G37*
D11*
X153399000Y-142117000D03*
D10*
G36*
X153712505Y-139023204D02*
G01*
X153736773Y-139026804D01*
X153760572Y-139032765D01*
X153783671Y-139041030D01*
X153805850Y-139051520D01*
X153826893Y-139064132D01*
X153846599Y-139078747D01*
X153864777Y-139095223D01*
X153881253Y-139113401D01*
X153895868Y-139133107D01*
X153908480Y-139154150D01*
X153918970Y-139176329D01*
X153927235Y-139199428D01*
X153933196Y-139223227D01*
X153936796Y-139247495D01*
X153938000Y-139271999D01*
X153938000Y-140172001D01*
X153936796Y-140196505D01*
X153933196Y-140220773D01*
X153927235Y-140244572D01*
X153918970Y-140267671D01*
X153908480Y-140289850D01*
X153895868Y-140310893D01*
X153881253Y-140330599D01*
X153864777Y-140348777D01*
X153846599Y-140365253D01*
X153826893Y-140379868D01*
X153805850Y-140392480D01*
X153783671Y-140402970D01*
X153760572Y-140411235D01*
X153736773Y-140417196D01*
X153712505Y-140420796D01*
X153688001Y-140422000D01*
X153037999Y-140422000D01*
X153013495Y-140420796D01*
X152989227Y-140417196D01*
X152965428Y-140411235D01*
X152942329Y-140402970D01*
X152920150Y-140392480D01*
X152899107Y-140379868D01*
X152879401Y-140365253D01*
X152861223Y-140348777D01*
X152844747Y-140330599D01*
X152830132Y-140310893D01*
X152817520Y-140289850D01*
X152807030Y-140267671D01*
X152798765Y-140244572D01*
X152792804Y-140220773D01*
X152789204Y-140196505D01*
X152788000Y-140172001D01*
X152788000Y-139271999D01*
X152789204Y-139247495D01*
X152792804Y-139223227D01*
X152798765Y-139199428D01*
X152807030Y-139176329D01*
X152817520Y-139154150D01*
X152830132Y-139133107D01*
X152844747Y-139113401D01*
X152861223Y-139095223D01*
X152879401Y-139078747D01*
X152899107Y-139064132D01*
X152920150Y-139051520D01*
X152942329Y-139041030D01*
X152965428Y-139032765D01*
X152989227Y-139026804D01*
X153013495Y-139023204D01*
X153037999Y-139022000D01*
X153688001Y-139022000D01*
X153712505Y-139023204D01*
X153712505Y-139023204D01*
G37*
D11*
X153363000Y-139722000D03*
D10*
G36*
X155762505Y-139023204D02*
G01*
X155786773Y-139026804D01*
X155810572Y-139032765D01*
X155833671Y-139041030D01*
X155855850Y-139051520D01*
X155876893Y-139064132D01*
X155896599Y-139078747D01*
X155914777Y-139095223D01*
X155931253Y-139113401D01*
X155945868Y-139133107D01*
X155958480Y-139154150D01*
X155968970Y-139176329D01*
X155977235Y-139199428D01*
X155983196Y-139223227D01*
X155986796Y-139247495D01*
X155988000Y-139271999D01*
X155988000Y-140172001D01*
X155986796Y-140196505D01*
X155983196Y-140220773D01*
X155977235Y-140244572D01*
X155968970Y-140267671D01*
X155958480Y-140289850D01*
X155945868Y-140310893D01*
X155931253Y-140330599D01*
X155914777Y-140348777D01*
X155896599Y-140365253D01*
X155876893Y-140379868D01*
X155855850Y-140392480D01*
X155833671Y-140402970D01*
X155810572Y-140411235D01*
X155786773Y-140417196D01*
X155762505Y-140420796D01*
X155738001Y-140422000D01*
X155087999Y-140422000D01*
X155063495Y-140420796D01*
X155039227Y-140417196D01*
X155015428Y-140411235D01*
X154992329Y-140402970D01*
X154970150Y-140392480D01*
X154949107Y-140379868D01*
X154929401Y-140365253D01*
X154911223Y-140348777D01*
X154894747Y-140330599D01*
X154880132Y-140310893D01*
X154867520Y-140289850D01*
X154857030Y-140267671D01*
X154848765Y-140244572D01*
X154842804Y-140220773D01*
X154839204Y-140196505D01*
X154838000Y-140172001D01*
X154838000Y-139271999D01*
X154839204Y-139247495D01*
X154842804Y-139223227D01*
X154848765Y-139199428D01*
X154857030Y-139176329D01*
X154867520Y-139154150D01*
X154880132Y-139133107D01*
X154894747Y-139113401D01*
X154911223Y-139095223D01*
X154929401Y-139078747D01*
X154949107Y-139064132D01*
X154970150Y-139051520D01*
X154992329Y-139041030D01*
X155015428Y-139032765D01*
X155039227Y-139026804D01*
X155063495Y-139023204D01*
X155087999Y-139022000D01*
X155738001Y-139022000D01*
X155762505Y-139023204D01*
X155762505Y-139023204D01*
G37*
D11*
X155413000Y-139722000D03*
D10*
G36*
X155378505Y-115037204D02*
G01*
X155402773Y-115040804D01*
X155426572Y-115046765D01*
X155449671Y-115055030D01*
X155471850Y-115065520D01*
X155492893Y-115078132D01*
X155512599Y-115092747D01*
X155530777Y-115109223D01*
X155547253Y-115127401D01*
X155561868Y-115147107D01*
X155574480Y-115168150D01*
X155584970Y-115190329D01*
X155593235Y-115213428D01*
X155599196Y-115237227D01*
X155602796Y-115261495D01*
X155604000Y-115285999D01*
X155604000Y-116186001D01*
X155602796Y-116210505D01*
X155599196Y-116234773D01*
X155593235Y-116258572D01*
X155584970Y-116281671D01*
X155574480Y-116303850D01*
X155561868Y-116324893D01*
X155547253Y-116344599D01*
X155530777Y-116362777D01*
X155512599Y-116379253D01*
X155492893Y-116393868D01*
X155471850Y-116406480D01*
X155449671Y-116416970D01*
X155426572Y-116425235D01*
X155402773Y-116431196D01*
X155378505Y-116434796D01*
X155354001Y-116436000D01*
X154703999Y-116436000D01*
X154679495Y-116434796D01*
X154655227Y-116431196D01*
X154631428Y-116425235D01*
X154608329Y-116416970D01*
X154586150Y-116406480D01*
X154565107Y-116393868D01*
X154545401Y-116379253D01*
X154527223Y-116362777D01*
X154510747Y-116344599D01*
X154496132Y-116324893D01*
X154483520Y-116303850D01*
X154473030Y-116281671D01*
X154464765Y-116258572D01*
X154458804Y-116234773D01*
X154455204Y-116210505D01*
X154454000Y-116186001D01*
X154454000Y-115285999D01*
X154455204Y-115261495D01*
X154458804Y-115237227D01*
X154464765Y-115213428D01*
X154473030Y-115190329D01*
X154483520Y-115168150D01*
X154496132Y-115147107D01*
X154510747Y-115127401D01*
X154527223Y-115109223D01*
X154545401Y-115092747D01*
X154565107Y-115078132D01*
X154586150Y-115065520D01*
X154608329Y-115055030D01*
X154631428Y-115046765D01*
X154655227Y-115040804D01*
X154679495Y-115037204D01*
X154703999Y-115036000D01*
X155354001Y-115036000D01*
X155378505Y-115037204D01*
X155378505Y-115037204D01*
G37*
D11*
X155029000Y-115736000D03*
D10*
G36*
X153328505Y-115037204D02*
G01*
X153352773Y-115040804D01*
X153376572Y-115046765D01*
X153399671Y-115055030D01*
X153421850Y-115065520D01*
X153442893Y-115078132D01*
X153462599Y-115092747D01*
X153480777Y-115109223D01*
X153497253Y-115127401D01*
X153511868Y-115147107D01*
X153524480Y-115168150D01*
X153534970Y-115190329D01*
X153543235Y-115213428D01*
X153549196Y-115237227D01*
X153552796Y-115261495D01*
X153554000Y-115285999D01*
X153554000Y-116186001D01*
X153552796Y-116210505D01*
X153549196Y-116234773D01*
X153543235Y-116258572D01*
X153534970Y-116281671D01*
X153524480Y-116303850D01*
X153511868Y-116324893D01*
X153497253Y-116344599D01*
X153480777Y-116362777D01*
X153462599Y-116379253D01*
X153442893Y-116393868D01*
X153421850Y-116406480D01*
X153399671Y-116416970D01*
X153376572Y-116425235D01*
X153352773Y-116431196D01*
X153328505Y-116434796D01*
X153304001Y-116436000D01*
X152653999Y-116436000D01*
X152629495Y-116434796D01*
X152605227Y-116431196D01*
X152581428Y-116425235D01*
X152558329Y-116416970D01*
X152536150Y-116406480D01*
X152515107Y-116393868D01*
X152495401Y-116379253D01*
X152477223Y-116362777D01*
X152460747Y-116344599D01*
X152446132Y-116324893D01*
X152433520Y-116303850D01*
X152423030Y-116281671D01*
X152414765Y-116258572D01*
X152408804Y-116234773D01*
X152405204Y-116210505D01*
X152404000Y-116186001D01*
X152404000Y-115285999D01*
X152405204Y-115261495D01*
X152408804Y-115237227D01*
X152414765Y-115213428D01*
X152423030Y-115190329D01*
X152433520Y-115168150D01*
X152446132Y-115147107D01*
X152460747Y-115127401D01*
X152477223Y-115109223D01*
X152495401Y-115092747D01*
X152515107Y-115078132D01*
X152536150Y-115065520D01*
X152558329Y-115055030D01*
X152581428Y-115046765D01*
X152605227Y-115040804D01*
X152629495Y-115037204D01*
X152653999Y-115036000D01*
X153304001Y-115036000D01*
X153328505Y-115037204D01*
X153328505Y-115037204D01*
G37*
D11*
X152979000Y-115736000D03*
D10*
G36*
X113065505Y-38329204D02*
G01*
X113089773Y-38332804D01*
X113113572Y-38338765D01*
X113136671Y-38347030D01*
X113158850Y-38357520D01*
X113179893Y-38370132D01*
X113199599Y-38384747D01*
X113217777Y-38401223D01*
X113234253Y-38419401D01*
X113248868Y-38439107D01*
X113261480Y-38460150D01*
X113271970Y-38482329D01*
X113280235Y-38505428D01*
X113286196Y-38529227D01*
X113289796Y-38553495D01*
X113291000Y-38577999D01*
X113291000Y-39228001D01*
X113289796Y-39252505D01*
X113286196Y-39276773D01*
X113280235Y-39300572D01*
X113271970Y-39323671D01*
X113261480Y-39345850D01*
X113248868Y-39366893D01*
X113234253Y-39386599D01*
X113217777Y-39404777D01*
X113199599Y-39421253D01*
X113179893Y-39435868D01*
X113158850Y-39448480D01*
X113136671Y-39458970D01*
X113113572Y-39467235D01*
X113089773Y-39473196D01*
X113065505Y-39476796D01*
X113041001Y-39478000D01*
X112140999Y-39478000D01*
X112116495Y-39476796D01*
X112092227Y-39473196D01*
X112068428Y-39467235D01*
X112045329Y-39458970D01*
X112023150Y-39448480D01*
X112002107Y-39435868D01*
X111982401Y-39421253D01*
X111964223Y-39404777D01*
X111947747Y-39386599D01*
X111933132Y-39366893D01*
X111920520Y-39345850D01*
X111910030Y-39323671D01*
X111901765Y-39300572D01*
X111895804Y-39276773D01*
X111892204Y-39252505D01*
X111891000Y-39228001D01*
X111891000Y-38577999D01*
X111892204Y-38553495D01*
X111895804Y-38529227D01*
X111901765Y-38505428D01*
X111910030Y-38482329D01*
X111920520Y-38460150D01*
X111933132Y-38439107D01*
X111947747Y-38419401D01*
X111964223Y-38401223D01*
X111982401Y-38384747D01*
X112002107Y-38370132D01*
X112023150Y-38357520D01*
X112045329Y-38347030D01*
X112068428Y-38338765D01*
X112092227Y-38332804D01*
X112116495Y-38329204D01*
X112140999Y-38328000D01*
X113041001Y-38328000D01*
X113065505Y-38329204D01*
X113065505Y-38329204D01*
G37*
D11*
X112591000Y-38903000D03*
D10*
G36*
X113065505Y-36279204D02*
G01*
X113089773Y-36282804D01*
X113113572Y-36288765D01*
X113136671Y-36297030D01*
X113158850Y-36307520D01*
X113179893Y-36320132D01*
X113199599Y-36334747D01*
X113217777Y-36351223D01*
X113234253Y-36369401D01*
X113248868Y-36389107D01*
X113261480Y-36410150D01*
X113271970Y-36432329D01*
X113280235Y-36455428D01*
X113286196Y-36479227D01*
X113289796Y-36503495D01*
X113291000Y-36527999D01*
X113291000Y-37178001D01*
X113289796Y-37202505D01*
X113286196Y-37226773D01*
X113280235Y-37250572D01*
X113271970Y-37273671D01*
X113261480Y-37295850D01*
X113248868Y-37316893D01*
X113234253Y-37336599D01*
X113217777Y-37354777D01*
X113199599Y-37371253D01*
X113179893Y-37385868D01*
X113158850Y-37398480D01*
X113136671Y-37408970D01*
X113113572Y-37417235D01*
X113089773Y-37423196D01*
X113065505Y-37426796D01*
X113041001Y-37428000D01*
X112140999Y-37428000D01*
X112116495Y-37426796D01*
X112092227Y-37423196D01*
X112068428Y-37417235D01*
X112045329Y-37408970D01*
X112023150Y-37398480D01*
X112002107Y-37385868D01*
X111982401Y-37371253D01*
X111964223Y-37354777D01*
X111947747Y-37336599D01*
X111933132Y-37316893D01*
X111920520Y-37295850D01*
X111910030Y-37273671D01*
X111901765Y-37250572D01*
X111895804Y-37226773D01*
X111892204Y-37202505D01*
X111891000Y-37178001D01*
X111891000Y-36527999D01*
X111892204Y-36503495D01*
X111895804Y-36479227D01*
X111901765Y-36455428D01*
X111910030Y-36432329D01*
X111920520Y-36410150D01*
X111933132Y-36389107D01*
X111947747Y-36369401D01*
X111964223Y-36351223D01*
X111982401Y-36334747D01*
X112002107Y-36320132D01*
X112023150Y-36307520D01*
X112045329Y-36297030D01*
X112068428Y-36288765D01*
X112092227Y-36282804D01*
X112116495Y-36279204D01*
X112140999Y-36278000D01*
X113041001Y-36278000D01*
X113065505Y-36279204D01*
X113065505Y-36279204D01*
G37*
D11*
X112591000Y-36853000D03*
D19*
X109990000Y-43196000D03*
D20*
X109990000Y-41476000D03*
X107790000Y-41476000D03*
X107790000Y-43376000D03*
D10*
G36*
X118944505Y-55093204D02*
G01*
X118968773Y-55096804D01*
X118992572Y-55102765D01*
X119015671Y-55111030D01*
X119037850Y-55121520D01*
X119058893Y-55134132D01*
X119078599Y-55148747D01*
X119096777Y-55165223D01*
X119113253Y-55183401D01*
X119127868Y-55203107D01*
X119140480Y-55224150D01*
X119150970Y-55246329D01*
X119159235Y-55269428D01*
X119165196Y-55293227D01*
X119168796Y-55317495D01*
X119170000Y-55341999D01*
X119170000Y-56242001D01*
X119168796Y-56266505D01*
X119165196Y-56290773D01*
X119159235Y-56314572D01*
X119150970Y-56337671D01*
X119140480Y-56359850D01*
X119127868Y-56380893D01*
X119113253Y-56400599D01*
X119096777Y-56418777D01*
X119078599Y-56435253D01*
X119058893Y-56449868D01*
X119037850Y-56462480D01*
X119015671Y-56472970D01*
X118992572Y-56481235D01*
X118968773Y-56487196D01*
X118944505Y-56490796D01*
X118920001Y-56492000D01*
X118269999Y-56492000D01*
X118245495Y-56490796D01*
X118221227Y-56487196D01*
X118197428Y-56481235D01*
X118174329Y-56472970D01*
X118152150Y-56462480D01*
X118131107Y-56449868D01*
X118111401Y-56435253D01*
X118093223Y-56418777D01*
X118076747Y-56400599D01*
X118062132Y-56380893D01*
X118049520Y-56359850D01*
X118039030Y-56337671D01*
X118030765Y-56314572D01*
X118024804Y-56290773D01*
X118021204Y-56266505D01*
X118020000Y-56242001D01*
X118020000Y-55341999D01*
X118021204Y-55317495D01*
X118024804Y-55293227D01*
X118030765Y-55269428D01*
X118039030Y-55246329D01*
X118049520Y-55224150D01*
X118062132Y-55203107D01*
X118076747Y-55183401D01*
X118093223Y-55165223D01*
X118111401Y-55148747D01*
X118131107Y-55134132D01*
X118152150Y-55121520D01*
X118174329Y-55111030D01*
X118197428Y-55102765D01*
X118221227Y-55096804D01*
X118245495Y-55093204D01*
X118269999Y-55092000D01*
X118920001Y-55092000D01*
X118944505Y-55093204D01*
X118944505Y-55093204D01*
G37*
D11*
X118595000Y-55792000D03*
D10*
G36*
X116894505Y-55093204D02*
G01*
X116918773Y-55096804D01*
X116942572Y-55102765D01*
X116965671Y-55111030D01*
X116987850Y-55121520D01*
X117008893Y-55134132D01*
X117028599Y-55148747D01*
X117046777Y-55165223D01*
X117063253Y-55183401D01*
X117077868Y-55203107D01*
X117090480Y-55224150D01*
X117100970Y-55246329D01*
X117109235Y-55269428D01*
X117115196Y-55293227D01*
X117118796Y-55317495D01*
X117120000Y-55341999D01*
X117120000Y-56242001D01*
X117118796Y-56266505D01*
X117115196Y-56290773D01*
X117109235Y-56314572D01*
X117100970Y-56337671D01*
X117090480Y-56359850D01*
X117077868Y-56380893D01*
X117063253Y-56400599D01*
X117046777Y-56418777D01*
X117028599Y-56435253D01*
X117008893Y-56449868D01*
X116987850Y-56462480D01*
X116965671Y-56472970D01*
X116942572Y-56481235D01*
X116918773Y-56487196D01*
X116894505Y-56490796D01*
X116870001Y-56492000D01*
X116219999Y-56492000D01*
X116195495Y-56490796D01*
X116171227Y-56487196D01*
X116147428Y-56481235D01*
X116124329Y-56472970D01*
X116102150Y-56462480D01*
X116081107Y-56449868D01*
X116061401Y-56435253D01*
X116043223Y-56418777D01*
X116026747Y-56400599D01*
X116012132Y-56380893D01*
X115999520Y-56359850D01*
X115989030Y-56337671D01*
X115980765Y-56314572D01*
X115974804Y-56290773D01*
X115971204Y-56266505D01*
X115970000Y-56242001D01*
X115970000Y-55341999D01*
X115971204Y-55317495D01*
X115974804Y-55293227D01*
X115980765Y-55269428D01*
X115989030Y-55246329D01*
X115999520Y-55224150D01*
X116012132Y-55203107D01*
X116026747Y-55183401D01*
X116043223Y-55165223D01*
X116061401Y-55148747D01*
X116081107Y-55134132D01*
X116102150Y-55121520D01*
X116124329Y-55111030D01*
X116147428Y-55102765D01*
X116171227Y-55096804D01*
X116195495Y-55093204D01*
X116219999Y-55092000D01*
X116870001Y-55092000D01*
X116894505Y-55093204D01*
X116894505Y-55093204D01*
G37*
D11*
X116545000Y-55792000D03*
D10*
G36*
X63294504Y-116178204D02*
G01*
X63318773Y-116181804D01*
X63342571Y-116187765D01*
X63365671Y-116196030D01*
X63387849Y-116206520D01*
X63408893Y-116219133D01*
X63428598Y-116233747D01*
X63446777Y-116250223D01*
X63463253Y-116268402D01*
X63477867Y-116288107D01*
X63490480Y-116309151D01*
X63500970Y-116331329D01*
X63509235Y-116354429D01*
X63515196Y-116378227D01*
X63518796Y-116402496D01*
X63520000Y-116427000D01*
X63520000Y-117677000D01*
X63518796Y-117701504D01*
X63515196Y-117725773D01*
X63509235Y-117749571D01*
X63500970Y-117772671D01*
X63490480Y-117794849D01*
X63477867Y-117815893D01*
X63463253Y-117835598D01*
X63446777Y-117853777D01*
X63428598Y-117870253D01*
X63408893Y-117884867D01*
X63387849Y-117897480D01*
X63365671Y-117907970D01*
X63342571Y-117916235D01*
X63318773Y-117922196D01*
X63294504Y-117925796D01*
X63270000Y-117927000D01*
X62345000Y-117927000D01*
X62320496Y-117925796D01*
X62296227Y-117922196D01*
X62272429Y-117916235D01*
X62249329Y-117907970D01*
X62227151Y-117897480D01*
X62206107Y-117884867D01*
X62186402Y-117870253D01*
X62168223Y-117853777D01*
X62151747Y-117835598D01*
X62137133Y-117815893D01*
X62124520Y-117794849D01*
X62114030Y-117772671D01*
X62105765Y-117749571D01*
X62099804Y-117725773D01*
X62096204Y-117701504D01*
X62095000Y-117677000D01*
X62095000Y-116427000D01*
X62096204Y-116402496D01*
X62099804Y-116378227D01*
X62105765Y-116354429D01*
X62114030Y-116331329D01*
X62124520Y-116309151D01*
X62137133Y-116288107D01*
X62151747Y-116268402D01*
X62168223Y-116250223D01*
X62186402Y-116233747D01*
X62206107Y-116219133D01*
X62227151Y-116206520D01*
X62249329Y-116196030D01*
X62272429Y-116187765D01*
X62296227Y-116181804D01*
X62320496Y-116178204D01*
X62345000Y-116177000D01*
X63270000Y-116177000D01*
X63294504Y-116178204D01*
X63294504Y-116178204D01*
G37*
D21*
X62807500Y-117052000D03*
D10*
G36*
X60319504Y-116178204D02*
G01*
X60343773Y-116181804D01*
X60367571Y-116187765D01*
X60390671Y-116196030D01*
X60412849Y-116206520D01*
X60433893Y-116219133D01*
X60453598Y-116233747D01*
X60471777Y-116250223D01*
X60488253Y-116268402D01*
X60502867Y-116288107D01*
X60515480Y-116309151D01*
X60525970Y-116331329D01*
X60534235Y-116354429D01*
X60540196Y-116378227D01*
X60543796Y-116402496D01*
X60545000Y-116427000D01*
X60545000Y-117677000D01*
X60543796Y-117701504D01*
X60540196Y-117725773D01*
X60534235Y-117749571D01*
X60525970Y-117772671D01*
X60515480Y-117794849D01*
X60502867Y-117815893D01*
X60488253Y-117835598D01*
X60471777Y-117853777D01*
X60453598Y-117870253D01*
X60433893Y-117884867D01*
X60412849Y-117897480D01*
X60390671Y-117907970D01*
X60367571Y-117916235D01*
X60343773Y-117922196D01*
X60319504Y-117925796D01*
X60295000Y-117927000D01*
X59370000Y-117927000D01*
X59345496Y-117925796D01*
X59321227Y-117922196D01*
X59297429Y-117916235D01*
X59274329Y-117907970D01*
X59252151Y-117897480D01*
X59231107Y-117884867D01*
X59211402Y-117870253D01*
X59193223Y-117853777D01*
X59176747Y-117835598D01*
X59162133Y-117815893D01*
X59149520Y-117794849D01*
X59139030Y-117772671D01*
X59130765Y-117749571D01*
X59124804Y-117725773D01*
X59121204Y-117701504D01*
X59120000Y-117677000D01*
X59120000Y-116427000D01*
X59121204Y-116402496D01*
X59124804Y-116378227D01*
X59130765Y-116354429D01*
X59139030Y-116331329D01*
X59149520Y-116309151D01*
X59162133Y-116288107D01*
X59176747Y-116268402D01*
X59193223Y-116250223D01*
X59211402Y-116233747D01*
X59231107Y-116219133D01*
X59252151Y-116206520D01*
X59274329Y-116196030D01*
X59297429Y-116187765D01*
X59321227Y-116181804D01*
X59345496Y-116178204D01*
X59370000Y-116177000D01*
X60295000Y-116177000D01*
X60319504Y-116178204D01*
X60319504Y-116178204D01*
G37*
D21*
X59832500Y-117052000D03*
D10*
G36*
X69510004Y-86548204D02*
G01*
X69534273Y-86551804D01*
X69558071Y-86557765D01*
X69581171Y-86566030D01*
X69603349Y-86576520D01*
X69624393Y-86589133D01*
X69644098Y-86603747D01*
X69662277Y-86620223D01*
X69678753Y-86638402D01*
X69693367Y-86658107D01*
X69705980Y-86679151D01*
X69716470Y-86701329D01*
X69724735Y-86724429D01*
X69730696Y-86748227D01*
X69734296Y-86772496D01*
X69735500Y-86797000D01*
X69735500Y-88047000D01*
X69734296Y-88071504D01*
X69730696Y-88095773D01*
X69724735Y-88119571D01*
X69716470Y-88142671D01*
X69705980Y-88164849D01*
X69693367Y-88185893D01*
X69678753Y-88205598D01*
X69662277Y-88223777D01*
X69644098Y-88240253D01*
X69624393Y-88254867D01*
X69603349Y-88267480D01*
X69581171Y-88277970D01*
X69558071Y-88286235D01*
X69534273Y-88292196D01*
X69510004Y-88295796D01*
X69485500Y-88297000D01*
X68560500Y-88297000D01*
X68535996Y-88295796D01*
X68511727Y-88292196D01*
X68487929Y-88286235D01*
X68464829Y-88277970D01*
X68442651Y-88267480D01*
X68421607Y-88254867D01*
X68401902Y-88240253D01*
X68383723Y-88223777D01*
X68367247Y-88205598D01*
X68352633Y-88185893D01*
X68340020Y-88164849D01*
X68329530Y-88142671D01*
X68321265Y-88119571D01*
X68315304Y-88095773D01*
X68311704Y-88071504D01*
X68310500Y-88047000D01*
X68310500Y-86797000D01*
X68311704Y-86772496D01*
X68315304Y-86748227D01*
X68321265Y-86724429D01*
X68329530Y-86701329D01*
X68340020Y-86679151D01*
X68352633Y-86658107D01*
X68367247Y-86638402D01*
X68383723Y-86620223D01*
X68401902Y-86603747D01*
X68421607Y-86589133D01*
X68442651Y-86576520D01*
X68464829Y-86566030D01*
X68487929Y-86557765D01*
X68511727Y-86551804D01*
X68535996Y-86548204D01*
X68560500Y-86547000D01*
X69485500Y-86547000D01*
X69510004Y-86548204D01*
X69510004Y-86548204D01*
G37*
D21*
X69023000Y-87422000D03*
D10*
G36*
X66535004Y-86548204D02*
G01*
X66559273Y-86551804D01*
X66583071Y-86557765D01*
X66606171Y-86566030D01*
X66628349Y-86576520D01*
X66649393Y-86589133D01*
X66669098Y-86603747D01*
X66687277Y-86620223D01*
X66703753Y-86638402D01*
X66718367Y-86658107D01*
X66730980Y-86679151D01*
X66741470Y-86701329D01*
X66749735Y-86724429D01*
X66755696Y-86748227D01*
X66759296Y-86772496D01*
X66760500Y-86797000D01*
X66760500Y-88047000D01*
X66759296Y-88071504D01*
X66755696Y-88095773D01*
X66749735Y-88119571D01*
X66741470Y-88142671D01*
X66730980Y-88164849D01*
X66718367Y-88185893D01*
X66703753Y-88205598D01*
X66687277Y-88223777D01*
X66669098Y-88240253D01*
X66649393Y-88254867D01*
X66628349Y-88267480D01*
X66606171Y-88277970D01*
X66583071Y-88286235D01*
X66559273Y-88292196D01*
X66535004Y-88295796D01*
X66510500Y-88297000D01*
X65585500Y-88297000D01*
X65560996Y-88295796D01*
X65536727Y-88292196D01*
X65512929Y-88286235D01*
X65489829Y-88277970D01*
X65467651Y-88267480D01*
X65446607Y-88254867D01*
X65426902Y-88240253D01*
X65408723Y-88223777D01*
X65392247Y-88205598D01*
X65377633Y-88185893D01*
X65365020Y-88164849D01*
X65354530Y-88142671D01*
X65346265Y-88119571D01*
X65340304Y-88095773D01*
X65336704Y-88071504D01*
X65335500Y-88047000D01*
X65335500Y-86797000D01*
X65336704Y-86772496D01*
X65340304Y-86748227D01*
X65346265Y-86724429D01*
X65354530Y-86701329D01*
X65365020Y-86679151D01*
X65377633Y-86658107D01*
X65392247Y-86638402D01*
X65408723Y-86620223D01*
X65426902Y-86603747D01*
X65446607Y-86589133D01*
X65467651Y-86576520D01*
X65489829Y-86566030D01*
X65512929Y-86557765D01*
X65536727Y-86551804D01*
X65560996Y-86548204D01*
X65585500Y-86547000D01*
X66510500Y-86547000D01*
X66535004Y-86548204D01*
X66535004Y-86548204D01*
G37*
D21*
X66048000Y-87422000D03*
M02*
